<?xml version="1.0" standalone="no"?>
<!DOCTYPE svg PUBLIC "-//W3C//DTD SVG 1.1//EN" "http://www.w3.org/Graphics/SVG/1.1/DTD/svg11.dtd" >
<svg xmlns="http://www.w3.org/2000/svg" xmlns:xlink="http://www.w3.org/1999/xlink" version="1.1">
<metadata>
Created by FontForge 20170924 at Mon Jul 24 13:10:42 2017
 By www-data
Copyright 2017 The Exo Project Authors (https://github.com/NDISCOVER/Exo-1.0)
</metadata>
<defs>
<font id="Exo-Regular" horiz-adv-x="0" >
  <font-face 
    font-family="Exo"
    font-weight="400"
    font-stretch="normal"
    units-per-em="1000"
    panose-1="0 0 5 0 0 0 0 0 0 0"
    ascent="800"
    descent="-200"
    x-height="534"
    cap-height="736"
    bbox="-508 -270 1333 1101"
    underline-thickness="50"
    underline-position="-100"
    unicode-range="U+000D-FB04"
  />
<missing-glyph horiz-adv-x="654" 
d="M597 537v-540h-540v540h540zM553 493h-453v-453h453v453zM327 230l-130 -131l-37 37l131 130l-131 131l37 36l130 -130l131 130l36 -36l-130 -131l130 -130l-36 -37z" />
    <glyph glyph-name="f_f" unicode="ff" horiz-adv-x="767" 
d="M585.5 678.5q-18.5 -24.5 -18.5 -79.5v-65h166v-65h-166v-469h-79v469h-307v-469h-79v469h-82v51l82 14v71q0 86 33 125t114 39q61 0 113 -15v-56q-47 5 -90 5q-53 0 -72 -25.5t-19 -82.5v-61h307v61q0 89 34.5 131.5t118.5 42.5q51 0 103 -10v-56h-89q-51 0 -69.5 -24.5
z" />
    <glyph glyph-name="f_f_i" unicode="ffi" horiz-adv-x="998" 
d="M921 0h-79v469h-278v-469h-79v469h-304v-469h-79v469h-82v51l82 14v71q0 86 33 125t114 39q61 0 113 -15v-56q-47 5 -90 5q-53 0 -72 -25.5t-19 -82.5v-61h304v71q0 86 33 125t114 39q61 0 113 -15v-56q-47 5 -90 5q-53 0 -72 -25.5t-19 -82.5v-61h357v-534zM925 723v-78
q0 -16 -15 -16h-56q-7 0 -11.5 4.5t-4.5 11.5v78q0 16 16 16h56q15 0 15 -16z" />
    <glyph glyph-name="f_f_l" unicode="ffl" horiz-adv-x="1060" 
d="M1050 57v-57h-67q-72 0 -106.5 39t-34.5 133v527q-104 4 -157 4q-70 0 -95.5 -25.5t-25.5 -82.5v-61h165v-65h-165v-469h-79v469h-304v-469h-79v469h-82v51l82 14v71q0 86 33 125t114 39q61 0 113 -15v-56q-47 5 -90 5q-53 0 -72 -25.5t-19 -82.5v-61h304v64q0 89 43 130
t147 41q65 0 115.5 -5t130.5 -16v-566q0 -66 18 -90t57 -29z" />
    <glyph glyph-name="fi" unicode="fi" horiz-adv-x="614" 
d="M538 0h-79v469h-278v-469h-79v469h-82v51l82 14v71q0 86 33 125t114 39q61 0 113 -15v-56q-47 5 -90 5q-53 0 -72 -25.5t-19 -82.5v-61h357v-534zM542 723v-78q0 -16 -15 -16h-56q-7 0 -11.5 4.5t-4.5 11.5v78q0 16 16 16h56q15 0 15 -16z" />
    <glyph glyph-name="fl" unicode="fl" horiz-adv-x="677" 
d="M667 57v-57h-67q-72 0 -106.5 39t-34.5 133v527q-104 4 -157 4q-70 0 -95.5 -25.5t-25.5 -82.5v-61h165v-65h-165v-469h-79v469h-82v51l82 14v64q0 89 43 130t147 41q65 0 115.5 -5t130.5 -16v-566q0 -66 18 -90t57 -29z" />
    <glyph glyph-name=".notdef" horiz-adv-x="654" 
d="M597 537v-540h-540v540h540zM553 493h-453v-453h453v453zM327 230l-130 -131l-37 37l131 130l-131 131l37 36l130 -130l131 130l36 -36l-130 -131l130 -130l-36 -37z" />
    <glyph glyph-name="NULL" 
 />
    <glyph glyph-name="nonmarkingreturn" unicode="&#xd;" horiz-adv-x="270" 
 />
    <glyph glyph-name="space" unicode=" " horiz-adv-x="270" 
 />
    <glyph glyph-name="A" unicode="A" horiz-adv-x="674" 
d="M286 736h102l252 -736h-82l-74 210h-296l-72 -210h-82zM464 282l-127 384l-129 -384h256z" />
    <glyph glyph-name="Aacute" unicode="&#xc1;" horiz-adv-x="674" 
d="M286 736h102l252 -736h-82l-74 210h-296l-72 -210h-82zM464 282l-127 384l-129 -384h256zM422 927h67l-125 -136h-46z" />
    <glyph glyph-name="Abreve" unicode="&#x102;" horiz-adv-x="674" 
d="M286 736h102l252 -736h-82l-74 210h-296l-72 -210h-82zM464 282l-127 384l-129 -384h256zM235 823q-36 34 -36 107h39q0 -53 24.5 -78t64.5 -25q96 0 96 103h39q0 -75 -36 -108t-96 -33q-59 0 -95 34z" />
    <glyph glyph-name="uni1EAE" unicode="&#x1eae;" horiz-adv-x="674" 
d="M286 736h102l252 -736h-82l-74 210h-296l-72 -210h-82zM464 282l-127 384l-129 -384h256zM406 1037h67l-125 -136h-46zM263 835.5q25 -18.5 64 -18.5q46 0 71 18t25 59h39q0 -60 -36 -86t-96 -26q-58 0 -94.5 27t-36.5 85h39q0 -40 25 -58.5z" />
    <glyph glyph-name="uni1EB6" unicode="&#x1eb6;" horiz-adv-x="674" 
d="M286 736h102l252 -736h-82l-74 210h-296l-72 -210h-82zM464 282l-127 384l-129 -384h256zM235 823q-36 34 -36 107h39q0 -53 24.5 -78t64.5 -25q96 0 96 103h39q0 -75 -36 -108t-96 -33q-59 0 -95 34zM306.5 -205.5q-4.5 4.5 -4.5 11.5v78q0 16 16 16h37q7 0 11 -4.5
t4 -11.5v-78q0 -7 -4 -11.5t-11 -4.5h-37q-7 0 -11.5 4.5z" />
    <glyph glyph-name="uni1EB0" unicode="&#x1eb0;" horiz-adv-x="674" 
d="M286 736h102l252 -736h-82l-74 210h-296l-72 -210h-82zM464 282l-127 384l-129 -384h256zM198 1037h67l104 -136h-46zM263 835.5q25 -18.5 64 -18.5q46 0 71 18t25 59h39q0 -60 -36 -86t-96 -26q-58 0 -94.5 27t-36.5 85h39q0 -40 25 -58.5z" />
    <glyph glyph-name="uni1EB2" unicode="&#x1eb2;" horiz-adv-x="674" 
d="M286 736h102l252 -736h-82l-74 210h-296l-72 -210h-82zM464 282l-127 384l-129 -384h256zM314 896q56 17 56 59q0 44 -48 44q-18 0 -36 -6v34q18 6 46 6q41 0 61 -20.5t20 -56.5q0 -33 -24.5 -57.5t-74.5 -39.5v37zM235.5 809q-36.5 27 -36.5 85h39q0 -40 25 -58.5
t64 -18.5q46 0 71 18t25 59h39q0 -60 -36 -86t-96 -26q-58 0 -94.5 27z" />
    <glyph glyph-name="uni1EB4" unicode="&#x1eb4;" horiz-adv-x="674" 
d="M286 736h102l252 -736h-82l-74 210h-296l-72 -210h-82zM464 282l-127 384l-129 -384h256zM293.5 1006q17.5 -6 42.5 -17q40 -19 64 -19t39 11.5t15 32.5h40q-3 -84 -83 -84q-18 0 -35.5 5.5t-40.5 16.5q-22 10 -37 15t-30 5q-23 0 -37.5 -11t-14.5 -32h-41q2 45 25 64
t57 19q19 0 36.5 -6zM263 835.5q25 -18.5 64 -18.5q46 0 71 18t25 59h39q0 -60 -36 -86t-96 -26q-58 0 -94.5 27t-36.5 85h39q0 -40 25 -58.5z" />
    <glyph glyph-name="Acircumflex" unicode="&#xc2;" horiz-adv-x="674" 
d="M286 736h102l252 -736h-82l-74 210h-296l-72 -210h-82zM464 282l-127 384l-129 -384h256zM312 926h56l110 -135h-48l-91 97l-100 -97h-49z" />
    <glyph glyph-name="uni1EA4" unicode="&#x1ea4;" horiz-adv-x="674" 
d="M286 736h102l252 -736h-82l-74 210h-296l-72 -210h-82zM464 282l-127 384l-129 -384h256zM576 997l-109 -129h-46l87 129h68zM368 889l110 -98h-48l-92 61l-100 -61h-48l121 98h57z" />
    <glyph glyph-name="uni1EAC" unicode="&#x1eac;" horiz-adv-x="674" 
d="M286 736h102l252 -736h-82l-74 210h-296l-72 -210h-82zM464 282l-127 384l-129 -384h256zM312 926h56l110 -135h-48l-91 97l-100 -97h-49zM306.5 -205.5q-4.5 4.5 -4.5 11.5v78q0 16 16 16h37q7 0 11 -4.5t4 -11.5v-78q0 -7 -4 -11.5t-11 -4.5h-37q-7 0 -11.5 4.5z" />
    <glyph glyph-name="uni1EA6" unicode="&#x1ea6;" horiz-adv-x="674" 
d="M286 736h102l252 -736h-82l-74 210h-296l-72 -210h-82zM464 282l-127 384l-129 -384h256zM166 997l87 -129h-46l-109 129h68zM368 889l110 -98h-48l-92 61l-100 -61h-48l121 98h57z" />
    <glyph glyph-name="uni1EA8" unicode="&#x1ea8;" horiz-adv-x="674" 
d="M286 736h102l252 -736h-82l-74 210h-296l-72 -210h-82zM464 282l-127 384l-129 -384h256zM444 879q26 8 38 21.5t12 29.5q0 37 -42 37q-13 0 -35 -6v30q20 7 45 7q36 0 54 -17.5t18 -47.5t-22 -53.5t-68 -36.5v36zM311 889h57l110 -98h-48l-92 61l-100 -61h-48z" />
    <glyph glyph-name="uni1EAA" unicode="&#x1eaa;" horiz-adv-x="674" 
d="M286 736h102l252 -736h-82l-74 210h-296l-72 -210h-82zM464 282l-127 384l-129 -384h256zM293.5 1013q17.5 -6 42.5 -17q40 -19 64 -19t39 11.5t15 32.5h40q-3 -85 -83 -85q-19 0 -36 5.5t-42 16.5q-23 10 -38.5 15t-30.5 5q-21 0 -34.5 -11t-13.5 -31h-41q2 45 25 64
t57 19q19 0 36.5 -6zM478 791h-48l-92 61l-100 -61h-48l121 98h57z" />
    <glyph glyph-name="uni0200" unicode="&#x200;" horiz-adv-x="674" 
d="M286 736h102l252 -736h-82l-74 210h-296l-72 -210h-82zM464 282l-127 384l-129 -384h256zM131 927h68l104 -136h-47zM277 927h68l104 -136h-47z" />
    <glyph glyph-name="Adieresis" unicode="&#xc4;" horiz-adv-x="674" 
d="M286 736h102l252 -736h-82l-74 210h-296l-72 -210h-82zM464 282l-127 384l-129 -384h256zM181.5 817.5q-4.5 4.5 -4.5 11.5v78q0 16 16 16h37q7 0 11.5 -4.5t4.5 -11.5v-78q0 -7 -4.5 -11.5t-11.5 -4.5h-37q-7 0 -11.5 4.5zM417.5 817.5q-4.5 4.5 -4.5 11.5v78
q0 16 16 16h37q7 0 11 -4.5t4 -11.5v-78q0 -7 -4 -11.5t-11 -4.5h-37q-7 0 -11.5 4.5z" />
    <glyph glyph-name="uni1EA0" unicode="&#x1ea0;" horiz-adv-x="674" 
d="M286 736h102l252 -736h-82l-74 210h-296l-72 -210h-82zM464 282l-127 384l-129 -384h256zM306.5 -205.5q-4.5 4.5 -4.5 11.5v78q0 16 16 16h37q7 0 11 -4.5t4 -11.5v-78q0 -7 -4 -11.5t-11 -4.5h-37q-7 0 -11.5 4.5z" />
    <glyph glyph-name="Agrave" unicode="&#xc0;" horiz-adv-x="674" 
d="M286 736h102l252 -736h-82l-74 210h-296l-72 -210h-82zM464 282l-127 384l-129 -384h256zM194 927h67l104 -136h-46z" />
    <glyph glyph-name="uni1EA2" unicode="&#x1ea2;" horiz-adv-x="674" 
d="M286 736h102l252 -736h-82l-74 210h-296l-72 -210h-82zM464 282l-127 384l-129 -384h256zM315 807q56 17 56 59q0 44 -48 44q-18 0 -36 -6v34q18 6 46 6q41 0 61 -20.5t20 -56.5q0 -33 -24.5 -57.5t-74.5 -39.5v37z" />
    <glyph glyph-name="uni0202" unicode="&#x202;" horiz-adv-x="674" 
d="M286 736h102l252 -736h-82l-74 210h-296l-72 -210h-82zM464 282l-127 384l-129 -384h256zM429 897q36 -34 36 -107h-39q0 54 -25 78.5t-64 24.5q-96 0 -96 -103h-39q0 75 36 108t96 33q59 0 95 -34z" />
    <glyph glyph-name="Amacron" unicode="&#x100;" horiz-adv-x="674" 
d="M286 736h102l252 -736h-82l-74 210h-296l-72 -210h-82zM464 282l-127 384l-129 -384h256zM198 879h265v-47h-265v47z" />
    <glyph glyph-name="Aogonek" unicode="&#x104;" horiz-adv-x="674" 
d="M286 736h102l252 -736h-82l-74 210h-296l-72 -210h-82zM464 282l-127 384l-129 -384h256zM511 -162q-28 25 -28 64q0 30 19 55t56 43h30q-63 -35 -63 -81q0 -30 22 -47.5t61 -17.5h6v-38q-11 -3 -26 -3q-49 0 -77 25z" />
    <glyph glyph-name="Aring" unicode="&#xc5;" horiz-adv-x="674" 
d="M286 736h102l252 -736h-82l-74 210h-296l-72 -210h-82zM464 282l-127 384l-129 -384h256zM253.5 788q-27.5 24 -27.5 82q0 59 28 83.5t84 24.5t83 -24.5t27 -83.5q0 -58 -27 -82t-83 -24q-57 0 -84.5 24zM392 812.5q16 15.5 16 57.5t-16 58.5t-54 16.5t-55.5 -16.5
t-17.5 -58.5q0 -41 17.5 -57t55.5 -16t54 15.5z" />
    <glyph glyph-name="Aringacute" unicode="&#x1fa;" horiz-adv-x="674" 
d="M253.5 788q-27.5 24 -27.5 82q0 56 25.5 81t76.5 27l94 123h67l-116 -126q38 -6 56.5 -31.5t18.5 -73.5q0 -58 -27 -82t-83 -24q-57 0 -84.5 24zM282.5 928.5q-17.5 -16.5 -17.5 -58.5q0 -41 17.5 -57t55.5 -16t54 15.5t16 57.5t-16 58.5t-54 16.5t-55.5 -16.5zM640 0
h-82l-74 210h-296l-72 -210h-82l252 736h102zM464 282l-127 384l-129 -384h256z" />
    <glyph glyph-name="Atilde" unicode="&#xc3;" horiz-adv-x="674" 
d="M286 736h102l252 -736h-82l-74 210h-296l-72 -210h-82zM464 282l-127 384l-129 -384h256zM194 888q28 26 67 26q23 0 41.5 -8.5t45.5 -24.5q21 -14 36.5 -21t31.5 -7q26 0 43 16.5t18 46.5h40q-1 -51 -26 -80t-70 -29q-21 0 -39.5 8t-45.5 25q-23 14 -39 21.5t-32 7.5
q-25 0 -41.5 -16t-17.5 -46h-41q1 55 29 81z" />
    <glyph glyph-name="AE" unicode="&#xc6;" horiz-adv-x="964" 
d="M520.5 24q-37.5 28 -40.5 94v91h-238l-129 -209h-79l357 601q38 71 89.5 103t131.5 32q99 0 251 -8l43 -2v-63h-281q-39 0 -55.5 -16t-16.5 -51v-195l310 -5v-61l-310 -5v-173q0 -47 24 -67t71 -20h258v-63l-26 -1q-156 -10 -250 -10q-72 0 -109.5 28zM480 277v338
l-201 -338h201z" />
    <glyph glyph-name="AEacute" unicode="&#x1fc;" horiz-adv-x="964" 
d="M520.5 24q-37.5 28 -40.5 94v91h-238l-129 -209h-79l357 601q38 71 89.5 103t131.5 32q99 0 251 -8l43 -2v-63h-281q-39 0 -55.5 -16t-16.5 -51v-195l310 -5v-61l-310 -5v-173q0 -47 24 -67t71 -20h258v-63l-26 -1q-156 -10 -250 -10q-72 0 -109.5 28zM480 277v338
l-201 -338h201zM615 927h67l-125 -136h-46z" />
    <glyph glyph-name="B" unicode="B" horiz-adv-x="603" 
d="M77 736h266q190 0 190 -189q0 -66 -29.5 -109t-74.5 -56q50 -11 90 -55t40 -123q0 -112 -52 -158t-154 -46h-276v736zM348 410q49 0 79 36.5t30 97.5q0 120 -114 120h-186v-254h191zM351 71q64 0 98 32t34 114q0 60 -37.5 95t-94.5 35h-194v-276h194z" />
    <glyph glyph-name="uni1E02" unicode="&#x1e02;" horiz-adv-x="603" 
d="M77 736h266q190 0 190 -189q0 -66 -29.5 -109t-74.5 -56q50 -11 90 -55t40 -123q0 -112 -52 -158t-154 -46h-276v736zM348 410q49 0 79 36.5t30 97.5q0 120 -114 120h-186v-254h191zM351 71q64 0 98 32t34 114q0 60 -37.5 95t-94.5 35h-194v-276h194zM261.5 824.5
q-4.5 4.5 -4.5 11.5v78q0 16 16 16h37q7 0 11 -4.5t4 -11.5v-78q0 -7 -4 -11.5t-11 -4.5h-37q-7 0 -11.5 4.5z" />
    <glyph glyph-name="C" unicode="C" horiz-adv-x="581" 
d="M168 23.5q-55 29.5 -82 110.5t-27 236q0 147 28 227.5t85 112.5t152 32q46 0 105.5 -7.5t105.5 -19.5v-59q-35 5 -90 10t-109 5q-75 0 -117 -24.5t-61.5 -89t-19.5 -188.5q0 -128 18.5 -192.5t59.5 -88t118 -23.5q127 0 201 13v-60q-46 -11 -103.5 -17.5t-113.5 -6.5
q-95 0 -150 29.5z" />
    <glyph glyph-name="Cacute" unicode="&#x106;" horiz-adv-x="581" 
d="M168 23.5q-55 29.5 -82 110.5t-27 236q0 147 28 227.5t85 112.5t152 32q46 0 105.5 -7.5t105.5 -19.5v-59q-35 5 -90 10t-109 5q-75 0 -117 -24.5t-61.5 -89t-19.5 -188.5q0 -128 18.5 -192.5t59.5 -88t118 -23.5q127 0 201 13v-60q-46 -11 -103.5 -17.5t-113.5 -6.5
q-95 0 -150 29.5zM409 927h67l-125 -136h-46z" />
    <glyph glyph-name="Ccaron" unicode="&#x10c;" horiz-adv-x="581" 
d="M168 23.5q-55 29.5 -82 110.5t-27 236q0 147 28 227.5t85 112.5t152 32q46 0 105.5 -7.5t105.5 -19.5v-59q-35 5 -90 10t-109 5q-75 0 -117 -24.5t-61.5 -89t-19.5 -188.5q0 -128 18.5 -192.5t59.5 -88t118 -23.5q127 0 201 13v-60q-46 -11 -103.5 -17.5t-113.5 -6.5
q-95 0 -150 29.5zM184 926h48l92 -97l100 97h48l-121 -135h-56z" />
    <glyph glyph-name="Ccedilla" unicode="&#xc7;" horiz-adv-x="581" 
d="M219 646.5q-42 -24.5 -61.5 -89t-19.5 -188.5q0 -128 18.5 -192.5t59.5 -88t118 -23.5q127 0 201 13v-60q-79 -20 -183 -23l-32 -49q72 -4 72 -64q0 -34 -25 -53t-71 -19h-33v33l22 2q28 3 42 13.5t14 31.5q0 19 -14.5 31t-51.5 13l39 60q-93 1 -147 30.5t-81 110.5
t-27 235q0 147 28 227.5t85 112.5t152 32q46 0 105.5 -7.5t105.5 -19.5v-59q-35 5 -90 10t-109 5q-75 0 -117 -24.5z" />
    <glyph glyph-name="uni1E08" unicode="&#x1e08;" horiz-adv-x="581" 
d="M351 791h-46l104 136h67zM219 646.5q-42 -24.5 -61.5 -89t-19.5 -188.5q0 -128 18.5 -192.5t59.5 -88t118 -23.5q127 0 201 13v-60q-79 -20 -183 -23l-32 -49q72 -4 72 -64q0 -34 -25 -53t-71 -19h-33v33l22 2q28 3 42 13.5t14 31.5q0 19 -14.5 31t-51.5 13l39 60
q-93 1 -147 30.5t-81 110.5t-27 235q0 147 28 227.5t85 112.5t152 32q46 0 105.5 -7.5t105.5 -19.5v-59q-35 5 -90 10t-109 5q-75 0 -117 -24.5z" />
    <glyph glyph-name="Ccircumflex" unicode="&#x108;" horiz-adv-x="581" 
d="M168 23.5q-55 29.5 -82 110.5t-27 236q0 147 28 227.5t85 112.5t152 32q46 0 105.5 -7.5t105.5 -19.5v-59q-35 5 -90 10t-109 5q-75 0 -117 -24.5t-61.5 -89t-19.5 -188.5q0 -128 18.5 -192.5t59.5 -88t118 -23.5q127 0 201 13v-60q-46 -11 -103.5 -17.5t-113.5 -6.5
q-95 0 -150 29.5zM299 926h56l110 -135h-48l-91 97l-100 -97h-49z" />
    <glyph glyph-name="Cdotaccent" unicode="&#x10a;" horiz-adv-x="581" 
d="M168 23.5q-55 29.5 -82 110.5t-27 236q0 147 28 227.5t85 112.5t152 32q46 0 105.5 -7.5t105.5 -19.5v-59q-35 5 -90 10t-109 5q-75 0 -117 -24.5t-61.5 -89t-19.5 -188.5q0 -128 18.5 -192.5t59.5 -88t118 -23.5q127 0 201 13v-60q-46 -11 -103.5 -17.5t-113.5 -6.5
q-95 0 -150 29.5zM292.5 824.5q-4.5 4.5 -4.5 11.5v78q0 16 16 16h37q7 0 11 -4.5t4 -11.5v-78q0 -7 -4 -11.5t-11 -4.5h-37q-7 0 -11.5 4.5z" />
    <glyph glyph-name="D" unicode="D" horiz-adv-x="669" 
d="M77 736h291q129 0 185.5 -92t56.5 -276q0 -176 -61.5 -272t-180.5 -96h-291v736zM362 71q85 0 127 78.5t42 218.5q0 109 -17.5 174t-54.5 93.5t-97 28.5h-205v-593h205z" />
    <glyph glyph-name="Eth" unicode="&#xd0;" horiz-adv-x="669" 
d="M553.5 644q56.5 -92 56.5 -276q0 -176 -61.5 -272t-180.5 -96h-291v345h-62v55h62v336h291q129 0 185.5 -92zM489 149.5q42 78.5 42 218.5q0 109 -17.5 174t-54.5 93.5t-97 28.5h-205v-264h168v-55h-168v-274h205q85 0 127 78.5z" />
    <glyph glyph-name="Dcaron" unicode="&#x10e;" horiz-adv-x="669" 
d="M77 736h291q129 0 185.5 -92t56.5 -276q0 -176 -61.5 -272t-180.5 -96h-291v736zM362 71q85 0 127 78.5t42 218.5q0 109 -17.5 174t-54.5 93.5t-97 28.5h-205v-593h205zM178 926h48l92 -97l100 97h48l-121 -135h-56z" />
    <glyph glyph-name="Dcroat" unicode="&#x110;" horiz-adv-x="669" 
d="M553.5 644q56.5 -92 56.5 -276q0 -176 -61.5 -272t-180.5 -96h-291v345h-62v55h62v336h291q129 0 185.5 -92zM489 149.5q42 78.5 42 218.5q0 109 -17.5 174t-54.5 93.5t-97 28.5h-205v-264h168v-55h-168v-274h205q85 0 127 78.5z" />
    <glyph glyph-name="uni1E0A" unicode="&#x1e0a;" horiz-adv-x="669" 
d="M77 736h291q129 0 185.5 -92t56.5 -276q0 -176 -61.5 -272t-180.5 -96h-291v736zM362 71q85 0 127 78.5t42 218.5q0 109 -17.5 174t-54.5 93.5t-97 28.5h-205v-593h205zM286.5 824.5q-4.5 4.5 -4.5 11.5v78q0 16 16 16h37q7 0 11 -4.5t4 -11.5v-78q0 -7 -4 -11.5
t-11 -4.5h-37q-7 0 -11.5 4.5z" />
    <glyph glyph-name="uni1E0C" unicode="&#x1e0c;" horiz-adv-x="669" 
d="M77 736h291q129 0 185.5 -92t56.5 -276q0 -176 -61.5 -272t-180.5 -96h-291v736zM362 71q85 0 127 78.5t42 218.5q0 109 -17.5 174t-54.5 93.5t-97 28.5h-205v-593h205zM273.5 -205.5q-4.5 4.5 -4.5 11.5v78q0 16 16 16h37q7 0 11 -4.5t4 -11.5v-78q0 -7 -4 -11.5
t-11 -4.5h-37q-7 0 -11.5 4.5z" />
    <glyph glyph-name="uni1E0E" unicode="&#x1e0e;" horiz-adv-x="669" 
d="M77 736h291q129 0 185.5 -92t56.5 -276q0 -176 -61.5 -272t-180.5 -96h-291v736zM362 71q85 0 127 78.5t42 218.5q0 109 -17.5 174t-54.5 93.5t-97 28.5h-205v-593h205zM168 -141h265v-47h-265v47z" />
    <glyph glyph-name="E" unicode="E" horiz-adv-x="587" 
d="M120.5 25.5q-43.5 29.5 -43.5 113.5v449q0 78 42 113t103 35q160 -3 249 -7l59 -2v-64h-288q-85 0 -85 -88v-174l329 -5v-61l-329 -5v-173q0 -51 24 -69t65 -18h284v-64q-190 -10 -303 -10q-63 0 -106.5 29.5z" />
    <glyph glyph-name="Eacute" unicode="&#xc9;" horiz-adv-x="587" 
d="M120.5 25.5q-43.5 29.5 -43.5 113.5v449q0 78 42 113t103 35q160 -3 249 -7l59 -2v-64h-288q-85 0 -85 -88v-174l329 -5v-61l-329 -5v-173q0 -51 24 -69t65 -18h284v-64q-190 -10 -303 -10q-63 0 -106.5 29.5zM396 927h67l-125 -136h-46z" />
    <glyph glyph-name="Ebreve" unicode="&#x114;" horiz-adv-x="587" 
d="M120.5 25.5q-43.5 29.5 -43.5 113.5v449q0 78 42 113t103 35q160 -3 249 -7l59 -2v-64h-288q-85 0 -85 -88v-174l329 -5v-61l-329 -5v-173q0 -51 24 -69t65 -18h284v-64q-190 -10 -303 -10q-63 0 -106.5 29.5zM209 823q-36 34 -36 107h39q0 -53 24.5 -78t64.5 -25
q96 0 96 103h39q0 -75 -36 -108t-96 -33q-59 0 -95 34z" />
    <glyph glyph-name="Ecaron" unicode="&#x11a;" horiz-adv-x="587" 
d="M120.5 25.5q-43.5 29.5 -43.5 113.5v449q0 78 42 113t103 35q160 -3 249 -7l59 -2v-64h-288q-85 0 -85 -88v-174l329 -5v-61l-329 -5v-173q0 -51 24 -69t65 -18h284v-64q-190 -10 -303 -10q-63 0 -106.5 29.5zM171 926h48l92 -97l100 97h48l-121 -135h-56z" />
    <glyph glyph-name="uni1E1C" unicode="&#x1e1c;" horiz-adv-x="587" 
d="M209 823q-36 34 -36 107h39q0 -53 25 -78t64 -25q96 0 96 103h39q0 -75 -36 -108t-96 -33q-59 0 -95 34zM157 575v-174l329 -5v-61l-329 -5v-173q0 -51 24 -69t65 -18h284v-64q-109 -6 -189 -8l-34 -52q72 -4 72 -64q0 -34 -25 -53t-71 -19h-33v33l22 2q28 3 42 13.5
t14 31.5q0 19 -14.5 31t-51.5 13l42 63l-77 -1q-63 0 -106.5 29.5t-43.5 113.5v449q0 78 42 113t103 35q160 -3 249 -7l59 -2v-64h-288q-85 0 -85 -88z" />
    <glyph glyph-name="Ecircumflex" unicode="&#xca;" horiz-adv-x="587" 
d="M120.5 25.5q-43.5 29.5 -43.5 113.5v449q0 78 42 113t103 35q160 -3 249 -7l59 -2v-64h-288q-85 0 -85 -88v-174l329 -5v-61l-329 -5v-173q0 -51 24 -69t65 -18h284v-64q-190 -10 -303 -10q-63 0 -106.5 29.5zM286 926h56l110 -135h-48l-91 97l-100 -97h-49z" />
    <glyph glyph-name="uni1EBE" unicode="&#x1ebe;" horiz-adv-x="587" 
d="M120.5 25.5q-43.5 29.5 -43.5 113.5v449q0 78 42 113t103 35q160 -3 249 -7l59 -2v-64h-288q-85 0 -85 -88v-174l329 -5v-61l-329 -5v-173q0 -51 24 -69t65 -18h284v-64q-190 -10 -303 -10q-63 0 -106.5 29.5zM550 997l-109 -129h-46l87 129h68zM342 889l110 -98h-48
l-92 61l-100 -61h-48l121 98h57z" />
    <glyph glyph-name="uni1EC6" unicode="&#x1ec6;" horiz-adv-x="587" 
d="M120.5 25.5q-43.5 29.5 -43.5 113.5v449q0 78 42 113t103 35q160 -3 249 -7l59 -2v-64h-288q-85 0 -85 -88v-174l329 -5v-61l-329 -5v-173q0 -51 24 -69t65 -18h284v-64q-190 -10 -303 -10q-63 0 -106.5 29.5zM286 926h56l110 -135h-48l-91 97l-100 -97h-49z
M289.5 -205.5q-4.5 4.5 -4.5 11.5v78q0 16 16 16h37q7 0 11 -4.5t4 -11.5v-78q0 -7 -4 -11.5t-11 -4.5h-37q-7 0 -11.5 4.5z" />
    <glyph glyph-name="uni1EC0" unicode="&#x1ec0;" horiz-adv-x="587" 
d="M120.5 25.5q-43.5 29.5 -43.5 113.5v449q0 78 42 113t103 35q160 -3 249 -7l59 -2v-64h-288q-85 0 -85 -88v-174l329 -5v-61l-329 -5v-173q0 -51 24 -69t65 -18h284v-64q-190 -10 -303 -10q-63 0 -106.5 29.5zM140 997l87 -129h-46l-109 129h68zM342 889l110 -98h-48
l-92 61l-100 -61h-48l121 98h57z" />
    <glyph glyph-name="uni1EC2" unicode="&#x1ec2;" horiz-adv-x="587" 
d="M120.5 25.5q-43.5 29.5 -43.5 113.5v449q0 78 42 113t103 35q160 -3 249 -7l59 -2v-64h-288q-85 0 -85 -88v-174l329 -5v-61l-329 -5v-173q0 -51 24 -69t65 -18h284v-64q-190 -10 -303 -10q-63 0 -106.5 29.5zM418 879q26 8 38 21.5t12 29.5q0 37 -42 37q-13 0 -35 -6v30
q20 7 45 7q36 0 54 -17.5t18 -47.5t-22 -53.5t-68 -36.5v36zM285 889h57l110 -98h-48l-92 61l-100 -61h-48z" />
    <glyph glyph-name="uni1EC4" unicode="&#x1ec4;" horiz-adv-x="587" 
d="M120.5 25.5q-43.5 29.5 -43.5 113.5v449q0 78 42 113t103 35q160 -3 249 -7l59 -2v-64h-288q-85 0 -85 -88v-174l329 -5v-61l-329 -5v-173q0 -51 24 -69t65 -18h284v-64q-190 -10 -303 -10q-63 0 -106.5 29.5zM267.5 1013q17.5 -6 42.5 -17q40 -19 64 -19t39 11.5
t15 32.5h40q-3 -85 -83 -85q-19 0 -36 5.5t-42 16.5q-23 10 -38.5 15t-30.5 5q-21 0 -34.5 -11t-13.5 -31h-41q2 45 25 64t57 19q19 0 36.5 -6zM452 791h-48l-92 61l-100 -61h-48l121 98h57z" />
    <glyph glyph-name="uni0204" unicode="&#x204;" horiz-adv-x="587" 
d="M120.5 25.5q-43.5 29.5 -43.5 113.5v449q0 78 42 113t103 35q160 -3 249 -7l59 -2v-64h-288q-85 0 -85 -88v-174l329 -5v-61l-329 -5v-173q0 -51 24 -69t65 -18h284v-64q-190 -10 -303 -10q-63 0 -106.5 29.5zM106 927h68l104 -136h-47zM252 927h68l104 -136h-47z" />
    <glyph glyph-name="Edieresis" unicode="&#xcb;" horiz-adv-x="587" 
d="M120.5 25.5q-43.5 29.5 -43.5 113.5v449q0 78 42 113t103 35q160 -3 249 -7l59 -2v-64h-288q-85 0 -85 -88v-174l329 -5v-61l-329 -5v-173q0 -51 24 -69t65 -18h284v-64q-190 -10 -303 -10q-63 0 -106.5 29.5zM155.5 817.5q-4.5 4.5 -4.5 11.5v78q0 16 16 16h37
q7 0 11.5 -4.5t4.5 -11.5v-78q0 -7 -4.5 -11.5t-11.5 -4.5h-37q-7 0 -11.5 4.5zM391.5 817.5q-4.5 4.5 -4.5 11.5v78q0 16 16 16h37q7 0 11 -4.5t4 -11.5v-78q0 -7 -4 -11.5t-11 -4.5h-37q-7 0 -11.5 4.5z" />
    <glyph glyph-name="Edotaccent" unicode="&#x116;" horiz-adv-x="587" 
d="M120.5 25.5q-43.5 29.5 -43.5 113.5v449q0 78 42 113t103 35q160 -3 249 -7l59 -2v-64h-288q-85 0 -85 -88v-174l329 -5v-61l-329 -5v-173q0 -51 24 -69t65 -18h284v-64q-190 -10 -303 -10q-63 0 -106.5 29.5zM279.5 824.5q-4.5 4.5 -4.5 11.5v78q0 16 16 16h37
q7 0 11 -4.5t4 -11.5v-78q0 -7 -4 -11.5t-11 -4.5h-37q-7 0 -11.5 4.5z" />
    <glyph glyph-name="uni1EB8" unicode="&#x1eb8;" horiz-adv-x="587" 
d="M120.5 25.5q-43.5 29.5 -43.5 113.5v449q0 78 42 113t103 35q160 -3 249 -7l59 -2v-64h-288q-85 0 -85 -88v-174l329 -5v-61l-329 -5v-173q0 -51 24 -69t65 -18h284v-64q-190 -10 -303 -10q-63 0 -106.5 29.5zM289.5 -205.5q-4.5 4.5 -4.5 11.5v78q0 16 16 16h37
q7 0 11 -4.5t4 -11.5v-78q0 -7 -4 -11.5t-11 -4.5h-37q-7 0 -11.5 4.5z" />
    <glyph glyph-name="Egrave" unicode="&#xc8;" horiz-adv-x="587" 
d="M120.5 25.5q-43.5 29.5 -43.5 113.5v449q0 78 42 113t103 35q160 -3 249 -7l59 -2v-64h-288q-85 0 -85 -88v-174l329 -5v-61l-329 -5v-173q0 -51 24 -69t65 -18h284v-64q-190 -10 -303 -10q-63 0 -106.5 29.5zM168 927h67l104 -136h-46z" />
    <glyph glyph-name="uni1EBA" unicode="&#x1eba;" horiz-adv-x="587" 
d="M120.5 25.5q-43.5 29.5 -43.5 113.5v449q0 78 42 113t103 35q160 -3 249 -7l59 -2v-64h-288q-85 0 -85 -88v-174l329 -5v-61l-329 -5v-173q0 -51 24 -69t65 -18h284v-64q-190 -10 -303 -10q-63 0 -106.5 29.5zM289 807q56 17 56 59q0 44 -48 44q-18 0 -36 -6v34
q18 6 46 6q41 0 61 -20.5t20 -56.5q0 -33 -24.5 -57.5t-74.5 -39.5v37z" />
    <glyph glyph-name="uni0206" unicode="&#x206;" horiz-adv-x="587" 
d="M120.5 25.5q-43.5 29.5 -43.5 113.5v449q0 78 42 113t103 35q160 -3 249 -7l59 -2v-64h-288q-85 0 -85 -88v-174l329 -5v-61l-329 -5v-173q0 -51 24 -69t65 -18h284v-64q-190 -10 -303 -10q-63 0 -106.5 29.5zM403 897q36 -34 36 -107h-39q0 54 -25 78.5t-64 24.5
q-96 0 -96 -103h-39q0 75 36 108t96 33q59 0 95 -34z" />
    <glyph glyph-name="Emacron" unicode="&#x112;" horiz-adv-x="587" 
d="M120.5 25.5q-43.5 29.5 -43.5 113.5v449q0 78 42 113t103 35q160 -3 249 -7l59 -2v-64h-288q-85 0 -85 -88v-174l329 -5v-61l-329 -5v-173q0 -51 24 -69t65 -18h284v-64q-190 -10 -303 -10q-63 0 -106.5 29.5zM172 879h265v-47h-265v47z" />
    <glyph glyph-name="uni1E16" unicode="&#x1e16;" horiz-adv-x="587" 
d="M120.5 25.5q-43.5 29.5 -43.5 113.5v449q0 78 42 113t103 35q160 -3 249 -7l59 -2v-64h-288q-85 0 -85 -88v-174l329 -5v-61l-329 -5v-173q0 -51 24 -69t65 -18h284v-64q-190 -10 -303 -10q-63 0 -106.5 29.5zM172 879h265v-47h-265v47zM392 1057h67l-125 -136h-46z" />
    <glyph glyph-name="uni1E14" unicode="&#x1e14;" horiz-adv-x="587" 
d="M120.5 25.5q-43.5 29.5 -43.5 113.5v449q0 78 42 113t103 35q160 -3 249 -7l59 -2v-64h-288q-85 0 -85 -88v-174l329 -5v-61l-329 -5v-173q0 -51 24 -69t65 -18h284v-64q-190 -10 -303 -10q-63 0 -106.5 29.5zM172 879h265v-47h-265v47zM159 1057h67l104 -136h-46z" />
    <glyph glyph-name="Eogonek" unicode="&#x118;" horiz-adv-x="587" 
d="M555 -140v-38q-10 -3 -26 -3q-49 0 -77 25t-28 64q0 29 18 53.5t53 42.5q-172 -8 -268 -8q-63 0 -106.5 29.5t-43.5 113.5v449q0 78 42 113t103 35q160 -3 249 -7l59 -2v-64h-288q-85 0 -85 -88v-174l329 -5v-61l-329 -5v-173q0 -51 24 -69t65 -18h284v-64h-1
q-63 -35 -63 -81q0 -30 22 -47.5t61 -17.5h6z" />
    <glyph glyph-name="uni1EBC" unicode="&#x1ebc;" horiz-adv-x="587" 
d="M120.5 25.5q-43.5 29.5 -43.5 113.5v449q0 78 42 113t103 35q160 -3 249 -7l59 -2v-64h-288q-85 0 -85 -88v-174l329 -5v-61l-329 -5v-173q0 -51 24 -69t65 -18h284v-64q-190 -10 -303 -10q-63 0 -106.5 29.5zM169 888q28 26 67 26q23 0 41.5 -8.5t45.5 -24.5
q21 -14 36.5 -21t31.5 -7q26 0 43 16.5t18 46.5h40q-1 -51 -26 -80t-70 -29q-21 0 -39.5 8t-45.5 25q-23 14 -39 21.5t-32 7.5q-25 0 -41.5 -16t-17.5 -46h-41q1 55 29 81z" />
    <glyph glyph-name="F" unicode="F" horiz-adv-x="567" 
d="M77 588q0 78 42 113t103 35l56 -1q24 -1 104.5 -2.5t147.5 -6.5v-63h-289q-40 0 -62 -22.5t-22 -64.5v-191l329 -5v-61l-329 -5v-314h-80v588z" />
    <glyph glyph-name="uni1E1E" unicode="&#x1e1e;" horiz-adv-x="567" 
d="M77 588q0 78 42 113t103 35l56 -1q24 -1 104.5 -2.5t147.5 -6.5v-63h-289q-40 0 -62 -22.5t-22 -64.5v-191l329 -5v-61l-329 -5v-314h-80v588zM279.5 824.5q-4.5 4.5 -4.5 11.5v78q0 16 16 16h37q7 0 11 -4.5t4 -11.5v-78q0 -7 -4 -11.5t-11 -4.5h-37q-7 0 -11.5 4.5z
" />
    <glyph glyph-name="G" unicode="G" horiz-adv-x="653" 
d="M151 34.5q-51 39.5 -71.5 120t-20.5 215.5q0 131 22 211t76.5 120.5t150.5 40.5q57 0 120 -7t117 -19v-59q-40 5 -103 9.5t-122 4.5q-72 0 -111.5 -30t-55 -94.5t-15.5 -177.5q0 -120 15.5 -184t53.5 -90.5t110 -26.5q44 0 92.5 11t89.5 27v217h-178v59q65 10 165 10
q58 0 89 -4v-388h-58l-12 52q-45 -23 -100 -40t-112 -17q-91 0 -142 39.5z" />
    <glyph glyph-name="Gbreve" unicode="&#x11e;" horiz-adv-x="653" 
d="M151 34.5q-51 39.5 -71.5 120t-20.5 215.5q0 131 22 211t76.5 120.5t150.5 40.5q57 0 120 -7t117 -19v-59q-40 5 -103 9.5t-122 4.5q-72 0 -111.5 -30t-55 -94.5t-15.5 -177.5q0 -120 15.5 -184t53.5 -90.5t110 -26.5q44 0 92.5 11t89.5 27v217h-178v59q65 10 165 10
q58 0 89 -4v-388h-58l-12 52q-45 -23 -100 -40t-112 -17q-91 0 -142 39.5zM226 823q-36 34 -36 107h39q0 -53 24.5 -78t64.5 -25q96 0 96 103h39q0 -75 -36 -108t-96 -33q-59 0 -95 34z" />
    <glyph glyph-name="Gcaron" unicode="&#x1e6;" horiz-adv-x="653" 
d="M151 34.5q-51 39.5 -71.5 120t-20.5 215.5q0 131 22 211t76.5 120.5t150.5 40.5q57 0 120 -7t117 -19v-59q-40 5 -103 9.5t-122 4.5q-72 0 -111.5 -30t-55 -94.5t-15.5 -177.5q0 -120 15.5 -184t53.5 -90.5t110 -26.5q44 0 92.5 11t89.5 27v217h-178v59q65 10 165 10
q58 0 89 -4v-388h-58l-12 52q-45 -23 -100 -40t-112 -17q-91 0 -142 39.5zM188 926h48l92 -97l100 97h48l-121 -135h-56z" />
    <glyph glyph-name="Gcircumflex" unicode="&#x11c;" horiz-adv-x="653" 
d="M151 34.5q-51 39.5 -71.5 120t-20.5 215.5q0 131 22 211t76.5 120.5t150.5 40.5q57 0 120 -7t117 -19v-59q-40 5 -103 9.5t-122 4.5q-72 0 -111.5 -30t-55 -94.5t-15.5 -177.5q0 -120 15.5 -184t53.5 -90.5t110 -26.5q44 0 92.5 11t89.5 27v217h-178v59q65 10 165 10
q58 0 89 -4v-388h-58l-12 52q-45 -23 -100 -40t-112 -17q-91 0 -142 39.5zM303 926h56l110 -135h-48l-91 97l-100 -97h-49z" />
    <glyph glyph-name="Gcommaaccent" unicode="&#x122;" horiz-adv-x="653" 
d="M151 34.5q-51 39.5 -71.5 120t-20.5 215.5q0 131 22 211t76.5 120.5t150.5 40.5q57 0 120 -7t117 -19v-59q-40 5 -103 9.5t-122 4.5q-72 0 -111.5 -30t-55 -94.5t-15.5 -177.5q0 -120 15.5 -184t53.5 -90.5t110 -26.5q44 0 92.5 11t89.5 27v217h-178v59q65 10 165 10
q58 0 89 -4v-388h-58l-12 52q-45 -23 -100 -40t-112 -17q-91 0 -142 39.5zM257 -170l30 5q26 4 40 11.5t21 28.5t7 62h49q0 -52 -9 -81.5t-32.5 -43.5t-67.5 -14h-38v32z" />
    <glyph glyph-name="Gdotaccent" unicode="&#x120;" horiz-adv-x="653" 
d="M151 34.5q-51 39.5 -71.5 120t-20.5 215.5q0 131 22 211t76.5 120.5t150.5 40.5q57 0 120 -7t117 -19v-59q-40 5 -103 9.5t-122 4.5q-72 0 -111.5 -30t-55 -94.5t-15.5 -177.5q0 -120 15.5 -184t53.5 -90.5t110 -26.5q44 0 92.5 11t89.5 27v217h-178v59q65 10 165 10
q58 0 89 -4v-388h-58l-12 52q-45 -23 -100 -40t-112 -17q-91 0 -142 39.5zM296.5 824.5q-4.5 4.5 -4.5 11.5v78q0 16 16 16h37q7 0 11 -4.5t4 -11.5v-78q0 -7 -4 -11.5t-11 -4.5h-37q-7 0 -11.5 4.5z" />
    <glyph glyph-name="uni1E20" unicode="&#x1e20;" horiz-adv-x="653" 
d="M151 34.5q-51 39.5 -71.5 120t-20.5 215.5q0 131 22 211t76.5 120.5t150.5 40.5q57 0 120 -7t117 -19v-59q-40 5 -103 9.5t-122 4.5q-72 0 -111.5 -30t-55 -94.5t-15.5 -177.5q0 -120 15.5 -184t53.5 -90.5t110 -26.5q44 0 92.5 11t89.5 27v217h-178v59q65 10 165 10
q58 0 89 -4v-388h-58l-12 52q-45 -23 -100 -40t-112 -17q-91 0 -142 39.5zM189 879h265v-47h-265v47z" />
    <glyph glyph-name="H" unicode="H" horiz-adv-x="682" 
d="M77 736h80v-341h368v341h79v-736h-79v324h-368v-324h-80v736z" />
    <glyph glyph-name="Hbar" unicode="&#x126;" horiz-adv-x="682" 
d="M667 525h-63v-525h-79v324h-368v-324h-80v525h-62v46h62v165h80v-165h368v165h79v-165h63v-46zM525 525h-368v-130h368v130z" />
    <glyph glyph-name="uni1E2A" unicode="&#x1e2a;" horiz-adv-x="682" 
d="M77 736h80v-341h368v341h79v-736h-79v324h-368v-324h-80v736zM242 -187q-36 34 -36 107h39q0 -54 24.5 -78.5t64.5 -24.5q96 0 96 103h39q0 -75 -36 -108t-96 -33q-59 0 -95 34z" />
    <glyph glyph-name="Hcircumflex" unicode="&#x124;" horiz-adv-x="682" 
d="M77 736h80v-341h368v341h79v-736h-79v324h-368v-324h-80v736zM316 926h56l110 -135h-48l-91 97l-100 -97h-49z" />
    <glyph glyph-name="uni1E24" unicode="&#x1e24;" horiz-adv-x="682" 
d="M77 736h80v-341h368v341h79v-736h-79v324h-368v-324h-80v736zM310.5 -205.5q-4.5 4.5 -4.5 11.5v78q0 16 16 16h37q7 0 11 -4.5t4 -11.5v-78q0 -7 -4 -11.5t-11 -4.5h-37q-7 0 -11.5 4.5z" />
    <glyph glyph-name="I" unicode="I" horiz-adv-x="234" 
d="M77 736h80v-736h-80v736z" />
    <glyph glyph-name="Iacute" unicode="&#xcd;" horiz-adv-x="234" 
d="M77 736h80v-736h-80v736zM202 927h67l-125 -136h-46z" />
    <glyph glyph-name="Ibreve" unicode="&#x12c;" horiz-adv-x="234" 
d="M77 736h80v-736h-80v736zM15 823q-36 34 -36 107h39q0 -53 24.5 -78t64.5 -25q96 0 96 103h39q0 -75 -36 -108t-96 -33q-59 0 -95 34z" />
    <glyph glyph-name="Icircumflex" unicode="&#xce;" horiz-adv-x="234" 
d="M77 736h80v-736h-80v736zM92 926h56l110 -135h-48l-91 97l-100 -97h-49z" />
    <glyph glyph-name="uni0208" unicode="&#x208;" horiz-adv-x="234" 
d="M77 736h80v-736h-80v736zM-89 927h68l104 -136h-47zM57 927h68l104 -136h-47z" />
    <glyph glyph-name="Idieresis" unicode="&#xcf;" horiz-adv-x="234" 
d="M77 736h80v-736h-80v736zM-38.5 817.5q-4.5 4.5 -4.5 11.5v78q0 16 16 16h37q7 0 11.5 -4.5t4.5 -11.5v-78q0 -7 -4.5 -11.5t-11.5 -4.5h-37q-7 0 -11.5 4.5zM197.5 817.5q-4.5 4.5 -4.5 11.5v78q0 16 16 16h37q7 0 11 -4.5t4 -11.5v-78q0 -7 -4 -11.5t-11 -4.5h-37
q-7 0 -11.5 4.5z" />
    <glyph glyph-name="uni1E2E" unicode="&#x1e2e;" horiz-adv-x="234" 
d="M77 736h80v-736h-80v736zM-38.5 817.5q-4.5 4.5 -4.5 11.5v78q0 16 16 16h37q7 0 11.5 -4.5t4.5 -11.5v-78q0 -7 -4.5 -11.5t-11.5 -4.5h-37q-7 0 -11.5 4.5zM197.5 817.5q-4.5 4.5 -4.5 11.5v78q0 16 16 16h37q7 0 11 -4.5t4 -11.5v-78q0 -7 -4 -11.5t-11 -4.5h-37
q-7 0 -11.5 4.5zM199 1090h67l-125 -136h-46z" />
    <glyph glyph-name="Idotaccent" unicode="&#x130;" horiz-adv-x="234" 
d="M77 736h80v-736h-80v736zM85.5 824.5q-4.5 4.5 -4.5 11.5v78q0 16 16 16h37q7 0 11 -4.5t4 -11.5v-78q0 -7 -4 -11.5t-11 -4.5h-37q-7 0 -11.5 4.5z" />
    <glyph glyph-name="uni1ECA" unicode="&#x1eca;" horiz-adv-x="234" 
d="M77 736h80v-736h-80v736zM86.5 -205.5q-4.5 4.5 -4.5 11.5v78q0 16 16 16h37q7 0 11 -4.5t4 -11.5v-78q0 -7 -4 -11.5t-11 -4.5h-37q-7 0 -11.5 4.5z" />
    <glyph glyph-name="Igrave" unicode="&#xcc;" horiz-adv-x="234" 
d="M77 736h80v-736h-80v736zM-26 927h67l104 -136h-46z" />
    <glyph glyph-name="uni1EC8" unicode="&#x1ec8;" horiz-adv-x="234" 
d="M77 736h80v-736h-80v736zM95 807q56 17 56 59q0 44 -48 44q-18 0 -36 -6v34q18 6 46 6q41 0 61 -20.5t20 -56.5q0 -33 -24.5 -57.5t-74.5 -39.5v37z" />
    <glyph glyph-name="uni020A" unicode="&#x20a;" horiz-adv-x="234" 
d="M77 736h80v-736h-80v736zM209 897q36 -34 36 -107h-39q0 54 -25 78.5t-64 24.5q-96 0 -96 -103h-39q0 75 36 108t96 33q59 0 95 -34z" />
    <glyph glyph-name="Imacron" unicode="&#x12a;" horiz-adv-x="234" 
d="M77 736h80v-736h-80v736zM-22 879h265v-47h-265v47z" />
    <glyph glyph-name="Iogonek" unicode="&#x12e;" horiz-adv-x="234" 
d="M77 736h80v-736h-80v736zM79 -162q-28 25 -28 64q0 30 19 55t56 43h30q-63 -35 -63 -81q0 -30 22 -47.5t61 -17.5h6v-38q-11 -3 -26 -3q-49 0 -77 25z" />
    <glyph glyph-name="Itilde" unicode="&#x128;" horiz-adv-x="234" 
d="M77 736h80v-736h-80v736zM-26 888q28 26 67 26q23 0 41.5 -8.5t45.5 -24.5q21 -14 36.5 -21t31.5 -7q26 0 43 16.5t18 46.5h40q-1 -51 -26 -80t-70 -29q-21 0 -39.5 8t-45.5 25q-23 14 -39 21.5t-32 7.5q-25 0 -41.5 -16t-17.5 -46h-41q1 55 29 81z" />
    <glyph glyph-name="J" unicode="J" horiz-adv-x="385" 
d="M80 0.5q-32 6.5 -53 16.5v61q61 -13 98 -13q51 0 77 23t26 83v565h79v-575q0 -90 -40.5 -128.5t-126.5 -38.5q-28 0 -60 6.5z" />
    <glyph glyph-name="Jcircumflex" unicode="&#x134;" horiz-adv-x="385" 
d="M80 0.5q-32 6.5 -53 16.5v61q61 -13 98 -13q51 0 77 23t26 83v565h79v-575q0 -90 -40.5 -128.5t-126.5 -38.5q-28 0 -60 6.5zM243 926h56l110 -135h-48l-91 97l-100 -97h-49z" />
    <glyph glyph-name="K" unicode="K" horiz-adv-x="605" 
d="M77 736h80v-333h129l202 333h84l-223 -368l226 -368h-85l-204 331h-129v-331h-80v736z" />
    <glyph glyph-name="Kcommaaccent" unicode="&#x136;" horiz-adv-x="605" 
d="M77 736h80v-333h129l202 333h84l-223 -368l226 -368h-85l-204 331h-129v-331h-80v736zM210 -170l30 5q26 4 40 11.5t21 28.5t7 62h49q0 -52 -9 -81.5t-32.5 -43.5t-67.5 -14h-38v32z" />
    <glyph glyph-name="L" unicode="L" horiz-adv-x="532" 
d="M116 33.5q-39 33.5 -39 114.5v588h80v-577q0 -49 23 -67.5t62 -18.5h264v-73h-281q-70 0 -109 33.5z" />
    <glyph glyph-name="Lacute" unicode="&#x139;" horiz-adv-x="532" 
d="M116 33.5q-39 33.5 -39 114.5v588h80v-577q0 -49 23 -67.5t62 -18.5h264v-73h-281q-70 0 -109 33.5zM202 927h67l-125 -136h-46z" />
    <glyph glyph-name="Lcaron" unicode="&#x13d;" horiz-adv-x="532" 
d="M116 33.5q-39 33.5 -39 114.5v588h80v-577q0 -49 23 -67.5t62 -18.5h264v-73h-281q-70 0 -109 33.5zM244 723v60h73v-60l-6 -141h-61z" />
    <glyph glyph-name="Lcommaaccent" unicode="&#x13b;" horiz-adv-x="532" 
d="M116 33.5q-39 33.5 -39 114.5v588h80v-577q0 -49 23 -67.5t62 -18.5h264v-73h-281q-70 0 -109 33.5zM191 -170l30 5q26 4 40 11.5t21 28.5t7 62h49q0 -52 -9 -81.5t-32.5 -43.5t-67.5 -14h-38v32z" />
    <glyph glyph-name="Ldot" unicode="&#x13f;" horiz-adv-x="532" 
d="M116 33.5q-39 33.5 -39 114.5v588h80v-577q0 -49 23 -67.5t62 -18.5h264v-73h-281q-70 0 -109 33.5zM358.5 356q-4.5 4 -4.5 11v47q0 16 16 16h44q17 0 17 -16v-47q0 -15 -17 -15h-44q-7 0 -11.5 4z" />
    <glyph glyph-name="uni1E36" unicode="&#x1e36;" horiz-adv-x="532" 
d="M116 33.5q-39 33.5 -39 114.5v588h80v-577q0 -49 23 -67.5t62 -18.5h264v-73h-281q-70 0 -109 33.5zM242.5 -205.5q-4.5 4.5 -4.5 11.5v78q0 16 16 16h37q7 0 11 -4.5t4 -11.5v-78q0 -7 -4 -11.5t-11 -4.5h-37q-7 0 -11.5 4.5z" />
    <glyph glyph-name="uni1E3A" unicode="&#x1e3a;" horiz-adv-x="532" 
d="M116 33.5q-39 33.5 -39 114.5v588h80v-577q0 -49 23 -67.5t62 -18.5h264v-73h-281q-70 0 -109 33.5zM137 -141h265v-47h-265v47z" />
    <glyph glyph-name="Lslash" unicode="&#x141;" horiz-adv-x="532" 
d="M506 73v-73h-281q-70 0 -109 33.5t-39 114.5v199l-75 -33v47l75 33v342h80v-318l135 59v-46l-135 -59v-213q0 -49 23 -67.5t62 -18.5h264z" />
    <glyph glyph-name="M" unicode="M" horiz-adv-x="835" 
d="M701 0l-70 611l-177 -611h-73l-180 606l-67 -606h-77l84 736h81l196 -636l192 636h82l86 -736h-77z" />
    <glyph glyph-name="uni1E40" unicode="&#x1e40;" horiz-adv-x="835" 
d="M701 0l-70 611l-177 -611h-73l-180 606l-67 -606h-77l84 736h81l196 -636l192 636h82l86 -736h-77zM382.5 824.5q-4.5 4.5 -4.5 11.5v78q0 16 16 16h37q7 0 11 -4.5t4 -11.5v-78q0 -7 -4 -11.5t-11 -4.5h-37q-7 0 -11.5 4.5z" />
    <glyph glyph-name="uni1E42" unicode="&#x1e42;" horiz-adv-x="835" 
d="M701 0l-70 611l-177 -611h-73l-180 606l-67 -606h-77l84 736h81l196 -636l192 636h82l86 -736h-77zM383.5 -205.5q-4.5 4.5 -4.5 11.5v78q0 16 16 16h37q7 0 11 -4.5t4 -11.5v-78q0 -7 -4 -11.5t-11 -4.5h-37q-7 0 -11.5 4.5z" />
    <glyph glyph-name="N" unicode="N" horiz-adv-x="683" 
d="M91 736h65l384 -599v599h79v-736h-65l-384 599v-599h-79v736z" />
    <glyph glyph-name="Nacute" unicode="&#x143;" horiz-adv-x="683" 
d="M91 736h65l384 -599v599h79v-736h-65l-384 599v-599h-79v736zM424 927h67l-125 -136h-46z" />
    <glyph glyph-name="Ncaron" unicode="&#x147;" horiz-adv-x="683" 
d="M91 736h65l384 -599v599h79v-736h-65l-384 599v-599h-79v736zM199 926h48l92 -97l100 97h48l-121 -135h-56z" />
    <glyph glyph-name="Ncommaaccent" unicode="&#x145;" horiz-adv-x="683" 
d="M91 736h65l384 -599v599h79v-736h-65l-384 599v-599h-79v736zM257 -170l30 5q26 4 40 11.5t21 28.5t7 62h49q0 -52 -9 -81.5t-32.5 -43.5t-67.5 -14h-38v32z" />
    <glyph glyph-name="uni1E44" unicode="&#x1e44;" horiz-adv-x="683" 
d="M91 736h65l384 -599v599h79v-736h-65l-384 599v-599h-79v736zM308.5 -205.5q-4.5 4.5 -4.5 11.5v78q0 16 16 16h37q7 0 11 -4.5t4 -11.5v-78q0 -7 -4 -11.5t-11 -4.5h-37q-7 0 -11.5 4.5z" />
    <glyph glyph-name="uni1E46" unicode="&#x1e46;" horiz-adv-x="683" 
d="M91 736h65l384 -599v599h79v-736h-65l-384 599v-599h-79v736zM308.5 -205.5q-4.5 4.5 -4.5 11.5v78q0 16 16 16h37q7 0 11 -4.5t4 -11.5v-78q0 -7 -4 -11.5t-11 -4.5h-37q-7 0 -11.5 4.5z" />
    <glyph glyph-name="Eng" unicode="&#x14a;" horiz-adv-x="679" 
d="M619 736v-812q0 -90 -44 -128.5t-136 -38.5q-28 0 -60 6.5t-53 16.5v61q63 -13 101 -13q55 0 84 23t29 83v88l-370 577v-599h-79v736h65l384 -599v599h79z" />
    <glyph glyph-name="uni1E48" unicode="&#x1e48;" horiz-adv-x="683" 
d="M91 736h65l384 -599v599h79v-736h-65l-384 599v-599h-79v736zM203 -141h265v-47h-265v47z" />
    <glyph glyph-name="Ntilde" unicode="&#xd1;" horiz-adv-x="683" 
d="M91 736h65l384 -599v599h79v-736h-65l-384 599v-599h-79v736zM197 888q28 26 67 26q23 0 41.5 -8.5t45.5 -24.5q21 -14 36.5 -21t31.5 -7q26 0 43 16.5t18 46.5h40q-1 -51 -26 -80t-70 -29q-21 0 -39.5 8t-45.5 25q-23 14 -39 21.5t-32 7.5q-25 0 -41.5 -16t-17.5 -46
h-41q1 55 29 81z" />
    <glyph glyph-name="O" unicode="O" horiz-adv-x="686" 
d="M179.5 21.5q-59.5 27.5 -90 107t-30.5 236.5q0 156 31.5 237.5t91.5 110.5t161 29q104 0 164 -28.5t90 -110t30 -238.5t-30.5 -236.5t-90 -107t-163.5 -27.5t-163.5 27.5zM465.5 87q42.5 22 62.5 86t20 192q0 133 -20 198t-62.5 86.5t-122.5 21.5q-76 0 -119 -21.5
t-64.5 -87.5t-21.5 -197q0 -129 19 -192.5t61.5 -85.5t124.5 -22q80 0 122.5 22z" />
    <glyph glyph-name="Oacute" unicode="&#xd3;" horiz-adv-x="686" 
d="M179.5 21.5q-59.5 27.5 -90 107t-30.5 236.5q0 156 31.5 237.5t91.5 110.5t161 29q104 0 164 -28.5t90 -110t30 -238.5t-30.5 -236.5t-90 -107t-163.5 -27.5t-163.5 27.5zM465.5 87q42.5 22 62.5 86t20 192q0 133 -20 198t-62.5 86.5t-122.5 21.5q-76 0 -119 -21.5
t-64.5 -87.5t-21.5 -197q0 -129 19 -192.5t61.5 -85.5t124.5 -22q80 0 122.5 22zM428 927h67l-125 -136h-46z" />
    <glyph glyph-name="Obreve" unicode="&#x14e;" horiz-adv-x="686" 
d="M179.5 21.5q-59.5 27.5 -90 107t-30.5 236.5q0 156 31.5 237.5t91.5 110.5t161 29q104 0 164 -28.5t90 -110t30 -238.5t-30.5 -236.5t-90 -107t-163.5 -27.5t-163.5 27.5zM465.5 87q42.5 22 62.5 86t20 192q0 133 -20 198t-62.5 86.5t-122.5 21.5q-76 0 -119 -21.5
t-64.5 -87.5t-21.5 -197q0 -129 19 -192.5t61.5 -85.5t124.5 -22q80 0 122.5 22zM241 823q-36 34 -36 107h39q0 -53 24.5 -78t64.5 -25q96 0 96 103h39q0 -75 -36 -108t-96 -33q-59 0 -95 34z" />
    <glyph glyph-name="Ocircumflex" unicode="&#xd4;" horiz-adv-x="686" 
d="M179.5 21.5q-59.5 27.5 -90 107t-30.5 236.5q0 156 31.5 237.5t91.5 110.5t161 29q104 0 164 -28.5t90 -110t30 -238.5t-30.5 -236.5t-90 -107t-163.5 -27.5t-163.5 27.5zM465.5 87q42.5 22 62.5 86t20 192q0 133 -20 198t-62.5 86.5t-122.5 21.5q-76 0 -119 -21.5
t-64.5 -87.5t-21.5 -197q0 -129 19 -192.5t61.5 -85.5t124.5 -22q80 0 122.5 22zM318 926h56l110 -135h-48l-91 97l-100 -97h-49z" />
    <glyph glyph-name="uni1ED0" unicode="&#x1ed0;" horiz-adv-x="686" 
d="M179.5 21.5q-59.5 27.5 -90 107t-30.5 236.5q0 156 31.5 237.5t91.5 110.5t161 29q104 0 164 -28.5t90 -110t30 -238.5t-30.5 -236.5t-90 -107t-163.5 -27.5t-163.5 27.5zM465.5 87q42.5 22 62.5 86t20 192q0 133 -20 198t-62.5 86.5t-122.5 21.5q-76 0 -119 -21.5
t-64.5 -87.5t-21.5 -197q0 -129 19 -192.5t61.5 -85.5t124.5 -22q80 0 122.5 22zM582 997l-109 -129h-46l87 129h68zM374 889l110 -98h-48l-92 61l-100 -61h-48l121 98h57z" />
    <glyph glyph-name="uni1ED8" unicode="&#x1ed8;" horiz-adv-x="686" 
d="M179.5 21.5q-59.5 27.5 -90 107t-30.5 236.5q0 156 31.5 237.5t91.5 110.5t161 29q104 0 164 -28.5t90 -110t30 -238.5t-30.5 -236.5t-90 -107t-163.5 -27.5t-163.5 27.5zM465.5 87q42.5 22 62.5 86t20 192q0 133 -20 198t-62.5 86.5t-122.5 21.5q-76 0 -119 -21.5
t-64.5 -87.5t-21.5 -197q0 -129 19 -192.5t61.5 -85.5t124.5 -22q80 0 122.5 22zM318 926h56l110 -135h-48l-91 97l-100 -97h-49zM312.5 -205.5q-4.5 4.5 -4.5 11.5v78q0 16 16 16h37q7 0 11 -4.5t4 -11.5v-78q0 -7 -4 -11.5t-11 -4.5h-37q-7 0 -11.5 4.5z" />
    <glyph glyph-name="uni1ED2" unicode="&#x1ed2;" horiz-adv-x="686" 
d="M179.5 21.5q-59.5 27.5 -90 107t-30.5 236.5q0 156 31.5 237.5t91.5 110.5t161 29q104 0 164 -28.5t90 -110t30 -238.5t-30.5 -236.5t-90 -107t-163.5 -27.5t-163.5 27.5zM465.5 87q42.5 22 62.5 86t20 192q0 133 -20 198t-62.5 86.5t-122.5 21.5q-76 0 -119 -21.5
t-64.5 -87.5t-21.5 -197q0 -129 19 -192.5t61.5 -85.5t124.5 -22q80 0 122.5 22zM172 997l87 -129h-46l-109 129h68zM374 889l110 -98h-48l-92 61l-100 -61h-48l121 98h57z" />
    <glyph glyph-name="uni1ED4" unicode="&#x1ed4;" horiz-adv-x="686" 
d="M179.5 21.5q-59.5 27.5 -90 107t-30.5 236.5q0 156 31.5 237.5t91.5 110.5t161 29q104 0 164 -28.5t90 -110t30 -238.5t-30.5 -236.5t-90 -107t-163.5 -27.5t-163.5 27.5zM465.5 87q42.5 22 62.5 86t20 192q0 133 -20 198t-62.5 86.5t-122.5 21.5q-76 0 -119 -21.5
t-64.5 -87.5t-21.5 -197q0 -129 19 -192.5t61.5 -85.5t124.5 -22q80 0 122.5 22zM450 879q26 8 38 21.5t12 29.5q0 37 -42 37q-13 0 -35 -6v30q20 7 45 7q36 0 54 -17.5t18 -47.5t-22 -53.5t-68 -36.5v36zM317 889h57l110 -98h-48l-92 61l-100 -61h-48z" />
    <glyph glyph-name="uni1ED6" unicode="&#x1ed6;" horiz-adv-x="686" 
d="M179.5 21.5q-59.5 27.5 -90 107t-30.5 236.5q0 156 31.5 237.5t91.5 110.5t161 29q104 0 164 -28.5t90 -110t30 -238.5t-30.5 -236.5t-90 -107t-163.5 -27.5t-163.5 27.5zM465.5 87q42.5 22 62.5 86t20 192q0 133 -20 198t-62.5 86.5t-122.5 21.5q-76 0 -119 -21.5
t-64.5 -87.5t-21.5 -197q0 -129 19 -192.5t61.5 -85.5t124.5 -22q80 0 122.5 22zM299.5 1013q17.5 -6 42.5 -17q40 -19 64 -19t39 11.5t15 32.5h40q-3 -85 -83 -85q-19 0 -36 5.5t-42 16.5q-23 10 -38.5 15t-30.5 5q-21 0 -34.5 -11t-13.5 -31h-41q2 45 25 64t57 19
q19 0 36.5 -6zM484 791h-48l-92 61l-100 -61h-48l121 98h57z" />
    <glyph glyph-name="uni020C" unicode="&#x20c;" horiz-adv-x="686" 
d="M179.5 21.5q-59.5 27.5 -90 107t-30.5 236.5q0 156 31.5 237.5t91.5 110.5t161 29q104 0 164 -28.5t90 -110t30 -238.5t-30.5 -236.5t-90 -107t-163.5 -27.5t-163.5 27.5zM465.5 87q42.5 22 62.5 86t20 192q0 133 -20 198t-62.5 86.5t-122.5 21.5q-76 0 -119 -21.5
t-64.5 -87.5t-21.5 -197q0 -129 19 -192.5t61.5 -85.5t124.5 -22q80 0 122.5 22zM138 927h68l104 -136h-47zM284 927h68l104 -136h-47z" />
    <glyph glyph-name="Odieresis" unicode="&#xd6;" horiz-adv-x="686" 
d="M179.5 21.5q-59.5 27.5 -90 107t-30.5 236.5q0 156 31.5 237.5t91.5 110.5t161 29q104 0 164 -28.5t90 -110t30 -238.5t-30.5 -236.5t-90 -107t-163.5 -27.5t-163.5 27.5zM465.5 87q42.5 22 62.5 86t20 192q0 133 -20 198t-62.5 86.5t-122.5 21.5q-76 0 -119 -21.5
t-64.5 -87.5t-21.5 -197q0 -129 19 -192.5t61.5 -85.5t124.5 -22q80 0 122.5 22zM187.5 817.5q-4.5 4.5 -4.5 11.5v78q0 16 16 16h37q7 0 11.5 -4.5t4.5 -11.5v-78q0 -7 -4.5 -11.5t-11.5 -4.5h-37q-7 0 -11.5 4.5zM423.5 817.5q-4.5 4.5 -4.5 11.5v78q0 16 16 16h37
q7 0 11 -4.5t4 -11.5v-78q0 -7 -4 -11.5t-11 -4.5h-37q-7 0 -11.5 4.5z" />
    <glyph glyph-name="uni022A" unicode="&#x22a;" horiz-adv-x="686" 
d="M179.5 21.5q-59.5 27.5 -90 107t-30.5 236.5q0 156 31.5 237.5t91.5 110.5t161 29q104 0 164 -28.5t90 -110t30 -238.5t-30.5 -236.5t-90 -107t-163.5 -27.5t-163.5 27.5zM465.5 87q42.5 22 62.5 86t20 192q0 133 -20 198t-62.5 86.5t-122.5 21.5q-76 0 -119 -21.5
t-64.5 -87.5t-21.5 -197q0 -129 19 -192.5t61.5 -85.5t124.5 -22q80 0 122.5 22zM201.5 817.5q-4.5 4.5 -4.5 11.5v78q0 16 16 16h37q7 0 11.5 -4.5t4.5 -11.5v-78q0 -7 -4.5 -11.5t-11.5 -4.5h-37q-7 0 -11.5 4.5zM437.5 817.5q-4.5 4.5 -4.5 11.5v78q0 16 16 16h37
q7 0 11 -4.5t4 -11.5v-78q0 -7 -4 -11.5t-11 -4.5h-37q-7 0 -11.5 4.5zM218 1045h265v-47h-265v47z" />
    <glyph glyph-name="uni0230" unicode="&#x230;" horiz-adv-x="686" 
d="M179.5 21.5q-59.5 27.5 -90 107t-30.5 236.5q0 156 31.5 237.5t91.5 110.5t161 29q104 0 164 -28.5t90 -110t30 -238.5t-30.5 -236.5t-90 -107t-163.5 -27.5t-163.5 27.5zM465.5 87q42.5 22 62.5 86t20 192q0 133 -20 198t-62.5 86.5t-122.5 21.5q-76 0 -119 -21.5
t-64.5 -87.5t-21.5 -197q0 -129 19 -192.5t61.5 -85.5t124.5 -22q80 0 122.5 22zM311.5 824.5q-4.5 4.5 -4.5 11.5v78q0 16 16 16h37q7 0 11 -4.5t4 -11.5v-78q0 -7 -4 -11.5t-11 -4.5h-37q-7 0 -11.5 4.5zM204 1039h265v-47h-265v47z" />
    <glyph glyph-name="uni1ECC" unicode="&#x1ecc;" horiz-adv-x="686" 
d="M179.5 21.5q-59.5 27.5 -90 107t-30.5 236.5q0 156 31.5 237.5t91.5 110.5t161 29q104 0 164 -28.5t90 -110t30 -238.5t-30.5 -236.5t-90 -107t-163.5 -27.5t-163.5 27.5zM465.5 87q42.5 22 62.5 86t20 192q0 133 -20 198t-62.5 86.5t-122.5 21.5q-76 0 -119 -21.5
t-64.5 -87.5t-21.5 -197q0 -129 19 -192.5t61.5 -85.5t124.5 -22q80 0 122.5 22zM312.5 -205.5q-4.5 4.5 -4.5 11.5v78q0 16 16 16h37q7 0 11 -4.5t4 -11.5v-78q0 -7 -4 -11.5t-11 -4.5h-37q-7 0 -11.5 4.5z" />
    <glyph glyph-name="Ograve" unicode="&#xd2;" horiz-adv-x="686" 
d="M179.5 21.5q-59.5 27.5 -90 107t-30.5 236.5q0 156 31.5 237.5t91.5 110.5t161 29q104 0 164 -28.5t90 -110t30 -238.5t-30.5 -236.5t-90 -107t-163.5 -27.5t-163.5 27.5zM465.5 87q42.5 22 62.5 86t20 192q0 133 -20 198t-62.5 86.5t-122.5 21.5q-76 0 -119 -21.5
t-64.5 -87.5t-21.5 -197q0 -129 19 -192.5t61.5 -85.5t124.5 -22q80 0 122.5 22zM200 927h67l104 -136h-46z" />
    <glyph glyph-name="uni1ECE" unicode="&#x1ece;" horiz-adv-x="686" 
d="M179.5 21.5q-59.5 27.5 -90 107t-30.5 236.5q0 156 31.5 237.5t91.5 110.5t161 29q104 0 164 -28.5t90 -110t30 -238.5t-30.5 -236.5t-90 -107t-163.5 -27.5t-163.5 27.5zM465.5 87q42.5 22 62.5 86t20 192q0 133 -20 198t-62.5 86.5t-122.5 21.5q-76 0 -119 -21.5
t-64.5 -87.5t-21.5 -197q0 -129 19 -192.5t61.5 -85.5t124.5 -22q80 0 122.5 22zM321 807q56 17 56 59q0 44 -48 44q-18 0 -36 -6v34q18 6 46 6q41 0 61 -20.5t20 -56.5q0 -33 -24.5 -57.5t-74.5 -39.5v37z" />
    <glyph glyph-name="Ohorn" unicode="&#x1a0;" horiz-adv-x="686" 
d="M605.5 577q21.5 -78 21.5 -212q0 -157 -30.5 -236.5t-90 -107t-163.5 -27.5t-163.5 27.5t-90 107t-30.5 236.5q0 156 31.5 237.5t91.5 110.5t161 29q50 0 90 -6h71q38 0 58.5 26t20.5 87h57q0 -73 -28 -111.5t-74 -44.5q46 -38 67.5 -116zM465.5 87q42.5 22 62.5 86
t20 192q0 133 -20 198t-62.5 86.5t-122.5 21.5q-76 0 -119 -21.5t-64.5 -87.5t-21.5 -197q0 -129 19 -192.5t61.5 -85.5t124.5 -22q80 0 122.5 22z" />
    <glyph glyph-name="uni1EDA" unicode="&#x1eda;" horiz-adv-x="686" 
d="M605.5 577q21.5 -78 21.5 -212q0 -157 -30.5 -236.5t-90 -107t-163.5 -27.5t-163.5 27.5t-90 107t-30.5 236.5q0 156 31.5 237.5t91.5 110.5t161 29q50 0 90 -6h71q38 0 58.5 26t20.5 87h57q0 -73 -28 -111.5t-74 -44.5q46 -38 67.5 -116zM465.5 87q42.5 22 62.5 86
t20 192q0 133 -20 198t-62.5 86.5t-122.5 21.5q-76 0 -119 -21.5t-64.5 -87.5t-21.5 -197q0 -129 19 -192.5t61.5 -85.5t124.5 -22q80 0 122.5 22zM416 927h67l-125 -136h-46z" />
    <glyph glyph-name="uni1EE2" unicode="&#x1ee2;" horiz-adv-x="686" 
d="M605.5 577q21.5 -78 21.5 -212q0 -157 -30.5 -236.5t-90 -107t-163.5 -27.5t-163.5 27.5t-90 107t-30.5 236.5q0 156 31.5 237.5t91.5 110.5t161 29q50 0 90 -6h71q38 0 58.5 26t20.5 87h57q0 -73 -28 -111.5t-74 -44.5q46 -38 67.5 -116zM465.5 87q42.5 22 62.5 86
t20 192q0 133 -20 198t-62.5 86.5t-122.5 21.5q-76 0 -119 -21.5t-64.5 -87.5t-21.5 -197q0 -129 19 -192.5t61.5 -85.5t124.5 -22q80 0 122.5 22zM312.5 -205.5q-4.5 4.5 -4.5 11.5v78q0 16 16 16h37q7 0 11 -4.5t4 -11.5v-78q0 -7 -4 -11.5t-11 -4.5h-37q-7 0 -11.5 4.5z
" />
    <glyph glyph-name="uni1EDC" unicode="&#x1edc;" horiz-adv-x="686" 
d="M605.5 577q21.5 -78 21.5 -212q0 -157 -30.5 -236.5t-90 -107t-163.5 -27.5t-163.5 27.5t-90 107t-30.5 236.5q0 156 31.5 237.5t91.5 110.5t161 29q50 0 90 -6h71q38 0 58.5 26t20.5 87h57q0 -73 -28 -111.5t-74 -44.5q46 -38 67.5 -116zM465.5 87q42.5 22 62.5 86
t20 192q0 133 -20 198t-62.5 86.5t-122.5 21.5q-76 0 -119 -21.5t-64.5 -87.5t-21.5 -197q0 -129 19 -192.5t61.5 -85.5t124.5 -22q80 0 122.5 22zM185 927h67l104 -136h-46z" />
    <glyph glyph-name="uni1EDE" unicode="&#x1ede;" horiz-adv-x="686" 
d="M605.5 577q21.5 -78 21.5 -212q0 -157 -30.5 -236.5t-90 -107t-163.5 -27.5t-163.5 27.5t-90 107t-30.5 236.5q0 156 31.5 237.5t91.5 110.5t161 29q50 0 90 -6h71q38 0 58.5 26t20.5 87h57q0 -73 -28 -111.5t-74 -44.5q46 -38 67.5 -116zM465.5 87q42.5 22 62.5 86
t20 192q0 133 -20 198t-62.5 86.5t-122.5 21.5q-76 0 -119 -21.5t-64.5 -87.5t-21.5 -197q0 -129 19 -192.5t61.5 -85.5t124.5 -22q80 0 122.5 22zM321 807q56 17 56 59q0 44 -48 44q-18 0 -36 -6v34q18 6 46 6q41 0 61 -20.5t20 -56.5q0 -33 -24.5 -57.5t-74.5 -39.5v37z
" />
    <glyph glyph-name="uni1EE0" unicode="&#x1ee0;" horiz-adv-x="686" 
d="M605.5 577q21.5 -78 21.5 -212q0 -157 -30.5 -236.5t-90 -107t-163.5 -27.5t-163.5 27.5t-90 107t-30.5 236.5q0 156 31.5 237.5t91.5 110.5t161 29q50 0 90 -6h71q38 0 58.5 26t20.5 87h57q0 -73 -28 -111.5t-74 -44.5q46 -38 67.5 -116zM465.5 87q42.5 22 62.5 86
t20 192q0 133 -20 198t-62.5 86.5t-122.5 21.5q-76 0 -119 -21.5t-64.5 -87.5t-21.5 -197q0 -129 19 -192.5t61.5 -85.5t124.5 -22q80 0 122.5 22zM195 888q28 26 67 26q23 0 41.5 -8.5t45.5 -24.5q21 -14 36.5 -21t31.5 -7q26 0 43 16.5t18 46.5h40q-1 -51 -26 -80t-70 -29
q-21 0 -39.5 8t-45.5 25q-23 14 -39 21.5t-32 7.5q-25 0 -41.5 -16t-17.5 -46h-41q1 55 29 81z" />
    <glyph glyph-name="Ohungarumlaut" unicode="&#x150;" horiz-adv-x="686" 
d="M179.5 21.5q-59.5 27.5 -90 107t-30.5 236.5q0 156 31.5 237.5t91.5 110.5t161 29q104 0 164 -28.5t90 -110t30 -238.5t-30.5 -236.5t-90 -107t-163.5 -27.5t-163.5 27.5zM465.5 87q42.5 22 62.5 86t20 192q0 133 -20 198t-62.5 86.5t-122.5 21.5q-76 0 -119 -21.5
t-64.5 -87.5t-21.5 -197q0 -129 19 -192.5t61.5 -85.5t124.5 -22q80 0 122.5 22zM324 927h65l-119 -136h-46zM474 927h65l-119 -136h-46z" />
    <glyph glyph-name="uni020E" unicode="&#x20e;" horiz-adv-x="686" 
d="M179.5 21.5q-59.5 27.5 -90 107t-30.5 236.5q0 156 31.5 237.5t91.5 110.5t161 29q104 0 164 -28.5t90 -110t30 -238.5t-30.5 -236.5t-90 -107t-163.5 -27.5t-163.5 27.5zM465.5 87q42.5 22 62.5 86t20 192q0 133 -20 198t-62.5 86.5t-122.5 21.5q-76 0 -119 -21.5
t-64.5 -87.5t-21.5 -197q0 -129 19 -192.5t61.5 -85.5t124.5 -22q80 0 122.5 22zM435 897q36 -34 36 -107h-39q0 54 -25 78.5t-64 24.5q-96 0 -96 -103h-39q0 75 36 108t96 33q59 0 95 -34z" />
    <glyph glyph-name="Omacron" unicode="&#x14c;" horiz-adv-x="686" 
d="M179.5 21.5q-59.5 27.5 -90 107t-30.5 236.5q0 156 31.5 237.5t91.5 110.5t161 29q104 0 164 -28.5t90 -110t30 -238.5t-30.5 -236.5t-90 -107t-163.5 -27.5t-163.5 27.5zM465.5 87q42.5 22 62.5 86t20 192q0 133 -20 198t-62.5 86.5t-122.5 21.5q-76 0 -119 -21.5
t-64.5 -87.5t-21.5 -197q0 -129 19 -192.5t61.5 -85.5t124.5 -22q80 0 122.5 22zM204 879h265v-47h-265v47z" />
    <glyph glyph-name="uni1E52" unicode="&#x1e52;" horiz-adv-x="686" 
d="M179.5 21.5q-59.5 27.5 -90 107t-30.5 236.5q0 156 31.5 237.5t91.5 110.5t161 29q104 0 164 -28.5t90 -110t30 -238.5t-30.5 -236.5t-90 -107t-163.5 -27.5t-163.5 27.5zM465.5 87q42.5 22 62.5 86t20 192q0 133 -20 198t-62.5 86.5t-122.5 21.5q-76 0 -119 -21.5
t-64.5 -87.5t-21.5 -197q0 -129 19 -192.5t61.5 -85.5t124.5 -22q80 0 122.5 22zM204 879h265v-47h-265v47zM425 1060h67l-125 -136h-46z" />
    <glyph glyph-name="uni1E50" unicode="&#x1e50;" horiz-adv-x="686" 
d="M179.5 21.5q-59.5 27.5 -90 107t-30.5 236.5q0 156 31.5 237.5t91.5 110.5t161 29q104 0 164 -28.5t90 -110t30 -238.5t-30.5 -236.5t-90 -107t-163.5 -27.5t-163.5 27.5zM465.5 87q42.5 22 62.5 86t20 192q0 133 -20 198t-62.5 86.5t-122.5 21.5q-76 0 -119 -21.5
t-64.5 -87.5t-21.5 -197q0 -129 19 -192.5t61.5 -85.5t124.5 -22q80 0 122.5 22zM204 879h265v-47h-265v47zM190 1060h67l104 -136h-46z" />
    <glyph glyph-name="uni01EA" unicode="&#x1ea;" horiz-adv-x="686" 
d="M352 -81q0 -30 22 -47.5t61 -17.5h6v-38q-10 -3 -26 -3q-49 0 -77 25t-28 64q0 27 16 51t48 42q-10 -1 -31 -1q-104 0 -163.5 27.5t-90 107t-30.5 236.5q0 156 31.5 237.5t91.5 110.5t161 29q104 0 164 -28.5t90 -110t30 -238.5q0 -138 -23.5 -215.5t-70.5 -111.5
t-124 -41q-57 -35 -57 -78zM157 172.5q19 -63.5 61.5 -85.5t124.5 -22q80 0 122.5 22t62.5 86t20 192q0 133 -20 198t-62.5 86.5t-122.5 21.5q-76 0 -119 -21.5t-64.5 -87.5t-21.5 -197q0 -129 19 -192.5z" />
    <glyph glyph-name="Oslash" unicode="&#xd8;" horiz-adv-x="686" 
d="M612 548q15 -72 15 -183q0 -157 -30.5 -236.5t-90 -107t-163.5 -27.5q-65 0 -110.5 9.5t-78.5 33.5l-24 -37h-58l47 72q-30 41 -45 112t-15 181q0 156 31.5 237.5t91.5 110.5t161 29q64 0 110 -10t79 -34l25 38h58l-49 -74q31 -42 46 -114zM167 145l322 487
q-23 23 -58 31t-88 8q-76 0 -119 -21.5t-64.5 -87.5t-21.5 -197q0 -155 29 -220zM465.5 87q42.5 22 62.5 86t20 192q0 82 -7 136t-23 88l-321 -487q24 -21 58.5 -29t87.5 -8q80 0 122.5 22z" />
    <glyph glyph-name="Oslashacute" unicode="&#x1fe;" horiz-adv-x="686" 
d="M612 548q15 -72 15 -183q0 -157 -30.5 -236.5t-90 -107t-163.5 -27.5q-65 0 -110.5 9.5t-78.5 33.5l-24 -37h-58l47 72q-30 41 -45 112t-15 181q0 156 31.5 237.5t91.5 110.5t161 29q64 0 110 -10t79 -34l25 38h58l-49 -74q31 -42 46 -114zM167 145l322 487
q-23 23 -58 31t-88 8q-76 0 -119 -21.5t-64.5 -87.5t-21.5 -197q0 -155 29 -220zM465.5 87q42.5 22 62.5 86t20 192q0 82 -7 136t-23 88l-321 -487q24 -21 58.5 -29t87.5 -8q80 0 122.5 22zM428 927h67l-125 -136h-46z" />
    <glyph glyph-name="Otilde" unicode="&#xd5;" horiz-adv-x="686" 
d="M179.5 21.5q-59.5 27.5 -90 107t-30.5 236.5q0 156 31.5 237.5t91.5 110.5t161 29q104 0 164 -28.5t90 -110t30 -238.5t-30.5 -236.5t-90 -107t-163.5 -27.5t-163.5 27.5zM465.5 87q42.5 22 62.5 86t20 192q0 133 -20 198t-62.5 86.5t-122.5 21.5q-76 0 -119 -21.5
t-64.5 -87.5t-21.5 -197q0 -129 19 -192.5t61.5 -85.5t124.5 -22q80 0 122.5 22zM200 888q28 26 67 26q23 0 41.5 -8.5t45.5 -24.5q21 -14 36.5 -21t31.5 -7q26 0 43 16.5t18 46.5h40q-1 -51 -26 -80t-70 -29q-21 0 -39.5 8t-45.5 25q-23 14 -39 21.5t-32 7.5
q-25 0 -41.5 -16t-17.5 -46h-41q1 55 29 81z" />
    <glyph glyph-name="uni1E4C" unicode="&#x1e4c;" horiz-adv-x="686" 
d="M179.5 21.5q-59.5 27.5 -90 107t-30.5 236.5q0 156 31.5 237.5t91.5 110.5t161 29q104 0 164 -28.5t90 -110t30 -238.5t-30.5 -236.5t-90 -107t-163.5 -27.5t-163.5 27.5zM465.5 87q42.5 22 62.5 86t20 192q0 133 -20 198t-62.5 86.5t-122.5 21.5q-76 0 -119 -21.5
t-64.5 -87.5t-21.5 -197q0 -129 19 -192.5t61.5 -85.5t124.5 -22q80 0 122.5 22zM200 888q28 26 67 26q23 0 41.5 -8.5t45.5 -24.5q21 -14 36.5 -21t31.5 -7q26 0 43 16.5t18 46.5h40q-1 -51 -26 -80t-70 -29q-21 0 -39.5 8t-45.5 25q-23 14 -39 21.5t-32 7.5
q-25 0 -41.5 -16t-17.5 -46h-41q1 55 29 81zM418 1084h67l-125 -136h-46z" />
    <glyph glyph-name="uni1E4E" unicode="&#x1e4e;" horiz-adv-x="686" 
d="M179.5 21.5q-59.5 27.5 -90 107t-30.5 236.5q0 156 31.5 237.5t91.5 110.5t161 29q104 0 164 -28.5t90 -110t30 -238.5t-30.5 -236.5t-90 -107t-163.5 -27.5t-163.5 27.5zM465.5 87q42.5 22 62.5 86t20 192q0 133 -20 198t-62.5 86.5t-122.5 21.5q-76 0 -119 -21.5
t-64.5 -87.5t-21.5 -197q0 -129 19 -192.5t61.5 -85.5t124.5 -22q80 0 122.5 22zM200 888q28 26 67 26q23 0 41.5 -8.5t45.5 -24.5q21 -14 36.5 -21t31.5 -7q26 0 43 16.5t18 46.5h40q-1 -51 -26 -80t-70 -29q-21 0 -39.5 8t-45.5 25q-23 14 -39 21.5t-32 7.5
q-25 0 -41.5 -16t-17.5 -46h-41q1 55 29 81zM194.5 974.5q-4.5 4.5 -4.5 11.5v78q0 16 16 16h37q7 0 11.5 -4.5t4.5 -11.5v-78q0 -7 -4.5 -11.5t-11.5 -4.5h-37q-7 0 -11.5 4.5zM430.5 974.5q-4.5 4.5 -4.5 11.5v78q0 16 16 16h37q7 0 11 -4.5t4 -11.5v-78q0 -7 -4 -11.5
t-11 -4.5h-37q-7 0 -11.5 4.5z" />
    <glyph glyph-name="uni022C" unicode="&#x22c;" horiz-adv-x="686" 
d="M179.5 21.5q-59.5 27.5 -90 107t-30.5 236.5q0 156 31.5 237.5t91.5 110.5t161 29q104 0 164 -28.5t90 -110t30 -238.5t-30.5 -236.5t-90 -107t-163.5 -27.5t-163.5 27.5zM465.5 87q42.5 22 62.5 86t20 192q0 133 -20 198t-62.5 86.5t-122.5 21.5q-76 0 -119 -21.5
t-64.5 -87.5t-21.5 -197q0 -129 19 -192.5t61.5 -85.5t124.5 -22q80 0 122.5 22zM221 1036h265v-47h-265v47zM200 888q28 26 67 26q23 0 41.5 -8.5t45.5 -24.5q21 -14 36.5 -21t31.5 -7q26 0 43 16.5t18 46.5h40q-1 -51 -26 -80t-70 -29q-21 0 -39.5 8t-45.5 25
q-23 14 -39 21.5t-32 7.5q-25 0 -41.5 -16t-17.5 -46h-41q1 55 29 81z" />
    <glyph glyph-name="OE" unicode="&#x152;" horiz-adv-x="1058" 
d="M628 575v-174l329 -5v-61l-329 -5v-173q0 -51 24 -69t65 -18h284v-64q-192 -10 -305 -10q-104 0 -134 69q-34 -41 -86 -56t-133 -15q-104 0 -163.5 27.5t-90 107t-30.5 236.5q0 156 31.5 237.5t91.5 110.5t161 29q82 0 135 -16.5t86 -60.5q18 37 52.5 54t76.5 17
q160 -3 249 -7l59 -2v-64h-288q-85 0 -85 -88zM465.5 87q42.5 22 62.5 86t20 192q0 133 -20 198t-62.5 86.5t-122.5 21.5q-76 0 -119 -21.5t-64.5 -87.5t-21.5 -197q0 -129 19 -192.5t61.5 -85.5t124.5 -22q80 0 122.5 22z" />
    <glyph glyph-name="P" unicode="P" horiz-adv-x="604" 
d="M77 736h293q192 0 192 -235q0 -138 -57.5 -190t-138.5 -52q-29 0 -97 3.5t-112 6.5v-269h-80v736zM356 330q126 0 126 170q0 164 -119 164h-206v-334h199z" />
    <glyph glyph-name="uni1E56" unicode="&#x1e56;" horiz-adv-x="604" 
d="M77 736h293q192 0 192 -235q0 -138 -57.5 -190t-138.5 -52q-29 0 -97 3.5t-112 6.5v-269h-80v736zM356 330q126 0 126 170q0 164 -119 164h-206v-334h199zM258.5 824.5q-4.5 4.5 -4.5 11.5v78q0 16 16 16h37q7 0 11 -4.5t4 -11.5v-78q0 -7 -4 -11.5t-11 -4.5h-37
q-7 0 -11.5 4.5z" />
    <glyph glyph-name="Thorn" unicode="&#xde;" horiz-adv-x="560" 
d="M77 736h80v-135h169q83 0 137.5 -46t54.5 -173q0 -128 -57.5 -176.5t-137.5 -48.5q-23 0 -77.5 4t-88.5 7v-168h-80v736zM313 229q125 0 125 153q0 147 -118 147h-163v-300h156z" />
    <glyph glyph-name="Q" unicode="Q" horiz-adv-x="686" 
d="M179.5 21.5q-59.5 27.5 -90 107t-30.5 236.5q0 156 31.5 237.5t91.5 110.5t161 29q104 0 164 -28.5t90 -110t30 -238.5t-30.5 -236.5t-90 -107t-163.5 -27.5t-163.5 27.5zM465.5 87q42.5 22 62.5 86t20 192q0 133 -20 198t-62.5 86.5t-122.5 21.5q-76 0 -119 -21.5
t-64.5 -87.5t-21.5 -197q0 -129 19 -192.5t61.5 -85.5t124.5 -22q80 0 122.5 22zM400 -134.5q-46 35.5 -54 99.5h54q11 -37 40.5 -55.5t64.5 -18.5q25 0 52 9v-62q-27 -8 -51 -8q-60 0 -106 35.5z" />
    <glyph glyph-name="R" unicode="R" horiz-adv-x="608" 
d="M77 736h290q86 0 138.5 -46t52.5 -171q0 -107 -40 -151t-100 -56l151 -312h-81l-143 301l-55 1l-133 3v-305h-80v736zM355 366q59 0 91.5 32t32.5 121q0 84 -33 114.5t-91 30.5h-198v-298h198z" />
    <glyph glyph-name="Racute" unicode="&#x154;" horiz-adv-x="608" 
d="M77 736h290q86 0 138.5 -46t52.5 -171q0 -107 -40 -151t-100 -56l151 -312h-81l-143 301l-55 1l-133 3v-305h-80v736zM355 366q59 0 91.5 32t32.5 121q0 84 -33 114.5t-91 30.5h-198v-298h198zM378 927h67l-125 -136h-46z" />
    <glyph glyph-name="Rcaron" unicode="&#x158;" horiz-adv-x="608" 
d="M77 736h290q86 0 138.5 -46t52.5 -171q0 -107 -40 -151t-100 -56l151 -312h-81l-143 301l-55 1l-133 3v-305h-80v736zM355 366q59 0 91.5 32t32.5 121q0 84 -33 114.5t-91 30.5h-198v-298h198zM153 926h48l92 -97l100 97h48l-121 -135h-56z" />
    <glyph glyph-name="Rcommaaccent" unicode="&#x156;" horiz-adv-x="608" 
d="M77 736h290q86 0 138.5 -46t52.5 -171q0 -107 -40 -151t-100 -56l151 -312h-81l-143 301l-55 1l-133 3v-305h-80v736zM355 366q59 0 91.5 32t32.5 121q0 84 -33 114.5t-91 30.5h-198v-298h198zM213 -170l30 5q26 4 40 11.5t21 28.5t7 62h49q0 -52 -9 -81.5t-32.5 -43.5
t-67.5 -14h-38v32z" />
    <glyph glyph-name="uni0210" unicode="&#x210;" horiz-adv-x="608" 
d="M77 736h290q86 0 138.5 -46t52.5 -171q0 -107 -40 -151t-100 -56l151 -312h-81l-143 301l-55 1l-133 3v-305h-80v736zM355 366q59 0 91.5 32t32.5 121q0 84 -33 114.5t-91 30.5h-198v-298h198zM88 927h68l104 -136h-47zM234 927h68l104 -136h-47z" />
    <glyph glyph-name="uni1E5A" unicode="&#x1e5a;" horiz-adv-x="608" 
d="M77 736h290q86 0 138.5 -46t52.5 -171q0 -107 -40 -151t-100 -56l151 -312h-81l-143 301l-55 1l-133 3v-305h-80v736zM355 366q59 0 91.5 32t32.5 121q0 84 -33 114.5t-91 30.5h-198v-298h198zM264.5 -205.5q-4.5 4.5 -4.5 11.5v78q0 16 16 16h37q7 0 11 -4.5t4 -11.5
v-78q0 -7 -4 -11.5t-11 -4.5h-37q-7 0 -11.5 4.5z" />
    <glyph glyph-name="uni0212" unicode="&#x212;" horiz-adv-x="608" 
d="M77 736h290q86 0 138.5 -46t52.5 -171q0 -107 -40 -151t-100 -56l151 -312h-81l-143 301l-55 1l-133 3v-305h-80v736zM355 366q59 0 91.5 32t32.5 121q0 84 -33 114.5t-91 30.5h-198v-298h198zM385 897q36 -34 36 -107h-39q0 54 -25 78.5t-64 24.5q-96 0 -96 -103h-39
q0 75 36 108t96 33q59 0 95 -34z" />
    <glyph glyph-name="uni1E5E" unicode="&#x1e5e;" horiz-adv-x="608" 
d="M77 736h290q86 0 138.5 -46t52.5 -171q0 -107 -40 -151t-100 -56l151 -312h-81l-143 301l-55 1l-133 3v-305h-80v736zM355 366q59 0 91.5 32t32.5 121q0 84 -33 114.5t-91 30.5h-198v-298h198zM159 -141h265v-47h-265v47z" />
    <glyph glyph-name="S" unicode="S" horiz-adv-x="578" 
d="M169.5 -0.5q-69.5 5.5 -106.5 12.5v61q78 -8 220 -8q76 0 118 24t42 87v50q0 104 -110 104h-79q-95 0 -144.5 41.5t-49.5 136.5v42q0 101 54 146.5t160 45.5q45 0 108.5 -6.5t103.5 -14.5v-60q-135 9 -204 9q-74 0 -110 -26.5t-36 -96.5v-34q0 -58 30.5 -82.5t90.5 -24.5
h85q87 0 132 -46.5t45 -124.5v-57q0 -103 -62.5 -143.5t-170.5 -40.5q-47 0 -116.5 5.5z" />
    <glyph glyph-name="Sacute" unicode="&#x15a;" horiz-adv-x="578" 
d="M169.5 -0.5q-69.5 5.5 -106.5 12.5v61q78 -8 220 -8q76 0 118 24t42 87v50q0 104 -110 104h-79q-95 0 -144.5 41.5t-49.5 136.5v42q0 101 54 146.5t160 45.5q45 0 108.5 -6.5t103.5 -14.5v-60q-135 9 -204 9q-74 0 -110 -26.5t-36 -96.5v-34q0 -58 30.5 -82.5t90.5 -24.5
h85q87 0 132 -46.5t45 -124.5v-57q0 -103 -62.5 -143.5t-170.5 -40.5q-47 0 -116.5 5.5zM368 927h67l-125 -136h-46z" />
    <glyph glyph-name="uni1E64" unicode="&#x1e64;" horiz-adv-x="578" 
d="M169.5 -0.5q-69.5 5.5 -106.5 12.5v61q78 -8 220 -8q76 0 118 24t42 87v50q0 104 -110 104h-79q-95 0 -144.5 41.5t-49.5 136.5v42q0 101 54 146.5t160 45.5q45 0 108.5 -6.5t103.5 -14.5v-60q-135 9 -204 9q-74 0 -110 -26.5t-36 -96.5v-34q0 -58 30.5 -82.5t90.5 -24.5
h85q87 0 132 -46.5t45 -124.5v-57q0 -103 -62.5 -143.5t-170.5 -40.5q-47 0 -116.5 5.5zM335 927h67l-125 -136h-46zM288.5 960.5q-4.5 4.5 -4.5 11.5v78q0 16 16 16h37q7 0 11 -4.5t4 -11.5v-78q0 -7 -4 -11.5t-11 -4.5h-37q-7 0 -11.5 4.5z" />
    <glyph glyph-name="Scaron" unicode="&#x160;" horiz-adv-x="578" 
d="M169.5 -0.5q-69.5 5.5 -106.5 12.5v61q78 -8 220 -8q76 0 118 24t42 87v50q0 104 -110 104h-79q-95 0 -144.5 41.5t-49.5 136.5v42q0 101 54 146.5t160 45.5q45 0 108.5 -6.5t103.5 -14.5v-60q-135 9 -204 9q-74 0 -110 -26.5t-36 -96.5v-34q0 -58 30.5 -82.5t90.5 -24.5
h85q87 0 132 -46.5t45 -124.5v-57q0 -103 -62.5 -143.5t-170.5 -40.5q-47 0 -116.5 5.5zM143 926h48l92 -97l100 97h48l-121 -135h-56z" />
    <glyph glyph-name="uni1E66" unicode="&#x1e66;" horiz-adv-x="578" 
d="M169.5 -0.5q-69.5 5.5 -106.5 12.5v61q78 -8 220 -8q76 0 118 24t42 87v50q0 104 -110 104h-79q-95 0 -144.5 41.5t-49.5 136.5v42q0 101 54 146.5t160 45.5q45 0 108.5 -6.5t103.5 -14.5v-60q-135 9 -204 9q-74 0 -110 -26.5t-36 -96.5v-34q0 -58 30.5 -82.5t90.5 -24.5
h85q87 0 132 -46.5t45 -124.5v-57q0 -103 -62.5 -143.5t-170.5 -40.5q-47 0 -116.5 5.5zM143 926h48l92 -97l100 97h48l-121 -135h-56zM251.5 964.5q-4.5 4.5 -4.5 11.5v78q0 16 16 16h37q7 0 11 -4.5t4 -11.5v-78q0 -7 -4 -11.5t-11 -4.5h-37q-7 0 -11.5 4.5z" />
    <glyph glyph-name="Scedilla" unicode="&#x15e;" horiz-adv-x="578" 
d="M474 359.5q45 -46.5 45 -124.5v-57q0 -99 -58 -140t-159 -44l-32 -48q72 -4 72 -64q0 -34 -25 -53t-71 -19h-33v33l22 2q28 3 42 13.5t14 31.5q0 19 -14.5 31t-51.5 13l40 60q-51 2 -110.5 7t-91.5 11v61q78 -8 220 -8q76 0 118 24t42 87v50q0 104 -110 104h-79
q-95 0 -144.5 41.5t-49.5 136.5v42q0 101 54 146.5t160 45.5q45 0 108.5 -6.5t103.5 -14.5v-60q-135 9 -204 9q-74 0 -110 -26.5t-36 -96.5v-34q0 -58 30.5 -82.5t90.5 -24.5h85q87 0 132 -46.5z" />
    <glyph glyph-name="Scircumflex" unicode="&#x15c;" horiz-adv-x="578" 
d="M169.5 -0.5q-69.5 5.5 -106.5 12.5v61q78 -8 220 -8q76 0 118 24t42 87v50q0 104 -110 104h-79q-95 0 -144.5 41.5t-49.5 136.5v42q0 101 54 146.5t160 45.5q45 0 108.5 -6.5t103.5 -14.5v-60q-135 9 -204 9q-74 0 -110 -26.5t-36 -96.5v-34q0 -58 30.5 -82.5t90.5 -24.5
h85q87 0 132 -46.5t45 -124.5v-57q0 -103 -62.5 -143.5t-170.5 -40.5q-47 0 -116.5 5.5zM258 926h56l110 -135h-48l-91 97l-100 -97h-49z" />
    <glyph glyph-name="Scommaaccent" unicode="&#x218;" horiz-adv-x="578" 
d="M169.5 -0.5q-69.5 5.5 -106.5 12.5v61q78 -8 220 -8q76 0 118 24t42 87v50q0 104 -110 104h-79q-95 0 -144.5 41.5t-49.5 136.5v42q0 101 54 146.5t160 45.5q45 0 108.5 -6.5t103.5 -14.5v-60q-135 9 -204 9q-74 0 -110 -26.5t-36 -96.5v-34q0 -58 30.5 -82.5t90.5 -24.5
h85q87 0 132 -46.5t45 -124.5v-57q0 -103 -62.5 -143.5t-170.5 -40.5q-47 0 -116.5 5.5zM201 -170l30 5q26 4 40 11.5t21 28.5t7 62h49q0 -52 -9 -81.5t-32.5 -43.5t-67.5 -14h-38v32z" />
    <glyph glyph-name="uni1E60" unicode="&#x1e60;" horiz-adv-x="578" 
d="M169.5 -0.5q-69.5 5.5 -106.5 12.5v61q78 -8 220 -8q76 0 118 24t42 87v50q0 104 -110 104h-79q-95 0 -144.5 41.5t-49.5 136.5v42q0 101 54 146.5t160 45.5q45 0 108.5 -6.5t103.5 -14.5v-60q-135 9 -204 9q-74 0 -110 -26.5t-36 -96.5v-34q0 -58 30.5 -82.5t90.5 -24.5
h85q87 0 132 -46.5t45 -124.5v-57q0 -103 -62.5 -143.5t-170.5 -40.5q-47 0 -116.5 5.5zM251.5 824.5q-4.5 4.5 -4.5 11.5v78q0 16 16 16h37q7 0 11 -4.5t4 -11.5v-78q0 -7 -4 -11.5t-11 -4.5h-37q-7 0 -11.5 4.5z" />
    <glyph glyph-name="uni1E62" unicode="&#x1e62;" horiz-adv-x="578" 
d="M169.5 -0.5q-69.5 5.5 -106.5 12.5v61q78 -8 220 -8q76 0 118 24t42 87v50q0 104 -110 104h-79q-95 0 -144.5 41.5t-49.5 136.5v42q0 101 54 146.5t160 45.5q45 0 108.5 -6.5t103.5 -14.5v-60q-135 9 -204 9q-74 0 -110 -26.5t-36 -96.5v-34q0 -58 30.5 -82.5t90.5 -24.5
h85q87 0 132 -46.5t45 -124.5v-57q0 -103 -62.5 -143.5t-170.5 -40.5q-47 0 -116.5 5.5zM252.5 -205.5q-4.5 4.5 -4.5 11.5v78q0 16 16 16h37q7 0 11 -4.5t4 -11.5v-78q0 -7 -4 -11.5t-11 -4.5h-37q-7 0 -11.5 4.5z" />
    <glyph glyph-name="uni1E68" unicode="&#x1e68;" horiz-adv-x="578" 
d="M169.5 -0.5q-69.5 5.5 -106.5 12.5v61q78 -8 220 -8q76 0 118 24t42 87v50q0 104 -110 104h-79q-95 0 -144.5 41.5t-49.5 136.5v42q0 101 54 146.5t160 45.5q45 0 108.5 -6.5t103.5 -14.5v-60q-135 9 -204 9q-74 0 -110 -26.5t-36 -96.5v-34q0 -58 30.5 -82.5t90.5 -24.5
h85q87 0 132 -46.5t45 -124.5v-57q0 -103 -62.5 -143.5t-170.5 -40.5q-47 0 -116.5 5.5zM252.5 -205.5q-4.5 4.5 -4.5 11.5v78q0 16 16 16h37q7 0 11 -4.5t4 -11.5v-78q0 -7 -4 -11.5t-11 -4.5h-37q-7 0 -11.5 4.5zM251.5 824.5q-4.5 4.5 -4.5 11.5v78q0 16 16 16h37
q7 0 11 -4.5t4 -11.5v-78q0 -7 -4 -11.5t-11 -4.5h-37q-7 0 -11.5 4.5z" />
    <glyph glyph-name="uni1E9E" unicode="&#x1e9e;" horiz-adv-x="671" 
d="M566.5 352q45.5 -43 45.5 -123v-57q0 -99 -60 -138.5t-164 -39.5q-29 0 -74.5 4.5t-71.5 9.5v61q48 -3 136 -3q73 0 113.5 23.5t40.5 86.5v49q0 53 -27.5 78.5t-88.5 25.5h-120v66h62l90 222l44 47h-235q-48 0 -74 -25.5t-26 -75.5v-563h-80v562q0 90 50.5 132t127.5 42
q78 -1 166.5 -3t132.5 -3q7 -1 21 -1l-8 -16l8 4l-152 -272l-54 -50h65q87 0 132.5 -43z" />
    <glyph glyph-name="uni018F" unicode="&#x18f;" horiz-adv-x="611" 
d="M165.5 27.5q-52.5 33.5 -78.5 108t-26 197.5v57h411q-1 116 -21.5 175.5t-67.5 82.5t-136 23q-68 0 -109.5 -6t-48.5 -7v60q86 24 182 24q102 0 161.5 -29t89.5 -108t30 -230q0 -148 -30 -232t-85 -116.5t-136 -32.5q-83 0 -135.5 33.5zM392.5 87q36.5 22 56.5 79t21 159
h-330q1 -98 16 -153.5t49 -81t95 -25.5q56 0 92.5 22z" />
    <glyph glyph-name="T" unicode="T" horiz-adv-x="566" 
d="M244 664h-228v72h534v-72h-227v-664h-79v664z" />
    <glyph glyph-name="Tbar" unicode="&#x166;" horiz-adv-x="566" 
d="M323 664v-253h178v-46h-178v-365h-79v365h-179v46h179v253h-228v72h534v-72h-227z" />
    <glyph glyph-name="Tcaron" unicode="&#x164;" horiz-adv-x="566" 
d="M244 664h-228v72h534v-72h-227v-664h-79v664zM143 926h48l92 -97l100 97h48l-121 -135h-56z" />
    <glyph glyph-name="uni0162" unicode="&#x162;" horiz-adv-x="566" 
d="M305 0l-35 -54q72 -4 72 -64q0 -34 -25 -53t-71 -19h-33v33l22 2q28 3 42 13.5t14 31.5q0 19 -14.5 31t-51.5 13l43 66h-24v664h-228v72h534v-72h-227v-664h-18z" />
    <glyph glyph-name="uni021A" unicode="&#x21a;" horiz-adv-x="566" 
d="M244 664h-228v72h534v-72h-227v-664h-79v664zM166 -170l30 5q26 4 40 11.5t21 28.5t7 62h49q0 -52 -9 -81.5t-32.5 -43.5t-67.5 -14h-38v32z" />
    <glyph glyph-name="uni1E6A" unicode="&#x1e6a;" horiz-adv-x="566" 
d="M244 664h-228v72h534v-72h-227v-664h-79v664zM251.5 824.5q-4.5 4.5 -4.5 11.5v78q0 16 16 16h37q7 0 11 -4.5t4 -11.5v-78q0 -7 -4 -11.5t-11 -4.5h-37q-7 0 -11.5 4.5z" />
    <glyph glyph-name="uni1E6C" unicode="&#x1e6c;" horiz-adv-x="566" 
d="M244 664h-228v72h534v-72h-227v-664h-79v664zM252.5 -205.5q-4.5 4.5 -4.5 11.5v78q0 16 16 16h37q7 0 11 -4.5t4 -11.5v-78q0 -7 -4 -11.5t-11 -4.5h-37q-7 0 -11.5 4.5z" />
    <glyph glyph-name="uni1E6E" unicode="&#x1e6e;" horiz-adv-x="566" 
d="M244 664h-228v72h534v-72h-227v-664h-79v664zM147 -141h265v-47h-265v47z" />
    <glyph glyph-name="U" unicode="U" horiz-adv-x="676" 
d="M136 46q-69 52 -69 182v508h80v-508q0 -90 47.5 -126t143.5 -36t143.5 36t47.5 126v508h80v-508q0 -130 -69 -182t-202 -52t-202 52z" />
    <glyph glyph-name="Uacute" unicode="&#xda;" horiz-adv-x="676" 
d="M136 46q-69 52 -69 182v508h80v-508q0 -90 47.5 -126t143.5 -36t143.5 36t47.5 126v508h80v-508q0 -130 -69 -182t-202 -52t-202 52zM419 927h67l-125 -136h-46z" />
    <glyph glyph-name="Ubreve" unicode="&#x16c;" horiz-adv-x="676" 
d="M136 46q-69 52 -69 182v508h80v-508q0 -90 47.5 -126t143.5 -36t143.5 36t47.5 126v508h80v-508q0 -130 -69 -182t-202 -52t-202 52zM232 823q-36 34 -36 107h39q0 -53 24.5 -78t64.5 -25q96 0 96 103h39q0 -75 -36 -108t-96 -33q-59 0 -95 34z" />
    <glyph glyph-name="Ucircumflex" unicode="&#xdb;" horiz-adv-x="676" 
d="M136 46q-69 52 -69 182v508h80v-508q0 -90 47.5 -126t143.5 -36t143.5 36t47.5 126v508h80v-508q0 -130 -69 -182t-202 -52t-202 52zM309 926h56l110 -135h-48l-91 97l-100 -97h-49z" />
    <glyph glyph-name="uni0214" unicode="&#x214;" horiz-adv-x="676" 
d="M136 46q-69 52 -69 182v508h80v-508q0 -90 47.5 -126t143.5 -36t143.5 36t47.5 126v508h80v-508q0 -130 -69 -182t-202 -52t-202 52zM129 927h68l104 -136h-47zM275 927h68l104 -136h-47z" />
    <glyph glyph-name="Udieresis" unicode="&#xdc;" horiz-adv-x="676" 
d="M136 46q-69 52 -69 182v508h80v-508q0 -90 47.5 -126t143.5 -36t143.5 36t47.5 126v508h80v-508q0 -130 -69 -182t-202 -52t-202 52zM178.5 817.5q-4.5 4.5 -4.5 11.5v78q0 16 16 16h37q7 0 11.5 -4.5t4.5 -11.5v-78q0 -7 -4.5 -11.5t-11.5 -4.5h-37q-7 0 -11.5 4.5z
M414.5 817.5q-4.5 4.5 -4.5 11.5v78q0 16 16 16h37q7 0 11 -4.5t4 -11.5v-78q0 -7 -4 -11.5t-11 -4.5h-37q-7 0 -11.5 4.5z" />
    <glyph glyph-name="uni1EE4" unicode="&#x1ee4;" horiz-adv-x="676" 
d="M136 46q-69 52 -69 182v508h80v-508q0 -90 47.5 -126t143.5 -36t143.5 36t47.5 126v508h80v-508q0 -130 -69 -182t-202 -52t-202 52zM303.5 -205.5q-4.5 4.5 -4.5 11.5v78q0 16 16 16h37q7 0 11 -4.5t4 -11.5v-78q0 -7 -4 -11.5t-11 -4.5h-37q-7 0 -11.5 4.5z" />
    <glyph glyph-name="Ugrave" unicode="&#xd9;" horiz-adv-x="676" 
d="M136 46q-69 52 -69 182v508h80v-508q0 -90 47.5 -126t143.5 -36t143.5 36t47.5 126v508h80v-508q0 -130 -69 -182t-202 -52t-202 52zM191 927h67l104 -136h-46z" />
    <glyph glyph-name="uni1EE6" unicode="&#x1ee6;" horiz-adv-x="676" 
d="M136 46q-69 52 -69 182v508h80v-508q0 -90 47.5 -126t143.5 -36t143.5 36t47.5 126v508h80v-508q0 -130 -69 -182t-202 -52t-202 52zM312 807q56 17 56 59q0 44 -48 44q-18 0 -36 -6v34q18 6 46 6q41 0 61 -20.5t20 -56.5q0 -33 -24.5 -57.5t-74.5 -39.5v37z" />
    <glyph glyph-name="Uhorn" unicode="&#x1af;" horiz-adv-x="676" 
d="M679 741q-26 -38 -70 -47v-466q0 -130 -69 -182t-202 -52t-202 52t-69 182v508h80v-508q0 -90 47.5 -126t143.5 -36t143.5 36t47.5 126v508h40q38 0 58.5 26t20.5 87h57q0 -70 -26 -108z" />
    <glyph glyph-name="uni1EE8" unicode="&#x1ee8;" horiz-adv-x="676" 
d="M679 741q-26 -38 -70 -47v-466q0 -130 -69 -182t-202 -52t-202 52t-69 182v508h80v-508q0 -90 47.5 -126t143.5 -36t143.5 36t47.5 126v508h40q38 0 58.5 26t20.5 87h57q0 -70 -26 -108zM409 927h67l-125 -136h-46z" />
    <glyph glyph-name="uni1EF0" unicode="&#x1ef0;" horiz-adv-x="676" 
d="M679 741q-26 -38 -70 -47v-466q0 -130 -69 -182t-202 -52t-202 52t-69 182v508h80v-508q0 -90 47.5 -126t143.5 -36t143.5 36t47.5 126v508h40q38 0 58.5 26t20.5 87h57q0 -70 -26 -108zM295.5 -205.5q-4.5 4.5 -4.5 11.5v78q0 16 16 16h37q7 0 11 -4.5t4 -11.5v-78
q0 -7 -4 -11.5t-11 -4.5h-37q-7 0 -11.5 4.5z" />
    <glyph glyph-name="uni1EEA" unicode="&#x1eea;" horiz-adv-x="676" 
d="M679 741q-26 -38 -70 -47v-466q0 -130 -69 -182t-202 -52t-202 52t-69 182v508h80v-508q0 -90 47.5 -126t143.5 -36t143.5 36t47.5 126v508h40q38 0 58.5 26t20.5 87h57q0 -70 -26 -108zM195 927h67l104 -136h-46z" />
    <glyph glyph-name="uni1EEC" unicode="&#x1eec;" horiz-adv-x="676" 
d="M679 741q-26 -38 -70 -47v-466q0 -130 -69 -182t-202 -52t-202 52t-69 182v508h80v-508q0 -90 47.5 -126t143.5 -36t143.5 36t47.5 126v508h40q38 0 58.5 26t20.5 87h57q0 -70 -26 -108zM317 807q56 17 56 59q0 44 -48 44q-18 0 -36 -6v34q18 6 46 6q41 0 61 -20.5
t20 -56.5q0 -33 -24.5 -57.5t-74.5 -39.5v37z" />
    <glyph glyph-name="uni1EEE" unicode="&#x1eee;" horiz-adv-x="676" 
d="M679 741q-26 -38 -70 -47v-466q0 -130 -69 -182t-202 -52t-202 52t-69 182v508h80v-508q0 -90 47.5 -126t143.5 -36t143.5 36t47.5 126v508h40q38 0 58.5 26t20.5 87h57q0 -70 -26 -108zM198 888q28 26 67 26q23 0 41.5 -8.5t45.5 -24.5q21 -14 36.5 -21t31.5 -7
q26 0 43 16.5t18 46.5h40q-1 -51 -26 -80t-70 -29q-21 0 -39.5 8t-45.5 25q-23 14 -39 21.5t-32 7.5q-25 0 -41.5 -16t-17.5 -46h-41q1 55 29 81z" />
    <glyph glyph-name="Uhungarumlaut" unicode="&#x170;" horiz-adv-x="676" 
d="M136 46q-69 52 -69 182v508h80v-508q0 -90 47.5 -126t143.5 -36t143.5 36t47.5 126v508h80v-508q0 -130 -69 -182t-202 -52t-202 52zM315 927h65l-119 -136h-46zM465 927h65l-119 -136h-46z" />
    <glyph glyph-name="uni0216" unicode="&#x216;" horiz-adv-x="676" 
d="M136 46q-69 52 -69 182v508h80v-508q0 -90 47.5 -126t143.5 -36t143.5 36t47.5 126v508h80v-508q0 -130 -69 -182t-202 -52t-202 52zM426 897q36 -34 36 -107h-39q0 54 -25 78.5t-64 24.5q-96 0 -96 -103h-39q0 75 36 108t96 33q59 0 95 -34z" />
    <glyph glyph-name="Umacron" unicode="&#x16a;" horiz-adv-x="676" 
d="M136 46q-69 52 -69 182v508h80v-508q0 -90 47.5 -126t143.5 -36t143.5 36t47.5 126v508h80v-508q0 -130 -69 -182t-202 -52t-202 52zM195 879h265v-47h-265v47z" />
    <glyph glyph-name="uni1E7A" unicode="&#x1e7a;" horiz-adv-x="676" 
d="M136 46q-69 52 -69 182v508h80v-508q0 -90 47.5 -126t143.5 -36t143.5 36t47.5 126v508h80v-508q0 -130 -69 -182t-202 -52t-202 52zM195 879h265v-47h-265v47zM178.5 947.5q-4.5 4.5 -4.5 11.5v78q0 16 16 16h37q7 0 11.5 -4.5t4.5 -11.5v-78q0 -7 -4.5 -11.5
t-11.5 -4.5h-37q-7 0 -11.5 4.5zM414.5 947.5q-4.5 4.5 -4.5 11.5v78q0 16 16 16h37q7 0 11 -4.5t4 -11.5v-78q0 -7 -4 -11.5t-11 -4.5h-37q-7 0 -11.5 4.5z" />
    <glyph glyph-name="Uogonek" unicode="&#x172;" horiz-adv-x="676" 
d="M609 736v-508q0 -108 -47.5 -161.5t-140.5 -67.5q-62 -34 -62 -80q0 -30 22 -47.5t61 -17.5h6v-38q-10 -3 -26 -3q-49 0 -77 25t-28 64q0 59 66 93q-15 -1 -45 -1q-133 0 -202 52t-69 182v508h80v-508q0 -90 47.5 -126t143.5 -36t143.5 36t47.5 126v508h80z" />
    <glyph glyph-name="Uring" unicode="&#x16e;" horiz-adv-x="676" 
d="M136 46q-69 52 -69 182v508h80v-508q0 -90 47.5 -126t143.5 -36t143.5 36t47.5 126v508h80v-508q0 -130 -69 -182t-202 -52t-202 52zM250.5 788q-27.5 24 -27.5 82q0 59 28 83.5t84 24.5t83 -24.5t27 -83.5q0 -58 -27 -82t-83 -24q-57 0 -84.5 24zM389 812.5
q16 15.5 16 57.5t-16 58.5t-54 16.5t-55.5 -16.5t-17.5 -58.5q0 -41 17.5 -57t55.5 -16t54 15.5z" />
    <glyph glyph-name="Utilde" unicode="&#x168;" horiz-adv-x="676" 
d="M136 46q-69 52 -69 182v508h80v-508q0 -90 47.5 -126t143.5 -36t143.5 36t47.5 126v508h80v-508q0 -130 -69 -182t-202 -52t-202 52zM191 888q28 26 67 26q23 0 41.5 -8.5t45.5 -24.5q21 -14 36.5 -21t31.5 -7q26 0 43 16.5t18 46.5h40q-1 -51 -26 -80t-70 -29
q-21 0 -39.5 8t-45.5 25q-23 14 -39 21.5t-32 7.5q-25 0 -41.5 -16t-17.5 -46h-41q1 55 29 81z" />
    <glyph glyph-name="uni1E78" unicode="&#x1e78;" horiz-adv-x="676" 
d="M136 46q-69 52 -69 182v508h80v-508q0 -90 47.5 -126t143.5 -36t143.5 36t47.5 126v508h80v-508q0 -130 -69 -182t-202 -52t-202 52zM191 888q28 26 67 26q23 0 41.5 -8.5t45.5 -24.5q21 -14 36.5 -21t31.5 -7q26 0 43 16.5t18 46.5h40q-1 -51 -26 -80t-70 -29
q-21 0 -39.5 8t-45.5 25q-23 14 -39 21.5t-32 7.5q-25 0 -41.5 -16t-17.5 -46h-41q1 55 29 81zM419 1077h67l-125 -136h-46z" />
    <glyph glyph-name="V" unicode="V" horiz-adv-x="674" 
d="M34 736h82l222 -653l221 653h81l-252 -736h-102z" />
    <glyph glyph-name="W" unicode="W" horiz-adv-x="991" 
d="M34 736h82l158 -627l182 627h80l181 -627l158 627h82l-189 -736h-86l-186 625l-187 -625h-86z" />
    <glyph glyph-name="Wacute" unicode="&#x1e82;" horiz-adv-x="991" 
d="M34 736h82l158 -627l182 627h80l181 -627l158 627h82l-189 -736h-86l-186 625l-187 -625h-86zM591 927h67l-125 -136h-46z" />
    <glyph glyph-name="Wcircumflex" unicode="&#x174;" horiz-adv-x="991" 
d="M34 736h82l158 -627l182 627h80l181 -627l158 627h82l-189 -736h-86l-186 625l-187 -625h-86zM481 926h56l110 -135h-48l-91 97l-100 -97h-49z" />
    <glyph glyph-name="Wdieresis" unicode="&#x1e84;" horiz-adv-x="991" 
d="M34 736h82l158 -627l182 627h80l181 -627l158 627h82l-189 -736h-86l-186 625l-187 -625h-86zM350.5 817.5q-4.5 4.5 -4.5 11.5v78q0 16 16 16h37q7 0 11.5 -4.5t4.5 -11.5v-78q0 -7 -4.5 -11.5t-11.5 -4.5h-37q-7 0 -11.5 4.5zM586.5 817.5q-4.5 4.5 -4.5 11.5v78
q0 16 16 16h37q7 0 11 -4.5t4 -11.5v-78q0 -7 -4 -11.5t-11 -4.5h-37q-7 0 -11.5 4.5z" />
    <glyph glyph-name="Wgrave" unicode="&#x1e80;" horiz-adv-x="991" 
d="M34 736h82l158 -627l182 627h80l181 -627l158 627h82l-189 -736h-86l-186 625l-187 -625h-86zM363 927h67l104 -136h-46z" />
    <glyph glyph-name="X" unicode="X" horiz-adv-x="623" 
d="M358 362l228 -362h-87l-190 302l-184 -302h-87l229 368l-232 368h87l194 -308l185 308h87z" />
    <glyph glyph-name="Y" unicode="Y" horiz-adv-x="618" 
d="M269 244l-234 492h83l192 -412l192 412h80l-233 -492v-244h-80v244z" />
    <glyph glyph-name="Yacute" unicode="&#xdd;" horiz-adv-x="618" 
d="M269 244l-234 492h83l192 -412l192 412h80l-233 -492v-244h-80v244zM395 927h67l-125 -136h-46z" />
    <glyph glyph-name="Ycircumflex" unicode="&#x176;" horiz-adv-x="618" 
d="M269 244l-234 492h83l192 -412l192 412h80l-233 -492v-244h-80v244zM285 926h56l110 -135h-48l-91 97l-100 -97h-49z" />
    <glyph glyph-name="Ydieresis" unicode="&#x178;" horiz-adv-x="618" 
d="M269 244l-234 492h83l192 -412l192 412h80l-233 -492v-244h-80v244zM154.5 817.5q-4.5 4.5 -4.5 11.5v78q0 16 16 16h37q7 0 11.5 -4.5t4.5 -11.5v-78q0 -7 -4.5 -11.5t-11.5 -4.5h-37q-7 0 -11.5 4.5zM390.5 817.5q-4.5 4.5 -4.5 11.5v78q0 16 16 16h37q7 0 11 -4.5
t4 -11.5v-78q0 -7 -4 -11.5t-11 -4.5h-37q-7 0 -11.5 4.5z" />
    <glyph glyph-name="uni1E8E" unicode="&#x1e8e;" horiz-adv-x="618" 
d="M269 244l-234 492h83l192 -412l192 412h80l-233 -492v-244h-80v244zM279.5 -205.5q-4.5 4.5 -4.5 11.5v78q0 16 16 16h37q7 0 11 -4.5t4 -11.5v-78q0 -7 -4 -11.5t-11 -4.5h-37q-7 0 -11.5 4.5z" />
    <glyph glyph-name="uni1EF4" unicode="&#x1ef4;" horiz-adv-x="618" 
d="M269 244l-234 492h83l192 -412l192 412h80l-233 -492v-244h-80v244zM279.5 -205.5q-4.5 4.5 -4.5 11.5v78q0 16 16 16h37q7 0 11 -4.5t4 -11.5v-78q0 -7 -4 -11.5t-11 -4.5h-37q-7 0 -11.5 4.5z" />
    <glyph glyph-name="Ygrave" unicode="&#x1ef2;" horiz-adv-x="618" 
d="M269 244l-234 492h83l192 -412l192 412h80l-233 -492v-244h-80v244zM167 927h67l104 -136h-46z" />
    <glyph glyph-name="uni1EF6" unicode="&#x1ef6;" horiz-adv-x="618" 
d="M269 244l-234 492h83l192 -412l192 412h80l-233 -492v-244h-80v244zM288 807q56 17 56 59q0 44 -48 44q-18 0 -36 -6v34q18 6 46 6q41 0 61 -20.5t20 -56.5q0 -33 -24.5 -57.5t-74.5 -39.5v37z" />
    <glyph glyph-name="uni0232" unicode="&#x232;" horiz-adv-x="618" 
d="M269 244l-234 492h83l192 -412l192 412h80l-233 -492v-244h-80v244zM171 879h265v-47h-265v47z" />
    <glyph glyph-name="uni1EF8" unicode="&#x1ef8;" horiz-adv-x="618" 
d="M269 244l-234 492h83l192 -412l192 412h80l-233 -492v-244h-80v244zM167 888q28 26 67 26q23 0 41.5 -8.5t45.5 -24.5q21 -14 36.5 -21t31.5 -7q26 0 43 16.5t18 46.5h40q-1 -51 -26 -80t-70 -29q-21 0 -39.5 8t-45.5 25q-23 14 -39 21.5t-32 7.5q-25 0 -41.5 -16
t-17.5 -46h-41q1 55 29 81z" />
    <glyph glyph-name="Z" unicode="Z" horiz-adv-x="560" 
d="M43 65l383 599h-383v72h479v-65l-383 -600h383v-71h-479v65z" />
    <glyph glyph-name="Zacute" unicode="&#x179;" horiz-adv-x="560" 
d="M43 65l383 599h-383v72h479v-65l-383 -600h383v-71h-479v65zM363 927h67l-125 -136h-46z" />
    <glyph glyph-name="Zcaron" unicode="&#x17d;" horiz-adv-x="560" 
d="M43 65l383 599h-383v72h479v-65l-383 -600h383v-71h-479v65zM138 926h48l92 -97l100 97h48l-121 -135h-56z" />
    <glyph glyph-name="Zdotaccent" unicode="&#x17b;" horiz-adv-x="560" 
d="M43 65l383 599h-383v72h479v-65l-383 -600h383v-71h-479v65zM246.5 824.5q-4.5 4.5 -4.5 11.5v78q0 16 16 16h37q7 0 11 -4.5t4 -11.5v-78q0 -7 -4 -11.5t-11 -4.5h-37q-7 0 -11.5 4.5z" />
    <glyph glyph-name="uni1E92" unicode="&#x1e92;" horiz-adv-x="560" 
d="M43 65l383 599h-383v72h479v-65l-383 -600h383v-71h-479v65zM247.5 -205.5q-4.5 4.5 -4.5 11.5v78q0 16 16 16h37q7 0 11 -4.5t4 -11.5v-78q0 -7 -4 -11.5t-11 -4.5h-37q-7 0 -11.5 4.5z" />
    <glyph glyph-name="a" unicode="a" horiz-adv-x="545" 
d="M82.5 30q-37.5 36 -37.5 98v38q0 65 42.5 103t124.5 38h181v66q0 54 -29.5 80t-108.5 26h-166v47q94 16 195 16q97 0 142.5 -39.5t45.5 -125.5v-377h-61l-15 61q-7 -6 -43.5 -23t-83.5 -30.5t-89 -13.5q-60 0 -97.5 36zM281 63q39 10 70.5 21t41.5 15v168l-163 -7
q-55 -2 -80.5 -27t-25.5 -68v-24q0 -46 26.5 -67t64.5 -21q27 0 66 10z" />
    <glyph glyph-name="aacute" unicode="&#xe1;" horiz-adv-x="545" 
d="M82.5 30q-37.5 36 -37.5 98v38q0 65 42.5 103t124.5 38h181v66q0 54 -29.5 80t-108.5 26h-166v47q94 16 195 16q97 0 142.5 -39.5t45.5 -125.5v-377h-61l-15 61q-7 -6 -43.5 -23t-83.5 -30.5t-89 -13.5q-60 0 -97.5 36zM281 63q39 10 70.5 21t41.5 15v168l-163 -7
q-55 -2 -80.5 -27t-25.5 -68v-24q0 -46 26.5 -67t64.5 -21q27 0 66 10zM342 767h67l-125 -136h-46z" />
    <glyph glyph-name="abreve" unicode="&#x103;" horiz-adv-x="545" 
d="M82.5 30q-37.5 36 -37.5 98v38q0 65 42.5 103t124.5 38h181v66q0 54 -29.5 80t-108.5 26h-166v47q94 16 195 16q97 0 142.5 -39.5t45.5 -125.5v-377h-61l-15 61q-7 -6 -43.5 -23t-83.5 -30.5t-89 -13.5q-60 0 -97.5 36zM281 63q39 10 70.5 21t41.5 15v168l-163 -7
q-55 -2 -80.5 -27t-25.5 -68v-24q0 -46 26.5 -67t64.5 -21q27 0 66 10zM168 663q-36 34 -36 107h39q0 -53 25 -78t64 -25q96 0 96 103h39q0 -75 -36 -108t-96 -33q-59 0 -95 34z" />
    <glyph glyph-name="uni1EAF" unicode="&#x1eaf;" horiz-adv-x="545" 
d="M82.5 30q-37.5 36 -37.5 98v38q0 65 42.5 103t124.5 38h181v66q0 54 -29.5 80t-108.5 26h-166v47q94 16 195 16q97 0 142.5 -39.5t45.5 -125.5v-377h-61l-15 61q-7 -6 -43.5 -23t-83.5 -30.5t-89 -13.5q-60 0 -97.5 36zM281 63q39 10 70.5 21t41.5 15v168l-163 -7
q-55 -2 -80.5 -27t-25.5 -68v-24q0 -46 26.5 -67t64.5 -21q27 0 66 10zM339 877h67l-125 -136h-46zM196 675.5q25 -18.5 64 -18.5q46 0 71 18t25 59h39q0 -60 -36 -86t-96 -26q-58 0 -94.5 27t-36.5 85h39q0 -40 25 -58.5z" />
    <glyph glyph-name="uni1EB7" unicode="&#x1eb7;" horiz-adv-x="545" 
d="M82.5 30q-37.5 36 -37.5 98v38q0 65 42.5 103t124.5 38h181v66q0 54 -29.5 80t-108.5 26h-166v47q94 16 195 16q97 0 142.5 -39.5t45.5 -125.5v-377h-61l-15 61q-7 -6 -43.5 -23t-83.5 -30.5t-89 -13.5q-60 0 -97.5 36zM281 63q39 10 70.5 21t41.5 15v168l-163 -7
q-55 -2 -80.5 -27t-25.5 -68v-24q0 -46 26.5 -67t64.5 -21q27 0 66 10zM168 663q-36 34 -36 107h39q0 -53 25 -78t64 -25q96 0 96 103h39q0 -75 -36 -108t-96 -33q-59 0 -95 34zM236.5 -205.5q-4.5 4.5 -4.5 11.5v78q0 16 16 16h37q7 0 11.5 -4.5t4.5 -11.5v-78
q0 -7 -4.5 -11.5t-11.5 -4.5h-37q-7 0 -11.5 4.5z" />
    <glyph glyph-name="uni1EB1" unicode="&#x1eb1;" horiz-adv-x="545" 
d="M82.5 30q-37.5 36 -37.5 98v38q0 65 42.5 103t124.5 38h181v66q0 54 -29.5 80t-108.5 26h-166v47q94 16 195 16q97 0 142.5 -39.5t45.5 -125.5v-377h-61l-15 61q-7 -6 -43.5 -23t-83.5 -30.5t-89 -13.5q-60 0 -97.5 36zM281 63q39 10 70.5 21t41.5 15v168l-163 -7
q-55 -2 -80.5 -27t-25.5 -68v-24q0 -46 26.5 -67t64.5 -21q27 0 66 10zM131 877h67l104 -136h-46zM196 675.5q25 -18.5 64 -18.5q46 0 71 18t25 59h39q0 -60 -36 -86t-96 -26q-58 0 -94.5 27t-36.5 85h39q0 -40 25 -58.5z" />
    <glyph glyph-name="uni1EB3" unicode="&#x1eb3;" horiz-adv-x="545" 
d="M82.5 30q-37.5 36 -37.5 98v38q0 65 42.5 103t124.5 38h181v66q0 54 -29.5 80t-108.5 26h-166v47q94 16 195 16q97 0 142.5 -39.5t45.5 -125.5v-377h-61l-15 61q-7 -6 -43.5 -23t-83.5 -30.5t-89 -13.5q-60 0 -97.5 36zM281 63q39 10 70.5 21t41.5 15v168l-163 -7
q-55 -2 -80.5 -27t-25.5 -68v-24q0 -46 26.5 -67t64.5 -21q27 0 66 10zM247 736q56 17 56 59q0 44 -48 44q-18 0 -36 -6v34q18 6 46 6q41 0 61 -20.5t20 -56.5q0 -33 -24.5 -57.5t-74.5 -39.5v37zM168.5 649q-36.5 27 -36.5 85h39q0 -40 25 -58.5t64 -18.5q46 0 71 18t25 59
h39q0 -60 -36 -86t-96 -26q-58 0 -94.5 27z" />
    <glyph glyph-name="uni1EB5" unicode="&#x1eb5;" horiz-adv-x="545" 
d="M82.5 30q-37.5 36 -37.5 98v38q0 65 42.5 103t124.5 38h181v66q0 54 -29.5 80t-108.5 26h-166v47q94 16 195 16q97 0 142.5 -39.5t45.5 -125.5v-377h-61l-15 61q-7 -6 -43.5 -23t-83.5 -30.5t-89 -13.5q-60 0 -97.5 36zM281 63q39 10 70.5 21t41.5 15v168l-163 -7
q-55 -2 -80.5 -27t-25.5 -68v-24q0 -46 26.5 -67t64.5 -21q27 0 66 10zM226.5 846q17.5 -6 42.5 -17q40 -19 64 -19t39 11.5t15 32.5h40q-3 -84 -83 -84q-18 0 -35.5 5.5t-40.5 16.5q-22 10 -37 15t-30 5q-23 0 -37.5 -11t-14.5 -32h-41q2 45 25 64t57 19q19 0 36.5 -6z
M196 675.5q25 -18.5 64 -18.5q46 0 71 18t25 59h39q0 -60 -36 -86t-96 -26q-58 0 -94.5 27t-36.5 85h39q0 -40 25 -58.5z" />
    <glyph glyph-name="acircumflex" unicode="&#xe2;" horiz-adv-x="545" 
d="M82.5 30q-37.5 36 -37.5 98v38q0 65 42.5 103t124.5 38h181v66q0 54 -29.5 80t-108.5 26h-166v47q94 16 195 16q97 0 142.5 -39.5t45.5 -125.5v-377h-61l-15 61q-7 -6 -43.5 -23t-83.5 -30.5t-89 -13.5q-60 0 -97.5 36zM281 63q39 10 70.5 21t41.5 15v168l-163 -7
q-55 -2 -80.5 -27t-25.5 -68v-24q0 -46 26.5 -67t64.5 -21q27 0 66 10zM245 766h56l110 -135h-48l-91 97l-100 -97h-49z" />
    <glyph glyph-name="uni1EA5" unicode="&#x1ea5;" horiz-adv-x="545" 
d="M82.5 30q-37.5 36 -37.5 98v38q0 65 42.5 103t124.5 38h181v66q0 54 -29.5 80t-108.5 26h-166v47q94 16 195 16q97 0 142.5 -39.5t45.5 -125.5v-377h-61l-15 61q-7 -6 -43.5 -23t-83.5 -30.5t-89 -13.5q-60 0 -97.5 36zM281 63q39 10 70.5 21t41.5 15v168l-163 -7
q-55 -2 -80.5 -27t-25.5 -68v-24q0 -46 26.5 -67t64.5 -21q27 0 66 10zM509 837l-109 -129h-46l87 129h68zM301 729l110 -98h-48l-92 61l-100 -61h-48l121 98h57z" />
    <glyph glyph-name="uni1EAD" unicode="&#x1ead;" horiz-adv-x="545" 
d="M82.5 30q-37.5 36 -37.5 98v38q0 65 42.5 103t124.5 38h181v66q0 54 -29.5 80t-108.5 26h-166v47q94 16 195 16q97 0 142.5 -39.5t45.5 -125.5v-377h-61l-15 61q-7 -6 -43.5 -23t-83.5 -30.5t-89 -13.5q-60 0 -97.5 36zM281 63q39 10 70.5 21t41.5 15v168l-163 -7
q-55 -2 -80.5 -27t-25.5 -68v-24q0 -46 26.5 -67t64.5 -21q27 0 66 10zM245 766h56l110 -135h-48l-91 97l-100 -97h-49zM236.5 -205.5q-4.5 4.5 -4.5 11.5v78q0 16 16 16h37q7 0 11.5 -4.5t4.5 -11.5v-78q0 -7 -4.5 -11.5t-11.5 -4.5h-37q-7 0 -11.5 4.5z" />
    <glyph glyph-name="uni1EA7" unicode="&#x1ea7;" horiz-adv-x="545" 
d="M82.5 30q-37.5 36 -37.5 98v38q0 65 42.5 103t124.5 38h181v66q0 54 -29.5 80t-108.5 26h-166v47q94 16 195 16q97 0 142.5 -39.5t45.5 -125.5v-377h-61l-15 61q-7 -6 -43.5 -23t-83.5 -30.5t-89 -13.5q-60 0 -97.5 36zM281 63q39 10 70.5 21t41.5 15v168l-163 -7
q-55 -2 -80.5 -27t-25.5 -68v-24q0 -46 26.5 -67t64.5 -21q27 0 66 10zM99 837l87 -129h-46l-109 129h68zM301 729l110 -98h-48l-92 61l-100 -61h-48l121 98h57z" />
    <glyph glyph-name="uni1EA9" unicode="&#x1ea9;" horiz-adv-x="545" 
d="M82.5 30q-37.5 36 -37.5 98v38q0 65 42.5 103t124.5 38h181v66q0 54 -29.5 80t-108.5 26h-166v47q94 16 195 16q97 0 142.5 -39.5t45.5 -125.5v-377h-61l-15 61q-7 -6 -43.5 -23t-83.5 -30.5t-89 -13.5q-60 0 -97.5 36zM281 63q39 10 70.5 21t41.5 15v168l-163 -7
q-55 -2 -80.5 -27t-25.5 -68v-24q0 -46 26.5 -67t64.5 -21q27 0 66 10zM377 719q26 8 38 21.5t12 29.5q0 37 -42 37q-13 0 -35 -6v30q20 7 45 7q36 0 54 -17.5t18 -47.5t-22 -53.5t-68 -36.5v36zM244 729h57l110 -98h-48l-92 61l-100 -61h-48z" />
    <glyph glyph-name="uni1EAB" unicode="&#x1eab;" horiz-adv-x="545" 
d="M82.5 30q-37.5 36 -37.5 98v38q0 65 42.5 103t124.5 38h181v66q0 54 -29.5 80t-108.5 26h-166v47q94 16 195 16q97 0 142.5 -39.5t45.5 -125.5v-377h-61l-15 61q-7 -6 -43.5 -23t-83.5 -30.5t-89 -13.5q-60 0 -97.5 36zM281 63q39 10 70.5 21t41.5 15v168l-163 -7
q-55 -2 -80.5 -27t-25.5 -68v-24q0 -46 26.5 -67t64.5 -21q27 0 66 10zM226.5 853q17.5 -6 42.5 -17q40 -19 64 -19t39 11.5t15 32.5h40q-3 -85 -83 -85q-19 0 -36 5.5t-42 16.5q-23 10 -38.5 15t-30.5 5q-21 0 -34.5 -11t-13.5 -31h-41q2 45 25 64t57 19q19 0 36.5 -6z
M411 631h-48l-92 61l-100 -61h-48l121 98h57z" />
    <glyph glyph-name="uni0201" unicode="&#x201;" horiz-adv-x="545" 
d="M82.5 30q-37.5 36 -37.5 98v38q0 65 42.5 103t124.5 38h181v66q0 54 -29.5 80t-108.5 26h-166v47q94 16 195 16q97 0 142.5 -39.5t45.5 -125.5v-377h-61l-15 61q-7 -6 -43.5 -23t-83.5 -30.5t-89 -13.5q-60 0 -97.5 36zM281 63q39 10 70.5 21t41.5 15v168l-163 -7
q-55 -2 -80.5 -27t-25.5 -68v-24q0 -46 26.5 -67t64.5 -21q27 0 66 10zM69 767h68l104 -136h-47zM215 767h68l104 -136h-47z" />
    <glyph glyph-name="adieresis" unicode="&#xe4;" horiz-adv-x="545" 
d="M82.5 30q-37.5 36 -37.5 98v38q0 65 42.5 103t124.5 38h181v66q0 54 -29.5 80t-108.5 26h-166v47q94 16 195 16q97 0 142.5 -39.5t45.5 -125.5v-377h-61l-15 61q-7 -6 -43.5 -23t-83.5 -30.5t-89 -13.5q-60 0 -97.5 36zM281 63q39 10 70.5 21t41.5 15v168l-163 -7
q-55 -2 -80.5 -27t-25.5 -68v-24q0 -46 26.5 -67t64.5 -21q27 0 66 10zM141.5 657.5q-4.5 4.5 -4.5 11.5v78q0 16 16 16h36q16 0 16 -16v-78q0 -16 -16 -16h-36q-7 0 -11.5 4.5zM336.5 657.5q-4.5 4.5 -4.5 11.5v78q0 16 16 16h36q16 0 16 -16v-78q0 -16 -16 -16h-36
q-7 0 -11.5 4.5z" />
    <glyph glyph-name="uni1EA1" unicode="&#x1ea1;" horiz-adv-x="545" 
d="M82.5 30q-37.5 36 -37.5 98v38q0 65 42.5 103t124.5 38h181v66q0 54 -29.5 80t-108.5 26h-166v47q94 16 195 16q97 0 142.5 -39.5t45.5 -125.5v-377h-61l-15 61q-7 -6 -43.5 -23t-83.5 -30.5t-89 -13.5q-60 0 -97.5 36zM281 63q39 10 70.5 21t41.5 15v168l-163 -7
q-55 -2 -80.5 -27t-25.5 -68v-24q0 -46 26.5 -67t64.5 -21q27 0 66 10zM236.5 -205.5q-4.5 4.5 -4.5 11.5v78q0 16 16 16h37q7 0 11.5 -4.5t4.5 -11.5v-78q0 -7 -4.5 -11.5t-11.5 -4.5h-37q-7 0 -11.5 4.5z" />
    <glyph glyph-name="agrave" unicode="&#xe0;" horiz-adv-x="545" 
d="M82.5 30q-37.5 36 -37.5 98v38q0 65 42.5 103t124.5 38h181v66q0 54 -29.5 80t-108.5 26h-166v47q94 16 195 16q97 0 142.5 -39.5t45.5 -125.5v-377h-61l-15 61q-7 -6 -43.5 -23t-83.5 -30.5t-89 -13.5q-60 0 -97.5 36zM281 63q39 10 70.5 21t41.5 15v168l-163 -7
q-55 -2 -80.5 -27t-25.5 -68v-24q0 -46 26.5 -67t64.5 -21q27 0 66 10zM141 767h67l104 -136h-46z" />
    <glyph glyph-name="uni1EA3" unicode="&#x1ea3;" horiz-adv-x="545" 
d="M82.5 30q-37.5 36 -37.5 98v38q0 65 42.5 103t124.5 38h181v66q0 54 -29.5 80t-108.5 26h-166v47q94 16 195 16q97 0 142.5 -39.5t45.5 -125.5v-377h-61l-15 61q-7 -6 -43.5 -23t-83.5 -30.5t-89 -13.5q-60 0 -97.5 36zM281 63q39 10 70.5 21t41.5 15v168l-163 -7
q-55 -2 -80.5 -27t-25.5 -68v-24q0 -46 26.5 -67t64.5 -21q27 0 66 10zM252 640q56 17 56 59q0 44 -48 44q-18 0 -36 -6v34q18 6 46 6q41 0 61 -20.5t20 -56.5q0 -33 -24.5 -57.5t-74.5 -39.5v37z" />
    <glyph glyph-name="uni0203" unicode="&#x203;" horiz-adv-x="545" 
d="M82.5 30q-37.5 36 -37.5 98v38q0 65 42.5 103t124.5 38h181v66q0 54 -29.5 80t-108.5 26h-166v47q94 16 195 16q97 0 142.5 -39.5t45.5 -125.5v-377h-61l-15 61q-7 -6 -43.5 -23t-83.5 -30.5t-89 -13.5q-60 0 -97.5 36zM281 63q39 10 70.5 21t41.5 15v168l-163 -7
q-55 -2 -80.5 -27t-25.5 -68v-24q0 -46 26.5 -67t64.5 -21q27 0 66 10zM363 737q36 -34 36 -107h-39q0 54 -25 78.5t-64 24.5q-96 0 -96 -103h-39q0 75 36 108t96 33q59 0 95 -34z" />
    <glyph glyph-name="amacron" unicode="&#x101;" horiz-adv-x="545" 
d="M82.5 30q-37.5 36 -37.5 98v38q0 65 42.5 103t124.5 38h181v66q0 54 -29.5 80t-108.5 26h-166v47q94 16 195 16q97 0 142.5 -39.5t45.5 -125.5v-377h-61l-15 61q-7 -6 -43.5 -23t-83.5 -30.5t-89 -13.5q-60 0 -97.5 36zM281 63q39 10 70.5 21t41.5 15v168l-163 -7
q-55 -2 -80.5 -27t-25.5 -68v-24q0 -46 26.5 -67t64.5 -21q27 0 66 10zM135 719h265v-47h-265v47z" />
    <glyph glyph-name="aogonek" unicode="&#x105;" horiz-adv-x="545" 
d="M498 -146v-38q-10 -3 -26 -3q-49 0 -77 25t-28 64q0 30 19 55t56 43h-31l-15 61q-7 -6 -43.5 -23t-83.5 -30.5t-89 -13.5q-60 0 -97.5 36t-37.5 98v38q0 65 42.5 103t124.5 38h181v66q0 54 -29.5 80t-108.5 26h-166v47q94 16 195 16q97 0 142.5 -39.5t45.5 -125.5v-377
q-63 -35 -63 -81q0 -30 22 -47.5t61 -17.5h6zM393 267l-163 -7q-55 -2 -80.5 -27t-25.5 -68v-24q0 -46 26.5 -67t64.5 -21q27 0 66 10t70.5 21t41.5 15v168z" />
    <glyph glyph-name="aring" unicode="&#xe5;" horiz-adv-x="545" 
d="M82.5 30q-37.5 36 -37.5 98v38q0 65 42.5 103t124.5 38h181v66q0 54 -29.5 80t-108.5 26h-166v47q94 16 195 16q97 0 142.5 -39.5t45.5 -125.5v-377h-61l-15 61q-7 -6 -43.5 -23t-83.5 -30.5t-89 -13.5q-60 0 -97.5 36zM281 63q39 10 70.5 21t41.5 15v168l-163 -7
q-55 -2 -80.5 -27t-25.5 -68v-24q0 -46 26.5 -67t64.5 -21q27 0 66 10zM186.5 618q-27.5 24 -27.5 82q0 59 28 83.5t84 24.5t83 -24.5t27 -83.5q0 -58 -27 -82t-83 -24q-57 0 -84.5 24zM325 642.5q16 15.5 16 57.5t-16 58.5t-54 16.5t-55.5 -16.5t-17.5 -58.5
q0 -41 17.5 -57t55.5 -16t54 15.5z" />
    <glyph glyph-name="aringacute" unicode="&#x1fb;" horiz-adv-x="545" 
d="M186.5 618q-27.5 24 -27.5 82q0 55 24.5 80t74.5 28l91 119h67l-112 -121q39 -7 58 -32t19 -74q0 -58 -27 -82t-83 -24q-57 0 -84.5 24zM215.5 758.5q-17.5 -16.5 -17.5 -58.5q0 -41 17.5 -57t55.5 -16t54 15.5t16 57.5t-16 58.5t-54 16.5t-55.5 -16.5zM426.5 502.5
q45.5 -39.5 45.5 -125.5v-377h-61l-15 61q-7 -6 -43.5 -23t-83.5 -30.5t-89 -13.5q-60 0 -97.5 36t-37.5 98v38q0 65 42.5 103t124.5 38h181v66q0 54 -29.5 80t-108.5 26h-166v47q94 16 195 16q97 0 142.5 -39.5zM393 267l-163 -7q-55 -2 -80.5 -27t-25.5 -68v-24
q0 -46 26.5 -67t64.5 -21q27 0 66 10t70.5 21t41.5 15v168z" />
    <glyph glyph-name="atilde" unicode="&#xe3;" horiz-adv-x="545" 
d="M82.5 30q-37.5 36 -37.5 98v38q0 65 42.5 103t124.5 38h181v66q0 54 -29.5 80t-108.5 26h-166v47q94 16 195 16q97 0 142.5 -39.5t45.5 -125.5v-377h-61l-15 61q-7 -6 -43.5 -23t-83.5 -30.5t-89 -13.5q-60 0 -97.5 36zM281 63q39 10 70.5 21t41.5 15v168l-163 -7
q-55 -2 -80.5 -27t-25.5 -68v-24q0 -46 26.5 -67t64.5 -21q27 0 66 10zM135 728q28 26 67 26q23 0 41.5 -8.5t45.5 -24.5q21 -14 36.5 -21t31.5 -7q26 0 43 16.5t18 46.5h40q-1 -51 -26 -80t-70 -29q-21 0 -39.5 8t-45.5 25q-23 14 -39 21.5t-32 7.5q-25 0 -41.5 -16
t-17.5 -46h-41q1 55 29 81z" />
    <glyph glyph-name="ae" unicode="&#xe6;" horiz-adv-x="881" 
d="M81 31q-35 37 -35 100v33q0 64 42 101t122 37h184v72q0 49 -29.5 77t-100.5 28h-174v47q43 8 83.5 12t101.5 4q59 0 103 -23t62 -68q19 48 63.5 69t111.5 21q108 0 157 -39t49 -139q0 -65 -38.5 -90.5t-118.5 -25.5h-192q-1 -110 44 -150.5t129 -40.5h162v-48
q-79 -14 -195 -14q-133 0 -189 108q-42 -46 -105.5 -77t-134.5 -31q-67 0 -102 37zM662 300q44 0 65.5 13t21.5 51q0 63 -31 89t-107 26q-56 0 -85 -15t-41 -52.5t-13 -111.5h190zM316.5 76.5q50.5 23.5 90.5 65.5q-13 44 -14 116l-170 -4q-51 -1 -74.5 -25.5t-23.5 -63.5
v-23q0 -47 25 -68t64 -21q52 0 102.5 23.5z" />
    <glyph glyph-name="aeacute" unicode="&#x1fd;" horiz-adv-x="881" 
d="M81 31q-35 37 -35 100v33q0 64 42 101t122 37h184v72q0 49 -29.5 77t-100.5 28h-174v47q43 8 83.5 12t101.5 4q59 0 103 -23t62 -68q19 48 63.5 69t111.5 21q108 0 157 -39t49 -139q0 -65 -38.5 -90.5t-118.5 -25.5h-192q-1 -110 44 -150.5t129 -40.5h162v-48
q-79 -14 -195 -14q-133 0 -189 108q-42 -46 -105.5 -77t-134.5 -31q-67 0 -102 37zM662 300q44 0 65.5 13t21.5 51q0 63 -31 89t-107 26q-56 0 -85 -15t-41 -52.5t-13 -111.5h190zM316.5 76.5q50.5 23.5 90.5 65.5q-13 44 -14 116l-170 -4q-51 -1 -74.5 -25.5t-23.5 -63.5
v-23q0 -47 25 -68t64 -21q52 0 102.5 23.5zM511 767h67l-125 -136h-46z" />
    <glyph glyph-name="b" unicode="b" horiz-adv-x="578" 
d="M155 54l-15 -54h-64v763h79v-278q42 24 89.5 40t85.5 16q98 0 144.5 -64t46.5 -214q0 -269 -188 -269q-92 0 -178 60zM408 111.5q34 51.5 34 154.5q0 84 -16.5 129.5t-45.5 62.5t-72 17q-42 0 -77 -11t-76 -34v-327q37 -20 73.5 -31.5t79.5 -11.5q66 0 100 51.5z" />
    <glyph glyph-name="uni1E03" unicode="&#x1e03;" horiz-adv-x="578" 
d="M155 54l-15 -54h-64v763h79v-278q42 24 89.5 40t85.5 16q98 0 144.5 -64t46.5 -214q0 -269 -188 -269q-92 0 -178 60zM408 111.5q34 51.5 34 154.5q0 84 -16.5 129.5t-45.5 62.5t-72 17q-42 0 -77 -11t-76 -34v-327q37 -20 73.5 -31.5t79.5 -11.5q66 0 100 51.5z
M84.5 864.5q-4.5 4.5 -4.5 11.5v78q0 16 16 16h37q7 0 11 -4.5t4 -11.5v-78q0 -7 -4 -11.5t-11 -4.5h-37q-7 0 -11.5 4.5z" />
    <glyph glyph-name="c" unicode="c" horiz-adv-x="490" 
d="M112.5 53.5q-55.5 59.5 -55.5 212.5q0 107 25.5 167t72.5 83.5t117 23.5q96 0 177 -14v-47h-156q-55 0 -88.5 -18t-51 -64.5t-17.5 -132.5q0 -82 18.5 -127.5t52.5 -63t87 -17.5h163v-46q-94 -16 -187 -16q-102 0 -157.5 59.5z" />
    <glyph glyph-name="cacute" unicode="&#x107;" horiz-adv-x="490" 
d="M112.5 53.5q-55.5 59.5 -55.5 212.5q0 107 25.5 167t72.5 83.5t117 23.5q96 0 177 -14v-47h-156q-55 0 -88.5 -18t-51 -64.5t-17.5 -132.5q0 -82 18.5 -127.5t52.5 -63t87 -17.5h163v-46q-94 -16 -187 -16q-102 0 -157.5 59.5zM342 767h67l-125 -136h-46z" />
    <glyph glyph-name="ccaron" unicode="&#x10d;" horiz-adv-x="490" 
d="M112.5 53.5q-55.5 59.5 -55.5 212.5q0 107 25.5 167t72.5 83.5t117 23.5q96 0 177 -14v-47h-156q-55 0 -88.5 -18t-51 -64.5t-17.5 -132.5q0 -82 18.5 -127.5t52.5 -63t87 -17.5h163v-46q-94 -16 -187 -16q-102 0 -157.5 59.5zM130 766h48l92 -97l100 97h48l-121 -135
h-56z" />
    <glyph glyph-name="ccedilla" unicode="&#xe7;" horiz-adv-x="490" 
d="M289 -6l-32 -48q72 -4 72 -64q0 -34 -25 -53t-71 -19h-33v33l22 2q28 3 42 13.5t14 31.5q0 19 -14.5 31t-51.5 13l40 60q-93 5 -144 65.5t-51 206.5q0 107 25.5 167t72.5 83.5t117 23.5q96 0 177 -14v-47h-156q-55 0 -88.5 -18t-51 -64.5t-17.5 -132.5q0 -82 18.5 -127.5
t52.5 -63t87 -17.5h163v-46q-91 -15 -168 -16z" />
    <glyph glyph-name="uni1E09" unicode="&#x1e09;" horiz-adv-x="490" 
d="M284 631h-46l104 136h67zM289 -6l-32 -48q72 -4 72 -64q0 -34 -25 -53t-71 -19h-33v33l22 2q28 3 42 13.5t14 31.5q0 19 -14.5 31t-51.5 13l40 60q-93 5 -144 65.5t-51 206.5q0 107 25.5 167t72.5 83.5t117 23.5q96 0 177 -14v-47h-156q-55 0 -88.5 -18t-51 -64.5
t-17.5 -132.5q0 -82 18.5 -127.5t52.5 -63t87 -17.5h163v-46q-91 -15 -168 -16z" />
    <glyph glyph-name="ccircumflex" unicode="&#x109;" horiz-adv-x="490" 
d="M112.5 53.5q-55.5 59.5 -55.5 212.5q0 107 25.5 167t72.5 83.5t117 23.5q96 0 177 -14v-47h-156q-55 0 -88.5 -18t-51 -64.5t-17.5 -132.5q0 -82 18.5 -127.5t52.5 -63t87 -17.5h163v-46q-94 -16 -187 -16q-102 0 -157.5 59.5zM245 766h56l110 -135h-48l-91 97l-100 -97
h-49z" />
    <glyph glyph-name="cdotaccent" unicode="&#x10b;" horiz-adv-x="490" 
d="M112.5 53.5q-55.5 59.5 -55.5 212.5q0 107 25.5 167t72.5 83.5t117 23.5q96 0 177 -14v-47h-156q-55 0 -88.5 -18t-51 -64.5t-17.5 -132.5q0 -82 18.5 -127.5t52.5 -63t87 -17.5h163v-46q-94 -16 -187 -16q-102 0 -157.5 59.5zM239.5 664.5q-4.5 4.5 -4.5 11.5v78
q0 16 16 16h37q7 0 11 -4.5t4 -11.5v-78q0 -7 -4 -11.5t-11 -4.5h-37q-7 0 -11.5 4.5z" />
    <glyph glyph-name="d" unicode="d" horiz-adv-x="575" 
d="M103.5 59q-46.5 65 -46.5 204q0 100 20 161t64 89t118 28q76 0 164 -32v254h79v-763h-64l-15 54q-24 -21 -77 -40.5t-97 -19.5q-99 0 -145.5 65zM349.5 71.5q35.5 12.5 73.5 32.5v349q-47 14 -76.5 20t-66.5 6q-53 0 -84 -19.5t-45.5 -65.5t-14.5 -128q0 -112 31 -159.5
t105 -47.5q42 0 77.5 12.5z" />
    <glyph glyph-name="eth" unicode="&#xf0;" horiz-adv-x="577" 
d="M520 267q0 -109 -25 -168t-74.5 -82t-132.5 -23q-82 0 -132 23t-74.5 81.5t-24.5 165.5q0 108 25.5 166.5t73 80.5t123.5 22q52 0 89 -11.5t61 -38.5q-25 107 -86 162l-160 -62l-11 29l141 55q-61 40 -165 50v50q148 -9 231 -74l128 50l12 -30l-113 -44q57 -57 85.5 -155
t28.5 -245v-1v-1v0zM374.5 73.5q31.5 14.5 48.5 58.5t17 133q0 88 -16.5 132t-48.5 58t-87 14q-56 0 -87.5 -14t-48 -58t-16.5 -132q0 -89 16.5 -133t48 -58.5t87.5 -14.5q55 0 86.5 14.5z" />
    <glyph glyph-name="dcaron" unicode="&#x10f;" horiz-adv-x="575" 
d="M103.5 59q-46.5 65 -46.5 204q0 100 20 161t64 89t118 28q76 0 164 -32v254h79v-763h-64l-15 54q-24 -21 -77 -40.5t-97 -19.5q-99 0 -145.5 65zM349.5 71.5q35.5 12.5 73.5 32.5v349q-47 14 -76.5 20t-66.5 6q-53 0 -84 -19.5t-45.5 -65.5t-14.5 -128q0 -112 31 -159.5
t105 -47.5q42 0 77.5 12.5zM569 723v60h73v-60l-6 -141h-61z" />
    <glyph glyph-name="dcroat" unicode="&#x111;" horiz-adv-x="575" 
d="M571 629h-69v-629h-64l-15 54q-24 -21 -77 -40.5t-97 -19.5q-99 0 -145.5 65t-46.5 204q0 100 20 161t64 89t118 28q76 0 164 -32v120h-139v35h139v99h79v-99h69v-35zM423 453q-47 14 -76.5 20t-66.5 6q-53 0 -84 -19.5t-45.5 -65.5t-14.5 -128q0 -112 31 -159.5
t105 -47.5q42 0 77.5 12.5t73.5 32.5v349z" />
    <glyph glyph-name="uni1E0B" unicode="&#x1e0b;" horiz-adv-x="575" 
d="M103.5 59q-46.5 65 -46.5 204q0 100 20 161t64 89t118 28q76 0 164 -32v254h79v-763h-64l-15 54q-24 -21 -77 -40.5t-97 -19.5q-99 0 -145.5 65zM349.5 71.5q35.5 12.5 73.5 32.5v349q-47 14 -76.5 20t-66.5 6q-53 0 -84 -19.5t-45.5 -65.5t-14.5 -128q0 -112 31 -159.5
t105 -47.5q42 0 77.5 12.5zM432.5 864.5q-4.5 4.5 -4.5 11.5v78q0 16 16 16h37q7 0 11 -4.5t4 -11.5v-78q0 -7 -4 -11.5t-11 -4.5h-37q-7 0 -11.5 4.5z" />
    <glyph glyph-name="uni1E0D" unicode="&#x1e0d;" horiz-adv-x="575" 
d="M103.5 59q-46.5 65 -46.5 204q0 100 20 161t64 89t118 28q76 0 164 -32v254h79v-763h-64l-15 54q-24 -21 -77 -40.5t-97 -19.5q-99 0 -145.5 65zM349.5 71.5q35.5 12.5 73.5 32.5v349q-47 14 -76.5 20t-66.5 6q-53 0 -84 -19.5t-45.5 -65.5t-14.5 -128q0 -112 31 -159.5
t105 -47.5q42 0 77.5 12.5zM253.5 -205.5q-4.5 4.5 -4.5 11.5v78q0 16 16 16h37q7 0 11.5 -4.5t4.5 -11.5v-78q0 -7 -4.5 -11.5t-11.5 -4.5h-37q-7 0 -11.5 4.5z" />
    <glyph glyph-name="uni1E0F" unicode="&#x1e0f;" horiz-adv-x="575" 
d="M103.5 59q-46.5 65 -46.5 204q0 100 20 161t64 89t118 28q76 0 164 -32v254h79v-763h-64l-15 54q-24 -21 -77 -40.5t-97 -19.5q-99 0 -145.5 65zM349.5 71.5q35.5 12.5 73.5 32.5v349q-47 14 -76.5 20t-66.5 6q-53 0 -84 -19.5t-45.5 -65.5t-14.5 -128q0 -112 31 -159.5
t105 -47.5q42 0 77.5 12.5zM151 -141h265v-47h-265v47z" />
    <glyph glyph-name="e" unicode="e" horiz-adv-x="541" 
d="M146.5 19q-47.5 25 -68.5 84t-21 165q0 107 21.5 166t69.5 83t133 24q73 0 117 -16t65 -54.5t21 -106.5t-39.5 -98.5t-112.5 -30.5h-196q1 -69 14 -106.5t48 -55t101 -17.5h172v-48q-54 -7 -96 -10.5t-95 -3.5q-86 0 -133.5 25zM325 287q46 0 67 17t21 59
q0 67 -29.5 92.5t-102.5 25.5q-58 0 -89 -17t-44 -58t-13 -119h190z" />
    <glyph glyph-name="eacute" unicode="&#xe9;" horiz-adv-x="541" 
d="M146.5 19q-47.5 25 -68.5 84t-21 165q0 107 21.5 166t69.5 83t133 24q73 0 117 -16t65 -54.5t21 -106.5t-39.5 -98.5t-112.5 -30.5h-196q1 -69 14 -106.5t48 -55t101 -17.5h172v-48q-54 -7 -96 -10.5t-95 -3.5q-86 0 -133.5 25zM325 287q46 0 67 17t21 59
q0 67 -29.5 92.5t-102.5 25.5q-58 0 -89 -17t-44 -58t-13 -119h190zM342 767h67l-125 -136h-46z" />
    <glyph glyph-name="ebreve" unicode="&#x115;" horiz-adv-x="541" 
d="M146.5 19q-47.5 25 -68.5 84t-21 165q0 107 21.5 166t69.5 83t133 24q73 0 117 -16t65 -54.5t21 -106.5t-39.5 -98.5t-112.5 -30.5h-196q1 -69 14 -106.5t48 -55t101 -17.5h172v-48q-54 -7 -96 -10.5t-95 -3.5q-86 0 -133.5 25zM325 287q46 0 67 17t21 59
q0 67 -29.5 92.5t-102.5 25.5q-58 0 -89 -17t-44 -58t-13 -119h190zM168 663q-36 34 -36 107h39q0 -53 25 -78t64 -25q96 0 96 103h39q0 -75 -36 -108t-96 -33q-59 0 -95 34z" />
    <glyph glyph-name="ecaron" unicode="&#x11b;" horiz-adv-x="541" 
d="M146.5 19q-47.5 25 -68.5 84t-21 165q0 107 21.5 166t69.5 83t133 24q73 0 117 -16t65 -54.5t21 -106.5t-39.5 -98.5t-112.5 -30.5h-196q1 -69 14 -106.5t48 -55t101 -17.5h172v-48q-54 -7 -96 -10.5t-95 -3.5q-86 0 -133.5 25zM325 287q46 0 67 17t21 59
q0 67 -29.5 92.5t-102.5 25.5q-58 0 -89 -17t-44 -58t-13 -119h190zM130 766h48l92 -97l100 97h48l-121 -135h-56z" />
    <glyph glyph-name="uni1E1D" unicode="&#x1e1d;" horiz-adv-x="541" 
d="M168 663q-36 34 -36 107h39q0 -53 25 -78t64 -25q96 0 96 103h39q0 -75 -36 -108t-96 -33q-59 0 -95 34zM150 128.5q13 -37.5 48 -55t101 -17.5h172v-48q-52 -7 -92.5 -10.5t-89.5 -3.5l-32 -48q72 -4 72 -64q0 -34 -25 -53t-71 -19h-33v33l22 2q28 3 42 13.5t14 31.5
q0 19 -14.5 31t-51.5 13l40 61q-74 4 -116 31t-60.5 84.5t-18.5 157.5q0 107 21.5 166t69.5 83t133 24q73 0 117 -16t65 -54.5t21 -106.5t-39.5 -98.5t-112.5 -30.5h-196q1 -69 14 -106.5zM192 464q-31 -17 -44 -58t-13 -119h190q46 0 67 17t21 59q0 67 -29.5 92.5
t-102.5 25.5q-58 0 -89 -17z" />
    <glyph glyph-name="ecircumflex" unicode="&#xea;" horiz-adv-x="541" 
d="M146.5 19q-47.5 25 -68.5 84t-21 165q0 107 21.5 166t69.5 83t133 24q73 0 117 -16t65 -54.5t21 -106.5t-39.5 -98.5t-112.5 -30.5h-196q1 -69 14 -106.5t48 -55t101 -17.5h172v-48q-54 -7 -96 -10.5t-95 -3.5q-86 0 -133.5 25zM325 287q46 0 67 17t21 59
q0 67 -29.5 92.5t-102.5 25.5q-58 0 -89 -17t-44 -58t-13 -119h190zM245 766h56l110 -135h-48l-91 97l-100 -97h-49z" />
    <glyph glyph-name="uni1EBF" unicode="&#x1ebf;" horiz-adv-x="541" 
d="M146.5 19q-47.5 25 -68.5 84t-21 165q0 107 21.5 166t69.5 83t133 24q73 0 117 -16t65 -54.5t21 -106.5t-39.5 -98.5t-112.5 -30.5h-196q1 -69 14 -106.5t48 -55t101 -17.5h172v-48q-54 -7 -96 -10.5t-95 -3.5q-86 0 -133.5 25zM325 287q46 0 67 17t21 59
q0 67 -29.5 92.5t-102.5 25.5q-58 0 -89 -17t-44 -58t-13 -119h190zM509 837l-109 -129h-46l87 129h68zM301 729l110 -98h-48l-92 61l-100 -61h-48l121 98h57z" />
    <glyph glyph-name="uni1EC7" unicode="&#x1ec7;" horiz-adv-x="541" 
d="M146.5 19q-47.5 25 -68.5 84t-21 165q0 107 21.5 166t69.5 83t133 24q73 0 117 -16t65 -54.5t21 -106.5t-39.5 -98.5t-112.5 -30.5h-196q1 -69 14 -106.5t48 -55t101 -17.5h172v-48q-54 -7 -96 -10.5t-95 -3.5q-86 0 -133.5 25zM325 287q46 0 67 17t21 59
q0 67 -29.5 92.5t-102.5 25.5q-58 0 -89 -17t-44 -58t-13 -119h190zM245 766h56l110 -135h-48l-91 97l-100 -97h-49zM236.5 -205.5q-4.5 4.5 -4.5 11.5v78q0 16 16 16h37q7 0 11.5 -4.5t4.5 -11.5v-78q0 -7 -4.5 -11.5t-11.5 -4.5h-37q-7 0 -11.5 4.5z" />
    <glyph glyph-name="uni1EC1" unicode="&#x1ec1;" horiz-adv-x="541" 
d="M146.5 19q-47.5 25 -68.5 84t-21 165q0 107 21.5 166t69.5 83t133 24q73 0 117 -16t65 -54.5t21 -106.5t-39.5 -98.5t-112.5 -30.5h-196q1 -69 14 -106.5t48 -55t101 -17.5h172v-48q-54 -7 -96 -10.5t-95 -3.5q-86 0 -133.5 25zM325 287q46 0 67 17t21 59
q0 67 -29.5 92.5t-102.5 25.5q-58 0 -89 -17t-44 -58t-13 -119h190zM99 837l87 -129h-46l-109 129h68zM301 729l110 -98h-48l-92 61l-100 -61h-48l121 98h57z" />
    <glyph glyph-name="uni1EC3" unicode="&#x1ec3;" horiz-adv-x="541" 
d="M146.5 19q-47.5 25 -68.5 84t-21 165q0 107 21.5 166t69.5 83t133 24q73 0 117 -16t65 -54.5t21 -106.5t-39.5 -98.5t-112.5 -30.5h-196q1 -69 14 -106.5t48 -55t101 -17.5h172v-48q-54 -7 -96 -10.5t-95 -3.5q-86 0 -133.5 25zM325 287q46 0 67 17t21 59
q0 67 -29.5 92.5t-102.5 25.5q-58 0 -89 -17t-44 -58t-13 -119h190zM377 719q26 8 38 21.5t12 29.5q0 37 -42 37q-13 0 -35 -6v30q20 7 45 7q36 0 54 -17.5t18 -47.5t-22 -53.5t-68 -36.5v36zM244 729h57l110 -98h-48l-92 61l-100 -61h-48z" />
    <glyph glyph-name="uni1EC5" unicode="&#x1ec5;" horiz-adv-x="541" 
d="M146.5 19q-47.5 25 -68.5 84t-21 165q0 107 21.5 166t69.5 83t133 24q73 0 117 -16t65 -54.5t21 -106.5t-39.5 -98.5t-112.5 -30.5h-196q1 -69 14 -106.5t48 -55t101 -17.5h172v-48q-54 -7 -96 -10.5t-95 -3.5q-86 0 -133.5 25zM325 287q46 0 67 17t21 59
q0 67 -29.5 92.5t-102.5 25.5q-58 0 -89 -17t-44 -58t-13 -119h190zM226.5 853q17.5 -6 42.5 -17q40 -19 64 -19t39 11.5t15 32.5h40q-3 -85 -83 -85q-19 0 -36 5.5t-42 16.5q-23 10 -38.5 15t-30.5 5q-21 0 -34.5 -11t-13.5 -31h-41q2 45 25 64t57 19q19 0 36.5 -6z
M411 631h-48l-92 61l-100 -61h-48l121 98h57z" />
    <glyph glyph-name="uni0205" unicode="&#x205;" horiz-adv-x="541" 
d="M146.5 19q-47.5 25 -68.5 84t-21 165q0 107 21.5 166t69.5 83t133 24q73 0 117 -16t65 -54.5t21 -106.5t-39.5 -98.5t-112.5 -30.5h-196q1 -69 14 -106.5t48 -55t101 -17.5h172v-48q-54 -7 -96 -10.5t-95 -3.5q-86 0 -133.5 25zM325 287q46 0 67 17t21 59
q0 67 -29.5 92.5t-102.5 25.5q-58 0 -89 -17t-44 -58t-13 -119h190zM69 767h68l104 -136h-47zM215 767h68l104 -136h-47z" />
    <glyph glyph-name="edieresis" unicode="&#xeb;" horiz-adv-x="541" 
d="M146.5 19q-47.5 25 -68.5 84t-21 165q0 107 21.5 166t69.5 83t133 24q73 0 117 -16t65 -54.5t21 -106.5t-39.5 -98.5t-112.5 -30.5h-196q1 -69 14 -106.5t48 -55t101 -17.5h172v-48q-54 -7 -96 -10.5t-95 -3.5q-86 0 -133.5 25zM325 287q46 0 67 17t21 59
q0 67 -29.5 92.5t-102.5 25.5q-58 0 -89 -17t-44 -58t-13 -119h190zM141.5 657.5q-4.5 4.5 -4.5 11.5v78q0 16 16 16h36q16 0 16 -16v-78q0 -16 -16 -16h-36q-7 0 -11.5 4.5zM336.5 657.5q-4.5 4.5 -4.5 11.5v78q0 16 16 16h36q16 0 16 -16v-78q0 -16 -16 -16h-36
q-7 0 -11.5 4.5z" />
    <glyph glyph-name="edotaccent" unicode="&#x117;" horiz-adv-x="541" 
d="M146.5 19q-47.5 25 -68.5 84t-21 165q0 107 21.5 166t69.5 83t133 24q73 0 117 -16t65 -54.5t21 -106.5t-39.5 -98.5t-112.5 -30.5h-196q1 -69 14 -106.5t48 -55t101 -17.5h172v-48q-54 -7 -96 -10.5t-95 -3.5q-86 0 -133.5 25zM325 287q46 0 67 17t21 59
q0 67 -29.5 92.5t-102.5 25.5q-58 0 -89 -17t-44 -58t-13 -119h190zM239.5 664.5q-4.5 4.5 -4.5 11.5v78q0 16 16 16h37q7 0 11 -4.5t4 -11.5v-78q0 -7 -4 -11.5t-11 -4.5h-37q-7 0 -11.5 4.5z" />
    <glyph glyph-name="uni1EB9" unicode="&#x1eb9;" horiz-adv-x="541" 
d="M146.5 19q-47.5 25 -68.5 84t-21 165q0 107 21.5 166t69.5 83t133 24q73 0 117 -16t65 -54.5t21 -106.5t-39.5 -98.5t-112.5 -30.5h-196q1 -69 14 -106.5t48 -55t101 -17.5h172v-48q-54 -7 -96 -10.5t-95 -3.5q-86 0 -133.5 25zM325 287q46 0 67 17t21 59
q0 67 -29.5 92.5t-102.5 25.5q-58 0 -89 -17t-44 -58t-13 -119h190zM236.5 -205.5q-4.5 4.5 -4.5 11.5v78q0 16 16 16h37q7 0 11.5 -4.5t4.5 -11.5v-78q0 -7 -4.5 -11.5t-11.5 -4.5h-37q-7 0 -11.5 4.5z" />
    <glyph glyph-name="egrave" unicode="&#xe8;" horiz-adv-x="541" 
d="M146.5 19q-47.5 25 -68.5 84t-21 165q0 107 21.5 166t69.5 83t133 24q73 0 117 -16t65 -54.5t21 -106.5t-39.5 -98.5t-112.5 -30.5h-196q1 -69 14 -106.5t48 -55t101 -17.5h172v-48q-54 -7 -96 -10.5t-95 -3.5q-86 0 -133.5 25zM325 287q46 0 67 17t21 59
q0 67 -29.5 92.5t-102.5 25.5q-58 0 -89 -17t-44 -58t-13 -119h190zM141 767h67l104 -136h-46z" />
    <glyph glyph-name="uni1EBB" unicode="&#x1ebb;" horiz-adv-x="541" 
d="M146.5 19q-47.5 25 -68.5 84t-21 165q0 107 21.5 166t69.5 83t133 24q73 0 117 -16t65 -54.5t21 -106.5t-39.5 -98.5t-112.5 -30.5h-196q1 -69 14 -106.5t48 -55t101 -17.5h172v-48q-54 -7 -96 -10.5t-95 -3.5q-86 0 -133.5 25zM325 287q46 0 67 17t21 59
q0 67 -29.5 92.5t-102.5 25.5q-58 0 -89 -17t-44 -58t-13 -119h190zM252 640q56 17 56 59q0 44 -48 44q-18 0 -36 -6v34q18 6 46 6q41 0 61 -20.5t20 -56.5q0 -33 -24.5 -57.5t-74.5 -39.5v37z" />
    <glyph glyph-name="uni0207" unicode="&#x207;" horiz-adv-x="541" 
d="M146.5 19q-47.5 25 -68.5 84t-21 165q0 107 21.5 166t69.5 83t133 24q73 0 117 -16t65 -54.5t21 -106.5t-39.5 -98.5t-112.5 -30.5h-196q1 -69 14 -106.5t48 -55t101 -17.5h172v-48q-54 -7 -96 -10.5t-95 -3.5q-86 0 -133.5 25zM325 287q46 0 67 17t21 59
q0 67 -29.5 92.5t-102.5 25.5q-58 0 -89 -17t-44 -58t-13 -119h190zM363 737q36 -34 36 -107h-39q0 54 -25 78.5t-64 24.5q-96 0 -96 -103h-39q0 75 36 108t96 33q59 0 95 -34z" />
    <glyph glyph-name="emacron" unicode="&#x113;" horiz-adv-x="541" 
d="M146.5 19q-47.5 25 -68.5 84t-21 165q0 107 21.5 166t69.5 83t133 24q73 0 117 -16t65 -54.5t21 -106.5t-39.5 -98.5t-112.5 -30.5h-196q1 -69 14 -106.5t48 -55t101 -17.5h172v-48q-54 -7 -96 -10.5t-95 -3.5q-86 0 -133.5 25zM325 287q46 0 67 17t21 59
q0 67 -29.5 92.5t-102.5 25.5q-58 0 -89 -17t-44 -58t-13 -119h190zM135 719h265v-47h-265v47z" />
    <glyph glyph-name="uni1E17" unicode="&#x1e17;" horiz-adv-x="541" 
d="M146.5 19q-47.5 25 -68.5 84t-21 165q0 107 21.5 166t69.5 83t133 24q73 0 117 -16t65 -54.5t21 -106.5t-39.5 -98.5t-112.5 -30.5h-196q1 -69 14 -106.5t48 -55t101 -17.5h172v-48q-54 -7 -96 -10.5t-95 -3.5q-86 0 -133.5 25zM325 287q46 0 67 17t21 59
q0 67 -29.5 92.5t-102.5 25.5q-58 0 -89 -17t-44 -58t-13 -119h190zM135 719h265v-47h-265v47zM339 894h67l-125 -136h-46z" />
    <glyph glyph-name="uni1E15" unicode="&#x1e15;" horiz-adv-x="541" 
d="M146.5 19q-47.5 25 -68.5 84t-21 165q0 107 21.5 166t69.5 83t133 24q73 0 117 -16t65 -54.5t21 -106.5t-39.5 -98.5t-112.5 -30.5h-196q1 -69 14 -106.5t48 -55t101 -17.5h172v-48q-54 -7 -96 -10.5t-95 -3.5q-86 0 -133.5 25zM325 287q46 0 67 17t21 59
q0 67 -29.5 92.5t-102.5 25.5q-58 0 -89 -17t-44 -58t-13 -119h190zM135 719h265v-47h-265v47zM131 894h67l104 -136h-46z" />
    <glyph glyph-name="eogonek" unicode="&#x119;" horiz-adv-x="541" 
d="M496 -122v-38q-11 -3 -26 -3q-49 0 -77 25t-28 64q0 43 37 74q-55 -6 -122 -6q-86 0 -133.5 25t-68.5 84t-21 165q0 107 21.5 166t69.5 83t133 24q73 0 117 -16t65 -54.5t21 -106.5t-39.5 -98.5t-112.5 -30.5h-196q1 -69 14 -106.5t48 -55t101 -17.5h172v-48l-30 -4
q-34 -28 -34 -61q0 -30 22 -47.5t61 -17.5h6zM192 464q-31 -17 -44 -58t-13 -119h190q46 0 67 17t21 59q0 67 -29.5 92.5t-102.5 25.5q-58 0 -89 -17z" />
    <glyph glyph-name="uni1EBD" unicode="&#x1ebd;" horiz-adv-x="541" 
d="M146.5 19q-47.5 25 -68.5 84t-21 165q0 107 21.5 166t69.5 83t133 24q73 0 117 -16t65 -54.5t21 -106.5t-39.5 -98.5t-112.5 -30.5h-196q1 -69 14 -106.5t48 -55t101 -17.5h172v-48q-54 -7 -96 -10.5t-95 -3.5q-86 0 -133.5 25zM325 287q46 0 67 17t21 59
q0 67 -29.5 92.5t-102.5 25.5q-58 0 -89 -17t-44 -58t-13 -119h190zM135 728q28 26 67 26q23 0 41.5 -8.5t45.5 -24.5q21 -14 36.5 -21t31.5 -7q26 0 43 16.5t18 46.5h40q-1 -51 -26 -80t-70 -29q-21 0 -39.5 8t-45.5 25q-23 14 -39 21.5t-32 7.5q-25 0 -41.5 -16t-17.5 -46
h-41q1 55 29 81z" />
    <glyph glyph-name="uni0259" unicode="&#x259;" horiz-adv-x="541" 
d="M394.5 516q47.5 -25 68.5 -84t21 -165q0 -107 -21.5 -166t-69.5 -83t-133 -24q-73 0 -117 16t-65 54.5t-21 106.5t39.5 98.5t112.5 30.5h196q-1 69 -14 106.5t-48 55t-101 17.5h-172v48q54 7 96 10.5t95 3.5q86 0 133.5 -25zM216 248q-46 0 -67 -17t-21 -59
q0 -67 29.5 -92.5t102.5 -25.5q58 0 89 17t44 58t13 119h-190z" />
    <glyph glyph-name="f" unicode="f" horiz-adv-x="368" 
d="M105 469h-82v51l82 14v61q0 89 34.5 131.5t118.5 42.5q51 0 103 -10v-56h-89q-51 0 -69.5 -24.5t-18.5 -79.5v-65h166v-65h-166v-469h-79v469z" />
    <glyph glyph-name="uni1E1F" unicode="&#x1e1f;" horiz-adv-x="368" 
d="M105 469h-82v51l82 14v61q0 89 34.5 131.5t118.5 42.5q51 0 103 -10v-56h-89q-51 0 -69.5 -24.5t-18.5 -79.5v-65h166v-65h-166v-469h-79v469zM229.5 874.5q-4.5 4.5 -4.5 11.5v78q0 16 16 16h37q7 0 11 -4.5t4 -11.5v-78q0 -7 -4 -11.5t-11 -4.5h-37q-7 0 -11.5 4.5z
" />
    <glyph glyph-name="g" unicode="g" horiz-adv-x="576" 
d="M553 490l-120 -10q20 -13 33.5 -26.5t24 -41t10.5 -69.5q0 -70 -45 -116t-144 -46h-85q-45 0 -68 -13t-23 -44q0 -22 16.5 -33t39.5 -11h177q93 0 138.5 -36t45.5 -111v-22q0 -74 -50.5 -115t-146.5 -41h-149q-81 0 -128.5 33.5t-47.5 98.5v24q0 44 24 75t63 48
q-25 12 -38 32.5t-13 46.5q0 76 90 95q-52 21 -73.5 62.5t-21.5 92.5q0 172 206 172h285v-45zM401.5 272q27.5 30 27.5 80q0 121 -116 121h-57q-60 0 -91 -26.5t-31 -87.5q0 -117 110 -117h60q70 0 97.5 30zM221 18q-48 0 -81.5 -23.5t-33.5 -70.5v-22q0 -89 119 -89h124
q62 0 95.5 23.5t33.5 71.5v20q0 43 -27 66.5t-92 23.5h-138z" />
    <glyph glyph-name="gbreve" unicode="&#x11f;" horiz-adv-x="576" 
d="M553 490l-120 -10q20 -13 33.5 -26.5t24 -41t10.5 -69.5q0 -70 -45 -116t-144 -46h-85q-45 0 -68 -13t-23 -44q0 -22 16.5 -33t39.5 -11h177q93 0 138.5 -36t45.5 -111v-22q0 -74 -50.5 -115t-146.5 -41h-149q-81 0 -128.5 33.5t-47.5 98.5v24q0 44 24 75t63 48
q-25 12 -38 32.5t-13 46.5q0 76 90 95q-52 21 -73.5 62.5t-21.5 92.5q0 172 206 172h285v-45zM401.5 272q27.5 30 27.5 80q0 121 -116 121h-57q-60 0 -91 -26.5t-31 -87.5q0 -117 110 -117h60q70 0 97.5 30zM221 18q-48 0 -81.5 -23.5t-33.5 -70.5v-22q0 -89 119 -89h124
q62 0 95.5 23.5t33.5 71.5v20q0 43 -27 66.5t-92 23.5h-138zM187 663q-36 34 -36 107h39q0 -53 25 -78t64 -25q96 0 96 103h39q0 -75 -36 -108t-96 -33q-59 0 -95 34z" />
    <glyph glyph-name="gcaron" unicode="&#x1e7;" horiz-adv-x="576" 
d="M553 490l-120 -10q20 -13 33.5 -26.5t24 -41t10.5 -69.5q0 -70 -45 -116t-144 -46h-85q-45 0 -68 -13t-23 -44q0 -22 16.5 -33t39.5 -11h177q93 0 138.5 -36t45.5 -111v-22q0 -74 -50.5 -115t-146.5 -41h-149q-81 0 -128.5 33.5t-47.5 98.5v24q0 44 24 75t63 48
q-25 12 -38 32.5t-13 46.5q0 76 90 95q-52 21 -73.5 62.5t-21.5 92.5q0 172 206 172h285v-45zM401.5 272q27.5 30 27.5 80q0 121 -116 121h-57q-60 0 -91 -26.5t-31 -87.5q0 -117 110 -117h60q70 0 97.5 30zM221 18q-48 0 -81.5 -23.5t-33.5 -70.5v-22q0 -89 119 -89h124
q62 0 95.5 23.5t33.5 71.5v20q0 43 -27 66.5t-92 23.5h-138zM149 766h48l92 -97l100 97h48l-121 -135h-56z" />
    <glyph glyph-name="gcircumflex" unicode="&#x11d;" horiz-adv-x="576" 
d="M553 490l-120 -10q20 -13 33.5 -26.5t24 -41t10.5 -69.5q0 -70 -45 -116t-144 -46h-85q-45 0 -68 -13t-23 -44q0 -22 16.5 -33t39.5 -11h177q93 0 138.5 -36t45.5 -111v-22q0 -74 -50.5 -115t-146.5 -41h-149q-81 0 -128.5 33.5t-47.5 98.5v24q0 44 24 75t63 48
q-25 12 -38 32.5t-13 46.5q0 76 90 95q-52 21 -73.5 62.5t-21.5 92.5q0 172 206 172h285v-45zM401.5 272q27.5 30 27.5 80q0 121 -116 121h-57q-60 0 -91 -26.5t-31 -87.5q0 -117 110 -117h60q70 0 97.5 30zM221 18q-48 0 -81.5 -23.5t-33.5 -70.5v-22q0 -89 119 -89h124
q62 0 95.5 23.5t33.5 71.5v20q0 43 -27 66.5t-92 23.5h-138zM264 766h56l110 -135h-48l-91 97l-100 -97h-49z" />
    <glyph glyph-name="gcommaaccent" unicode="&#x123;" horiz-adv-x="576" 
d="M553 490l-120 -10q20 -13 33.5 -26.5t24 -41t10.5 -69.5q0 -70 -45 -116t-144 -46h-85q-45 0 -68 -13t-23 -44q0 -22 16.5 -33t39.5 -11h177q93 0 138.5 -36t45.5 -111v-22q0 -74 -50.5 -115t-146.5 -41h-149q-81 0 -128.5 33.5t-47.5 98.5v24q0 44 24 75t63 48
q-25 12 -38 32.5t-13 46.5q0 76 90 95q-52 21 -73.5 62.5t-21.5 92.5q0 172 206 172h285v-45zM401.5 272q27.5 30 27.5 80q0 121 -116 121h-57q-60 0 -91 -26.5t-31 -87.5q0 -117 110 -117h60q70 0 97.5 30zM221 18q-48 0 -81.5 -23.5t-33.5 -70.5v-22q0 -89 119 -89h124
q62 0 95.5 23.5t33.5 71.5v20q0 43 -27 66.5t-92 23.5h-138zM245 696.5q9 29.5 32.5 43t67.5 13.5h38v-32l-30 -5q-26 -4 -40 -11.5t-21 -28.5t-7 -62h-49q0 53 9 82.5z" />
    <glyph glyph-name="gdotaccent" unicode="&#x121;" horiz-adv-x="576" 
d="M553 490l-120 -10q20 -13 33.5 -26.5t24 -41t10.5 -69.5q0 -70 -45 -116t-144 -46h-85q-45 0 -68 -13t-23 -44q0 -22 16.5 -33t39.5 -11h177q93 0 138.5 -36t45.5 -111v-22q0 -74 -50.5 -115t-146.5 -41h-149q-81 0 -128.5 33.5t-47.5 98.5v24q0 44 24 75t63 48
q-25 12 -38 32.5t-13 46.5q0 76 90 95q-52 21 -73.5 62.5t-21.5 92.5q0 172 206 172h285v-45zM401.5 272q27.5 30 27.5 80q0 121 -116 121h-57q-60 0 -91 -26.5t-31 -87.5q0 -117 110 -117h60q70 0 97.5 30zM221 18q-48 0 -81.5 -23.5t-33.5 -70.5v-22q0 -89 119 -89h124
q62 0 95.5 23.5t33.5 71.5v20q0 43 -27 66.5t-92 23.5h-138zM258.5 664.5q-4.5 4.5 -4.5 11.5v78q0 16 16 16h37q7 0 11 -4.5t4 -11.5v-78q0 -7 -4 -11.5t-11 -4.5h-37q-7 0 -11.5 4.5z" />
    <glyph glyph-name="uni1E21" unicode="&#x1e21;" horiz-adv-x="576" 
d="M553 490l-120 -10q20 -13 33.5 -26.5t24 -41t10.5 -69.5q0 -70 -45 -116t-144 -46h-85q-45 0 -68 -13t-23 -44q0 -22 16.5 -33t39.5 -11h177q93 0 138.5 -36t45.5 -111v-22q0 -74 -50.5 -115t-146.5 -41h-149q-81 0 -128.5 33.5t-47.5 98.5v24q0 44 24 75t63 48
q-25 12 -38 32.5t-13 46.5q0 76 90 95q-52 21 -73.5 62.5t-21.5 92.5q0 172 206 172h285v-45zM401.5 272q27.5 30 27.5 80q0 121 -116 121h-57q-60 0 -91 -26.5t-31 -87.5q0 -117 110 -117h60q70 0 97.5 30zM221 18q-48 0 -81.5 -23.5t-33.5 -70.5v-22q0 -89 119 -89h124
q62 0 95.5 23.5t33.5 71.5v20q0 43 -27 66.5t-92 23.5h-138zM154 719h265v-47h-265v47z" />
    <glyph glyph-name="h" unicode="h" horiz-adv-x="588" 
d="M76 763h79v-288q41 29 92.5 48.5t103.5 19.5q81 0 122.5 -50t41.5 -129v-364h-79v355q0 51 -30 83.5t-81 32.5q-48 0 -85.5 -12.5t-84.5 -39.5v-419h-79v763z" />
    <glyph glyph-name="hbar" unicode="&#x127;" horiz-adv-x="588" 
d="M473.5 493q41.5 -50 41.5 -129v-364h-79v355q0 51 -30 83.5t-81 32.5q-48 0 -85.5 -12.5t-84.5 -39.5v-419h-79v629h-72v35h72v99h79v-99h136v-35h-136v-154q41 29 92.5 48.5t103.5 19.5q81 0 122.5 -50z" />
    <glyph glyph-name="uni1E2B" unicode="&#x1e2b;" horiz-adv-x="588" 
d="M76 763h79v-288q41 29 92.5 48.5t103.5 19.5q81 0 122.5 -50t41.5 -129v-364h-79v355q0 51 -30 83.5t-81 32.5q-48 0 -85.5 -12.5t-84.5 -39.5v-419h-79v763zM196 -187q-36 34 -36 107h39q0 -54 24.5 -78.5t64.5 -24.5q96 0 96 103h39q0 -75 -36 -108t-96 -33
q-59 0 -95 34z" />
    <glyph glyph-name="hcircumflex" unicode="&#x125;" horiz-adv-x="588" 
d="M76 763h79v-288q41 29 92.5 48.5t103.5 19.5q81 0 122.5 -50t41.5 -129v-364h-79v355q0 51 -30 83.5t-81 32.5q-48 0 -85.5 -12.5t-84.5 -39.5v-419h-79v763zM138 946h56l110 -135h-48l-91 97l-100 -97h-49z" />
    <glyph glyph-name="uni1E25" unicode="&#x1e25;" horiz-adv-x="588" 
d="M76 763h79v-288q41 29 92.5 48.5t103.5 19.5q81 0 122.5 -50t41.5 -129v-364h-79v355q0 51 -30 83.5t-81 32.5q-48 0 -85.5 -12.5t-84.5 -39.5v-419h-79v763zM261.5 -205.5q-4.5 4.5 -4.5 11.5v78q0 16 16 16h37q7 0 11.5 -4.5t4.5 -11.5v-78q0 -7 -4.5 -11.5t-11.5 -4.5
h-37q-7 0 -11.5 4.5z" />
    <glyph glyph-name="i" unicode="i" horiz-adv-x="231" 
d="M76.5 633.5q-4.5 4.5 -4.5 11.5v78q0 16 16 16h56q15 0 15 -16v-78q0 -16 -15 -16h-56q-7 0 -11.5 4.5zM76 534h79v-534h-79v534z" />
    <glyph glyph-name="dotlessi" unicode="&#x131;" horiz-adv-x="228" 
d="M76 534h79v-534h-79v534z" />
    <glyph glyph-name="iacute" unicode="&#xed;" horiz-adv-x="228" 
d="M76 534h79v-534h-79v534zM187 767h67l-125 -136h-46z" />
    <glyph glyph-name="ibreve" unicode="&#x12d;" horiz-adv-x="228" 
d="M76 534h79v-534h-79v534zM13 663q-36 34 -36 107h39q0 -53 25 -78t64 -25q96 0 96 103h39q0 -75 -36 -108t-96 -33q-59 0 -95 34z" />
    <glyph glyph-name="icircumflex" unicode="&#xee;" horiz-adv-x="228" 
d="M76 534h79v-534h-79v534zM90 766h56l110 -135h-48l-91 97l-100 -97h-49z" />
    <glyph glyph-name="uni0209" unicode="&#x209;" horiz-adv-x="228" 
d="M76 534h79v-534h-79v534zM-86 767h68l104 -136h-47zM60 767h68l104 -136h-47z" />
    <glyph glyph-name="idieresis" unicode="&#xef;" horiz-adv-x="228" 
d="M76 534h79v-534h-79v534zM-13.5 657.5q-4.5 4.5 -4.5 11.5v78q0 16 16 16h36q16 0 16 -16v-78q0 -16 -16 -16h-36q-7 0 -11.5 4.5zM181.5 657.5q-4.5 4.5 -4.5 11.5v78q0 16 16 16h36q16 0 16 -16v-78q0 -16 -16 -16h-36q-7 0 -11.5 4.5z" />
    <glyph glyph-name="uni1E2F" unicode="&#x1e2f;" horiz-adv-x="228" 
d="M76 534h79v-534h-79v534zM-13.5 657.5q-4.5 4.5 -4.5 11.5v78q0 16 16 16h36q16 0 16 -16v-78q0 -16 -16 -16h-36q-7 0 -11.5 4.5zM181.5 657.5q-4.5 4.5 -4.5 11.5v78q0 16 16 16h36q16 0 16 -16v-78q0 -16 -16 -16h-36q-7 0 -11.5 4.5zM184 933h67l-125 -136h-46z" />
    <glyph glyph-name="i.loclTRK" horiz-adv-x="228" 
d="M76 534h79v-534h-79v534zM84.5 664.5q-4.5 4.5 -4.5 11.5v78q0 16 16 16h37q7 0 11 -4.5t4 -11.5v-78q0 -7 -4 -11.5t-11 -4.5h-37q-7 0 -11.5 4.5z" />
    <glyph glyph-name="uni1ECB" unicode="&#x1ecb;" horiz-adv-x="231" 
d="M76.5 633.5q-4.5 4.5 -4.5 11.5v78q0 16 16 16h56q15 0 15 -16v-78q0 -16 -15 -16h-56q-7 0 -11.5 4.5zM76 534h79v-534h-79v534zM81.5 -205.5q-4.5 4.5 -4.5 11.5v78q0 16 16 16h37q7 0 11.5 -4.5t4.5 -11.5v-78q0 -7 -4.5 -11.5t-11.5 -4.5h-37q-7 0 -11.5 4.5z" />
    <glyph glyph-name="igrave" unicode="&#xec;" horiz-adv-x="228" 
d="M76 534h79v-534h-79v534zM-14 767h67l104 -136h-46z" />
    <glyph glyph-name="uni1EC9" unicode="&#x1ec9;" horiz-adv-x="228" 
d="M76 534h79v-534h-79v534zM97 640q56 17 56 59q0 44 -48 44q-18 0 -36 -6v34q18 6 46 6q41 0 61 -20.5t20 -56.5q0 -33 -24.5 -57.5t-74.5 -39.5v37z" />
    <glyph glyph-name="uni020B" unicode="&#x20b;" horiz-adv-x="228" 
d="M76 534h79v-534h-79v534zM208 737q36 -34 36 -107h-39q0 54 -25 78.5t-64 24.5q-96 0 -96 -103h-39q0 75 36 108t96 33q59 0 95 -34z" />
    <glyph glyph-name="imacron" unicode="&#x12b;" horiz-adv-x="228" 
d="M76 534h79v-534h-79v534zM-20 719h265v-47h-265v47z" />
    <glyph glyph-name="iogonek" unicode="&#x12f;" horiz-adv-x="231" 
d="M76.5 633.5q-4.5 4.5 -4.5 11.5v78q0 16 16 16h56q15 0 15 -16v-78q0 -16 -15 -16h-56q-7 0 -11.5 4.5zM76 534h79v-534h-79v534zM78 -162q-28 25 -28 64q0 30 19 55t56 43h30q-63 -35 -63 -81q0 -30 22 -47.5t61 -17.5h6v-38q-11 -3 -26 -3q-49 0 -77 25z" />
    <glyph glyph-name="itilde" unicode="&#x129;" horiz-adv-x="228" 
d="M76 534h79v-534h-79v534zM-20 728q28 26 67 26q23 0 41.5 -8.5t45.5 -24.5q21 -14 36.5 -21t31.5 -7q26 0 43 16.5t18 46.5h40q-1 -51 -26 -80t-70 -29q-21 0 -39.5 8t-45.5 25q-23 14 -39 21.5t-32 7.5q-25 0 -41.5 -16t-17.5 -46h-41q1 55 29 81z" />
    <glyph glyph-name="j" unicode="j" horiz-adv-x="231" 
d="M75.5 633.5q-4.5 4.5 -4.5 11.5v78q0 16 16 16h57q7 0 11 -4.5t4 -11.5v-78q0 -7 -4 -11.5t-11 -4.5h-57q-7 0 -11.5 4.5zM76 534h79v-517q0 -69 -5.5 -137t-14.5 -117h-59v771z" />
    <glyph glyph-name="uni0237" unicode="&#x237;" horiz-adv-x="231" 
d="M76 534h79v-517q0 -69 -5.5 -137t-14.5 -117h-59v771z" />
    <glyph glyph-name="jcircumflex" unicode="&#x135;" horiz-adv-x="231" 
d="M76 534h79v-517q0 -69 -5.5 -137t-14.5 -117h-59v771zM90 766h56l110 -135h-48l-91 97l-100 -97h-49z" />
    <glyph glyph-name="k" unicode="k" horiz-adv-x="506" 
d="M76 763h79v-442h76l163 213h84l-188 -249l200 -285h-84l-178 250h-73v-250h-79v763z" />
    <glyph glyph-name="kcommaaccent" unicode="&#x137;" horiz-adv-x="506" 
d="M76 763h79v-442h76l163 213h84l-188 -249l200 -285h-84l-178 250h-73v-250h-79v763zM174 -170l30 5q26 4 40 11.5t21 28.5t7 62h49q0 -52 -9 -81.5t-32.5 -43.5t-67.5 -14h-38v32z" />
    <glyph glyph-name="kgreenlandic" unicode="&#x138;" horiz-adv-x="506" 
d="M76 540h79v-223h74l163 217h86l-188 -254l200 -280h-85l-176 245h-74v-245h-79v540z" />
    <glyph glyph-name="l" unicode="l" horiz-adv-x="294" 
d="M110.5 38q-34.5 39 -34.5 133v592h79v-582q0 -66 18 -90t57 -29l54 -6v-57h-68q-71 0 -105.5 39z" />
    <glyph glyph-name="lacute" unicode="&#x13a;" horiz-adv-x="294" 
d="M110.5 38q-34.5 39 -34.5 133v592h79v-582q0 -66 18 -90t57 -29l54 -6v-57h-68q-71 0 -105.5 39zM187 1001h67l-125 -136h-46z" />
    <glyph glyph-name="lcaron" unicode="&#x13e;" horiz-adv-x="294" 
d="M110.5 38q-34.5 39 -34.5 133v592h79v-582q0 -66 18 -90t57 -29l54 -6v-57h-68q-71 0 -105.5 39zM222 723v60h73v-60l-6 -141h-61z" />
    <glyph glyph-name="lcommaaccent" unicode="&#x13c;" horiz-adv-x="294" 
d="M110.5 38q-34.5 39 -34.5 133v592h79v-582q0 -66 18 -90t57 -29l54 -6v-57h-68q-71 0 -105.5 39zM83 -170l30 5q26 4 40 11.5t21 28.5t7 62h49q0 -52 -9 -81.5t-32.5 -43.5t-67.5 -14h-38v32z" />
    <glyph glyph-name="ldot" unicode="&#x140;" horiz-adv-x="322" 
d="M110.5 38q-34.5 39 -34.5 133v592h79v-582q0 -66 18 -90t57 -29l54 -6v-57h-68q-71 0 -105.5 39zM243.5 343q-4.5 4 -4.5 11v47q0 16 16 16h44q17 0 17 -16v-47q0 -15 -17 -15h-44q-7 0 -11.5 4z" />
    <glyph glyph-name="uni1E37" unicode="&#x1e37;" horiz-adv-x="294" 
d="M110.5 38q-34.5 39 -34.5 133v592h79v-582q0 -66 18 -90t57 -29l54 -6v-57h-68q-71 0 -105.5 39zM132.5 -205.5q-4.5 4.5 -4.5 11.5v78q0 16 16 16h37q7 0 11.5 -4.5t4.5 -11.5v-78q0 -7 -4.5 -11.5t-11.5 -4.5h-37q-7 0 -11.5 4.5z" />
    <glyph glyph-name="uni1E3B" unicode="&#x1e3b;" horiz-adv-x="294" 
d="M110.5 38q-34.5 39 -34.5 133v592h79v-582q0 -66 18 -90t57 -29l54 -6v-57h-68q-71 0 -105.5 39zM30 -141h265v-47h-265v47z" />
    <glyph glyph-name="lslash" unicode="&#x142;" horiz-adv-x="294" 
d="M284 56v-57h-68q-71 0 -105.5 39t-34.5 133v212l-73 -27v47l73 27v333h79v-307l102 36v-47l-102 -36v-228q0 -66 18 -90t57 -29z" />
    <glyph glyph-name="m" unicode="m" horiz-adv-x="948" 
d="M76 534h62l17 -59q100 68 200 68q48 0 83.5 -21.5t55.5 -57.5q42 31 102.5 55t112.5 24q83 0 125 -51t42 -132v-360h-79v354q0 52 -30.5 84.5t-82.5 32.5q-43 0 -89.5 -16t-89.5 -42q10 -32 10 -60v-353h-79v354q0 52 -29.5 84.5t-81.5 32.5q-48 0 -85.5 -12.5
t-84.5 -39.5v-419h-79v534z" />
    <glyph glyph-name="uni1E41" unicode="&#x1e41;" horiz-adv-x="948" 
d="M76 534h62l17 -59q100 68 200 68q48 0 83.5 -21.5t55.5 -57.5q42 31 102.5 55t112.5 24q83 0 125 -51t42 -132v-360h-79v354q0 52 -30.5 84.5t-82.5 32.5q-43 0 -89.5 -16t-89.5 -42q10 -32 10 -60v-353h-79v354q0 52 -29.5 84.5t-81.5 32.5q-48 0 -85.5 -12.5
t-84.5 -39.5v-419h-79v534zM449.5 664.5q-4.5 4.5 -4.5 11.5v78q0 16 16 16h37q7 0 11 -4.5t4 -11.5v-78q0 -7 -4 -11.5t-11 -4.5h-37q-7 0 -11.5 4.5z" />
    <glyph glyph-name="uni1E43" unicode="&#x1e43;" horiz-adv-x="948" 
d="M76 534h62l17 -59q100 68 200 68q48 0 83.5 -21.5t55.5 -57.5q42 31 102.5 55t112.5 24q83 0 125 -51t42 -132v-360h-79v354q0 52 -30.5 84.5t-82.5 32.5q-43 0 -89.5 -16t-89.5 -42q10 -32 10 -60v-353h-79v354q0 52 -29.5 84.5t-81.5 32.5q-48 0 -85.5 -12.5
t-84.5 -39.5v-419h-79v534zM440.5 -205.5q-4.5 4.5 -4.5 11.5v78q0 16 16 16h37q7 0 11.5 -4.5t4.5 -11.5v-78q0 -7 -4.5 -11.5t-11.5 -4.5h-37q-7 0 -11.5 4.5z" />
    <glyph glyph-name="n" unicode="n" horiz-adv-x="588" 
d="M76 534h62l17 -59q42 29 93 48.5t102 19.5q83 0 124 -51t41 -129v-363h-79v354q0 52 -29.5 84.5t-81.5 32.5q-48 0 -85.5 -12.5t-84.5 -39.5v-419h-79v534z" />
    <glyph glyph-name="nacute" unicode="&#x144;" horiz-adv-x="588" 
d="M76 534h62l17 -59q42 29 93 48.5t102 19.5q83 0 124 -51t41 -129v-363h-79v354q0 52 -29.5 84.5t-81.5 32.5q-48 0 -85.5 -12.5t-84.5 -39.5v-419h-79v534zM365 767h67l-125 -136h-46z" />
    <glyph glyph-name="ncaron" unicode="&#x148;" horiz-adv-x="588" 
d="M76 534h62l17 -59q42 29 93 48.5t102 19.5q83 0 124 -51t41 -129v-363h-79v354q0 52 -29.5 84.5t-81.5 32.5q-48 0 -85.5 -12.5t-84.5 -39.5v-419h-79v534zM153 766h48l92 -97l100 97h48l-121 -135h-56z" />
    <glyph glyph-name="ncommaaccent" unicode="&#x146;" horiz-adv-x="588" 
d="M76 534h62l17 -59q42 29 93 48.5t102 19.5q83 0 124 -51t41 -129v-363h-79v354q0 52 -29.5 84.5t-81.5 32.5q-48 0 -85.5 -12.5t-84.5 -39.5v-419h-79v534zM211 -170l30 5q26 4 40 11.5t21 28.5t7 62h49q0 -52 -9 -81.5t-32.5 -43.5t-67.5 -14h-38v32z" />
    <glyph glyph-name="uni1E45" unicode="&#x1e45;" horiz-adv-x="588" 
d="M76 534h62l17 -59q42 29 93 48.5t102 19.5q83 0 124 -51t41 -129v-363h-79v354q0 52 -29.5 84.5t-81.5 32.5q-48 0 -85.5 -12.5t-84.5 -39.5v-419h-79v534zM259.5 -205.5q-4.5 4.5 -4.5 11.5v78q0 16 16 16h37q7 0 11.5 -4.5t4.5 -11.5v-78q0 -7 -4.5 -11.5t-11.5 -4.5
h-37q-7 0 -11.5 4.5z" />
    <glyph glyph-name="uni1E47" unicode="&#x1e47;" horiz-adv-x="588" 
d="M76 534h62l17 -59q42 29 93 48.5t102 19.5q83 0 124 -51t41 -129v-363h-79v354q0 52 -29.5 84.5t-81.5 32.5q-48 0 -85.5 -12.5t-84.5 -39.5v-419h-79v534zM259.5 -205.5q-4.5 4.5 -4.5 11.5v78q0 16 16 16h37q7 0 11.5 -4.5t4.5 -11.5v-78q0 -7 -4.5 -11.5t-11.5 -4.5
h-37q-7 0 -11.5 4.5z" />
    <glyph glyph-name="eng" unicode="&#x14b;" horiz-adv-x="588" 
d="M474 492q41 -51 41 -129v-364q0 -166 -129 -236h-64q54 41 84 96t30 138v357q0 52 -29.5 84.5t-81.5 32.5q-48 0 -85.5 -12.5t-84.5 -39.5v-419h-79v534h62l17 -59q42 29 93 48.5t102 19.5q83 0 124 -51z" />
    <glyph glyph-name="uni1E49" unicode="&#x1e49;" horiz-adv-x="588" 
d="M76 534h62l17 -59q42 29 93 48.5t102 19.5q83 0 124 -51t41 -129v-363h-79v354q0 52 -29.5 84.5t-81.5 32.5q-48 0 -85.5 -12.5t-84.5 -39.5v-419h-79v534zM157 -141h265v-47h-265v47z" />
    <glyph glyph-name="ntilde" unicode="&#xf1;" horiz-adv-x="588" 
d="M76 534h62l17 -59q42 29 93 48.5t102 19.5q83 0 124 -51t41 -129v-363h-79v354q0 52 -29.5 84.5t-81.5 32.5q-48 0 -85.5 -12.5t-84.5 -39.5v-419h-79v534zM158 728q28 26 67 26q23 0 41.5 -8.5t45.5 -24.5q21 -14 36.5 -21t31.5 -7q26 0 43 16.5t18 46.5h40
q-1 -51 -26 -80t-70 -29q-21 0 -39.5 8t-45.5 25q-23 14 -39 21.5t-32 7.5q-25 0 -41.5 -16t-17.5 -46h-41q1 55 29 81z" />
    <glyph glyph-name="o" unicode="o" horiz-adv-x="577" 
d="M156 17q-50 23 -74.5 82.5t-24.5 168.5q0 110 25 169.5t74 81.5t132 22q82 0 132 -22.5t75 -82t25 -168.5t-25 -168.5t-74.5 -82.5t-132.5 -23q-82 0 -132 23zM374.5 73.5q31.5 14.5 48.5 59.5t17 135t-16.5 134.5t-48.5 59t-87 14.5q-56 0 -87.5 -14.5t-48 -59
t-16.5 -134.5t16.5 -135t48 -59.5t87.5 -14.5q55 0 86.5 14.5z" />
    <glyph glyph-name="oacute" unicode="&#xf3;" horiz-adv-x="577" 
d="M156 17q-50 23 -74.5 82.5t-24.5 168.5q0 110 25 169.5t74 81.5t132 22q82 0 132 -22.5t75 -82t25 -168.5t-25 -168.5t-74.5 -82.5t-132.5 -23q-82 0 -132 23zM374.5 73.5q31.5 14.5 48.5 59.5t17 135t-16.5 134.5t-48.5 59t-87 14.5q-56 0 -87.5 -14.5t-48 -59
t-16.5 -134.5t16.5 -135t48 -59.5t87.5 -14.5q55 0 86.5 14.5zM360 767h67l-125 -136h-46z" />
    <glyph glyph-name="obreve" unicode="&#x14f;" horiz-adv-x="577" 
d="M156 17q-50 23 -74.5 82.5t-24.5 168.5q0 110 25 169.5t74 81.5t132 22q82 0 132 -22.5t75 -82t25 -168.5t-25 -168.5t-74.5 -82.5t-132.5 -23q-82 0 -132 23zM374.5 73.5q31.5 14.5 48.5 59.5t17 135t-16.5 134.5t-48.5 59t-87 14.5q-56 0 -87.5 -14.5t-48 -59
t-16.5 -134.5t16.5 -135t48 -59.5t87.5 -14.5q55 0 86.5 14.5zM186 663q-36 34 -36 107h39q0 -53 25 -78t64 -25q96 0 96 103h39q0 -75 -36 -108t-96 -33q-59 0 -95 34z" />
    <glyph glyph-name="ocircumflex" unicode="&#xf4;" horiz-adv-x="577" 
d="M156 17q-50 23 -74.5 82.5t-24.5 168.5q0 110 25 169.5t74 81.5t132 22q82 0 132 -22.5t75 -82t25 -168.5t-25 -168.5t-74.5 -82.5t-132.5 -23q-82 0 -132 23zM374.5 73.5q31.5 14.5 48.5 59.5t17 135t-16.5 134.5t-48.5 59t-87 14.5q-56 0 -87.5 -14.5t-48 -59
t-16.5 -134.5t16.5 -135t48 -59.5t87.5 -14.5q55 0 86.5 14.5zM263 766h56l110 -135h-48l-91 97l-100 -97h-49z" />
    <glyph glyph-name="uni1ED1" unicode="&#x1ed1;" horiz-adv-x="577" 
d="M156 17q-50 23 -74.5 82.5t-24.5 168.5q0 110 25 169.5t74 81.5t132 22q82 0 132 -22.5t75 -82t25 -168.5t-25 -168.5t-74.5 -82.5t-132.5 -23q-82 0 -132 23zM374.5 73.5q31.5 14.5 48.5 59.5t17 135t-16.5 134.5t-48.5 59t-87 14.5q-56 0 -87.5 -14.5t-48 -59
t-16.5 -134.5t16.5 -135t48 -59.5t87.5 -14.5q55 0 86.5 14.5zM527 837l-109 -129h-46l87 129h68zM319 729l110 -98h-48l-92 61l-100 -61h-48l121 98h57z" />
    <glyph glyph-name="uni1ED9" unicode="&#x1ed9;" horiz-adv-x="577" 
d="M156 17q-50 23 -74.5 82.5t-24.5 168.5q0 110 25 169.5t74 81.5t132 22q82 0 132 -22.5t75 -82t25 -168.5t-25 -168.5t-74.5 -82.5t-132.5 -23q-82 0 -132 23zM374.5 73.5q31.5 14.5 48.5 59.5t17 135t-16.5 134.5t-48.5 59t-87 14.5q-56 0 -87.5 -14.5t-48 -59
t-16.5 -134.5t16.5 -135t48 -59.5t87.5 -14.5q55 0 86.5 14.5zM263 766h56l110 -135h-48l-91 97l-100 -97h-49zM254.5 -205.5q-4.5 4.5 -4.5 11.5v78q0 16 16 16h37q7 0 11.5 -4.5t4.5 -11.5v-78q0 -7 -4.5 -11.5t-11.5 -4.5h-37q-7 0 -11.5 4.5z" />
    <glyph glyph-name="uni1ED3" unicode="&#x1ed3;" horiz-adv-x="577" 
d="M156 17q-50 23 -74.5 82.5t-24.5 168.5q0 110 25 169.5t74 81.5t132 22q82 0 132 -22.5t75 -82t25 -168.5t-25 -168.5t-74.5 -82.5t-132.5 -23q-82 0 -132 23zM374.5 73.5q31.5 14.5 48.5 59.5t17 135t-16.5 134.5t-48.5 59t-87 14.5q-56 0 -87.5 -14.5t-48 -59
t-16.5 -134.5t16.5 -135t48 -59.5t87.5 -14.5q55 0 86.5 14.5zM117 837l87 -129h-46l-109 129h68zM319 729l110 -98h-48l-92 61l-100 -61h-48l121 98h57z" />
    <glyph glyph-name="uni1ED5" unicode="&#x1ed5;" horiz-adv-x="577" 
d="M156 17q-50 23 -74.5 82.5t-24.5 168.5q0 110 25 169.5t74 81.5t132 22q82 0 132 -22.5t75 -82t25 -168.5t-25 -168.5t-74.5 -82.5t-132.5 -23q-82 0 -132 23zM374.5 73.5q31.5 14.5 48.5 59.5t17 135t-16.5 134.5t-48.5 59t-87 14.5q-56 0 -87.5 -14.5t-48 -59
t-16.5 -134.5t16.5 -135t48 -59.5t87.5 -14.5q55 0 86.5 14.5zM395 719q26 8 38 21.5t12 29.5q0 37 -42 37q-13 0 -35 -6v30q20 7 45 7q36 0 54 -17.5t18 -47.5t-22 -53.5t-68 -36.5v36zM262 729h57l110 -98h-48l-92 61l-100 -61h-48z" />
    <glyph glyph-name="uni1ED7" unicode="&#x1ed7;" horiz-adv-x="577" 
d="M156 17q-50 23 -74.5 82.5t-24.5 168.5q0 110 25 169.5t74 81.5t132 22q82 0 132 -22.5t75 -82t25 -168.5t-25 -168.5t-74.5 -82.5t-132.5 -23q-82 0 -132 23zM374.5 73.5q31.5 14.5 48.5 59.5t17 135t-16.5 134.5t-48.5 59t-87 14.5q-56 0 -87.5 -14.5t-48 -59
t-16.5 -134.5t16.5 -135t48 -59.5t87.5 -14.5q55 0 86.5 14.5zM244.5 853q17.5 -6 42.5 -17q40 -19 64 -19t39 11.5t15 32.5h40q-3 -85 -83 -85q-19 0 -36 5.5t-42 16.5q-23 10 -38.5 15t-30.5 5q-21 0 -34.5 -11t-13.5 -31h-41q2 45 25 64t57 19q19 0 36.5 -6zM429 631h-48
l-92 61l-100 -61h-48l121 98h57z" />
    <glyph glyph-name="uni020D" unicode="&#x20d;" horiz-adv-x="577" 
d="M156 17q-50 23 -74.5 82.5t-24.5 168.5q0 110 25 169.5t74 81.5t132 22q82 0 132 -22.5t75 -82t25 -168.5t-25 -168.5t-74.5 -82.5t-132.5 -23q-82 0 -132 23zM374.5 73.5q31.5 14.5 48.5 59.5t17 135t-16.5 134.5t-48.5 59t-87 14.5q-56 0 -87.5 -14.5t-48 -59
t-16.5 -134.5t16.5 -135t48 -59.5t87.5 -14.5q55 0 86.5 14.5zM86 767h68l104 -136h-47zM232 767h68l104 -136h-47z" />
    <glyph glyph-name="odieresis" unicode="&#xf6;" horiz-adv-x="577" 
d="M156 17q-50 23 -74.5 82.5t-24.5 168.5q0 110 25 169.5t74 81.5t132 22q82 0 132 -22.5t75 -82t25 -168.5t-25 -168.5t-74.5 -82.5t-132.5 -23q-82 0 -132 23zM374.5 73.5q31.5 14.5 48.5 59.5t17 135t-16.5 134.5t-48.5 59t-87 14.5q-56 0 -87.5 -14.5t-48 -59
t-16.5 -134.5t16.5 -135t48 -59.5t87.5 -14.5q55 0 86.5 14.5zM159.5 657.5q-4.5 4.5 -4.5 11.5v78q0 16 16 16h36q16 0 16 -16v-78q0 -16 -16 -16h-36q-7 0 -11.5 4.5zM354.5 657.5q-4.5 4.5 -4.5 11.5v78q0 16 16 16h36q16 0 16 -16v-78q0 -16 -16 -16h-36q-7 0 -11.5 4.5
z" />
    <glyph glyph-name="uni022B" unicode="&#x22b;" horiz-adv-x="577" 
d="M156 17q-50 23 -74.5 82.5t-24.5 168.5q0 110 25 169.5t74 81.5t132 22q82 0 132 -22.5t75 -82t25 -168.5t-25 -168.5t-74.5 -82.5t-132.5 -23q-82 0 -132 23zM374.5 73.5q31.5 14.5 48.5 59.5t17 135t-16.5 134.5t-48.5 59t-87 14.5q-56 0 -87.5 -14.5t-48 -59
t-16.5 -134.5t16.5 -135t48 -59.5t87.5 -14.5q55 0 86.5 14.5zM159.5 657.5q-4.5 4.5 -4.5 11.5v78q0 16 16 16h36q16 0 16 -16v-78q0 -16 -16 -16h-36q-7 0 -11.5 4.5zM354.5 657.5q-4.5 4.5 -4.5 11.5v78q0 16 16 16h36q16 0 16 -16v-78q0 -16 -16 -16h-36q-7 0 -11.5 4.5
zM153 885h265v-47h-265v47z" />
    <glyph glyph-name="uni0231" unicode="&#x231;" horiz-adv-x="577" 
d="M156 17q-50 23 -74.5 82.5t-24.5 168.5q0 110 25 169.5t74 81.5t132 22q82 0 132 -22.5t75 -82t25 -168.5t-25 -168.5t-74.5 -82.5t-132.5 -23q-82 0 -132 23zM374.5 73.5q31.5 14.5 48.5 59.5t17 135t-16.5 134.5t-48.5 59t-87 14.5q-56 0 -87.5 -14.5t-48 -59
t-16.5 -134.5t16.5 -135t48 -59.5t87.5 -14.5q55 0 86.5 14.5zM257.5 664.5q-4.5 4.5 -4.5 11.5v78q0 16 16 16h37q7 0 11 -4.5t4 -11.5v-78q0 -7 -4 -11.5t-11 -4.5h-37q-7 0 -11.5 4.5zM153 879h265v-47h-265v47z" />
    <glyph glyph-name="uni1ECD" unicode="&#x1ecd;" horiz-adv-x="577" 
d="M156 17q-50 23 -74.5 82.5t-24.5 168.5q0 110 25 169.5t74 81.5t132 22q82 0 132 -22.5t75 -82t25 -168.5t-25 -168.5t-74.5 -82.5t-132.5 -23q-82 0 -132 23zM374.5 73.5q31.5 14.5 48.5 59.5t17 135t-16.5 134.5t-48.5 59t-87 14.5q-56 0 -87.5 -14.5t-48 -59
t-16.5 -134.5t16.5 -135t48 -59.5t87.5 -14.5q55 0 86.5 14.5zM254.5 -205.5q-4.5 4.5 -4.5 11.5v78q0 16 16 16h37q7 0 11.5 -4.5t4.5 -11.5v-78q0 -7 -4.5 -11.5t-11.5 -4.5h-37q-7 0 -11.5 4.5z" />
    <glyph glyph-name="ograve" unicode="&#xf2;" horiz-adv-x="577" 
d="M156 17q-50 23 -74.5 82.5t-24.5 168.5q0 110 25 169.5t74 81.5t132 22q82 0 132 -22.5t75 -82t25 -168.5t-25 -168.5t-74.5 -82.5t-132.5 -23q-82 0 -132 23zM374.5 73.5q31.5 14.5 48.5 59.5t17 135t-16.5 134.5t-48.5 59t-87 14.5q-56 0 -87.5 -14.5t-48 -59
t-16.5 -134.5t16.5 -135t48 -59.5t87.5 -14.5q55 0 86.5 14.5zM159 767h67l104 -136h-46z" />
    <glyph glyph-name="uni1ECF" unicode="&#x1ecf;" horiz-adv-x="577" 
d="M156 17q-50 23 -74.5 82.5t-24.5 168.5q0 110 25 169.5t74 81.5t132 22q82 0 132 -22.5t75 -82t25 -168.5t-25 -168.5t-74.5 -82.5t-132.5 -23q-82 0 -132 23zM374.5 73.5q31.5 14.5 48.5 59.5t17 135t-16.5 134.5t-48.5 59t-87 14.5q-56 0 -87.5 -14.5t-48 -59
t-16.5 -134.5t16.5 -135t48 -59.5t87.5 -14.5q55 0 86.5 14.5zM270 640q56 17 56 59q0 44 -48 44q-18 0 -36 -6v34q18 6 46 6q41 0 61 -20.5t20 -56.5q0 -33 -24.5 -57.5t-74.5 -39.5v37z" />
    <glyph glyph-name="ohorn" unicode="&#x1a1;" horiz-adv-x="577" 
d="M504.5 407.5q15.5 -54.5 15.5 -139.5q0 -109 -25 -168.5t-74.5 -82.5t-132.5 -23q-82 0 -132 23t-74.5 82.5t-24.5 168.5q0 110 25 169.5t74 81.5t132 22q49 0 84 -7h43q38 0 58.5 26t20.5 87h57q0 -70 -25 -107.5t-68 -47.5q31 -30 46.5 -84.5zM374.5 73.5
q31.5 14.5 48.5 59.5t17 135t-16.5 134.5t-48.5 59t-87 14.5q-56 0 -87.5 -14.5t-48 -59t-16.5 -134.5t16.5 -135t48 -59.5t87.5 -14.5q55 0 86.5 14.5z" />
    <glyph glyph-name="uni1EDB" unicode="&#x1edb;" horiz-adv-x="577" 
d="M504.5 407.5q15.5 -54.5 15.5 -139.5q0 -109 -25 -168.5t-74.5 -82.5t-132.5 -23q-82 0 -132 23t-74.5 82.5t-24.5 168.5q0 110 25 169.5t74 81.5t132 22q49 0 84 -7h43q38 0 58.5 26t20.5 87h57q0 -70 -25 -107.5t-68 -47.5q31 -30 46.5 -84.5zM374.5 73.5
q31.5 14.5 48.5 59.5t17 135t-16.5 134.5t-48.5 59t-87 14.5q-56 0 -87.5 -14.5t-48 -59t-16.5 -134.5t16.5 -135t48 -59.5t87.5 -14.5q55 0 86.5 14.5zM367 767h67l-125 -136h-46z" />
    <glyph glyph-name="uni1EE3" unicode="&#x1ee3;" horiz-adv-x="577" 
d="M504.5 407.5q15.5 -54.5 15.5 -139.5q0 -109 -25 -168.5t-74.5 -82.5t-132.5 -23q-82 0 -132 23t-74.5 82.5t-24.5 168.5q0 110 25 169.5t74 81.5t132 22q49 0 84 -7h43q38 0 58.5 26t20.5 87h57q0 -70 -25 -107.5t-68 -47.5q31 -30 46.5 -84.5zM374.5 73.5
q31.5 14.5 48.5 59.5t17 135t-16.5 134.5t-48.5 59t-87 14.5q-56 0 -87.5 -14.5t-48 -59t-16.5 -134.5t16.5 -135t48 -59.5t87.5 -14.5q55 0 86.5 14.5zM264.5 -205.5q-4.5 4.5 -4.5 11.5v78q0 16 16 16h37q7 0 11.5 -4.5t4.5 -11.5v-78q0 -7 -4.5 -11.5t-11.5 -4.5h-37
q-7 0 -11.5 4.5z" />
    <glyph glyph-name="uni1EDD" unicode="&#x1edd;" horiz-adv-x="577" 
d="M504.5 407.5q15.5 -54.5 15.5 -139.5q0 -109 -25 -168.5t-74.5 -82.5t-132.5 -23q-82 0 -132 23t-74.5 82.5t-24.5 168.5q0 110 25 169.5t74 81.5t132 22q49 0 84 -7h43q38 0 58.5 26t20.5 87h57q0 -70 -25 -107.5t-68 -47.5q31 -30 46.5 -84.5zM374.5 73.5
q31.5 14.5 48.5 59.5t17 135t-16.5 134.5t-48.5 59t-87 14.5q-56 0 -87.5 -14.5t-48 -59t-16.5 -134.5t16.5 -135t48 -59.5t87.5 -14.5q55 0 86.5 14.5zM152 767h67l104 -136h-46z" />
    <glyph glyph-name="uni1EDF" unicode="&#x1edf;" horiz-adv-x="577" 
d="M504.5 407.5q15.5 -54.5 15.5 -139.5q0 -109 -25 -168.5t-74.5 -82.5t-132.5 -23q-82 0 -132 23t-74.5 82.5t-24.5 168.5q0 110 25 169.5t74 81.5t132 22q49 0 84 -7h43q38 0 58.5 26t20.5 87h57q0 -70 -25 -107.5t-68 -47.5q31 -30 46.5 -84.5zM374.5 73.5
q31.5 14.5 48.5 59.5t17 135t-16.5 134.5t-48.5 59t-87 14.5q-56 0 -87.5 -14.5t-48 -59t-16.5 -134.5t16.5 -135t48 -59.5t87.5 -14.5q55 0 86.5 14.5zM272 640q56 17 56 59q0 44 -48 44q-18 0 -36 -6v34q18 6 46 6q41 0 61 -20.5t20 -56.5q0 -33 -24.5 -57.5t-74.5 -39.5
v37z" />
    <glyph glyph-name="uni1EE1" unicode="&#x1ee1;" horiz-adv-x="577" 
d="M504.5 407.5q15.5 -54.5 15.5 -139.5q0 -109 -25 -168.5t-74.5 -82.5t-132.5 -23q-82 0 -132 23t-74.5 82.5t-24.5 168.5q0 110 25 169.5t74 81.5t132 22q49 0 84 -7h43q38 0 58.5 26t20.5 87h57q0 -70 -25 -107.5t-68 -47.5q31 -30 46.5 -84.5zM374.5 73.5
q31.5 14.5 48.5 59.5t17 135t-16.5 134.5t-48.5 59t-87 14.5q-56 0 -87.5 -14.5t-48 -59t-16.5 -134.5t16.5 -135t48 -59.5t87.5 -14.5q55 0 86.5 14.5zM135 728q28 26 67 26q23 0 41.5 -8.5t45.5 -24.5q21 -14 36.5 -21t31.5 -7q26 0 43 16.5t18 46.5h40q-1 -51 -26 -80
t-70 -29q-21 0 -39.5 8t-45.5 25q-23 14 -39 21.5t-32 7.5q-25 0 -41.5 -16t-17.5 -46h-41q1 55 29 81z" />
    <glyph glyph-name="ohungarumlaut" unicode="&#x151;" horiz-adv-x="577" 
d="M156 17q-50 23 -74.5 82.5t-24.5 168.5q0 110 25 169.5t74 81.5t132 22q82 0 132 -22.5t75 -82t25 -168.5t-25 -168.5t-74.5 -82.5t-132.5 -23q-82 0 -132 23zM374.5 73.5q31.5 14.5 48.5 59.5t17 135t-16.5 134.5t-48.5 59t-87 14.5q-56 0 -87.5 -14.5t-48 -59
t-16.5 -134.5t16.5 -135t48 -59.5t87.5 -14.5q55 0 86.5 14.5zM269 767h65l-119 -136h-46zM419 767h65l-119 -136h-46z" />
    <glyph glyph-name="uni020F" unicode="&#x20f;" horiz-adv-x="577" 
d="M156 17q-50 23 -74.5 82.5t-24.5 168.5q0 110 25 169.5t74 81.5t132 22q82 0 132 -22.5t75 -82t25 -168.5t-25 -168.5t-74.5 -82.5t-132.5 -23q-82 0 -132 23zM374.5 73.5q31.5 14.5 48.5 59.5t17 135t-16.5 134.5t-48.5 59t-87 14.5q-56 0 -87.5 -14.5t-48 -59
t-16.5 -134.5t16.5 -135t48 -59.5t87.5 -14.5q55 0 86.5 14.5zM381 737q36 -34 36 -107h-39q0 54 -25 78.5t-64 24.5q-96 0 -96 -103h-39q0 75 36 108t96 33q59 0 95 -34z" />
    <glyph glyph-name="omacron" unicode="&#x14d;" horiz-adv-x="577" 
d="M156 17q-50 23 -74.5 82.5t-24.5 168.5q0 110 25 169.5t74 81.5t132 22q82 0 132 -22.5t75 -82t25 -168.5t-25 -168.5t-74.5 -82.5t-132.5 -23q-82 0 -132 23zM374.5 73.5q31.5 14.5 48.5 59.5t17 135t-16.5 134.5t-48.5 59t-87 14.5q-56 0 -87.5 -14.5t-48 -59
t-16.5 -134.5t16.5 -135t48 -59.5t87.5 -14.5q55 0 86.5 14.5zM153 719h265v-47h-265v47z" />
    <glyph glyph-name="uni1E53" unicode="&#x1e53;" horiz-adv-x="577" 
d="M156 17q-50 23 -74.5 82.5t-24.5 168.5q0 110 25 169.5t74 81.5t132 22q82 0 132 -22.5t75 -82t25 -168.5t-25 -168.5t-74.5 -82.5t-132.5 -23q-82 0 -132 23zM374.5 73.5q31.5 14.5 48.5 59.5t17 135t-16.5 134.5t-48.5 59t-87 14.5q-56 0 -87.5 -14.5t-48 -59
t-16.5 -134.5t16.5 -135t48 -59.5t87.5 -14.5q55 0 86.5 14.5zM153 719h265v-47h-265v47zM356 894h67l-125 -136h-46z" />
    <glyph glyph-name="uni1E51" unicode="&#x1e51;" horiz-adv-x="577" 
d="M156 17q-50 23 -74.5 82.5t-24.5 168.5q0 110 25 169.5t74 81.5t132 22q82 0 132 -22.5t75 -82t25 -168.5t-25 -168.5t-74.5 -82.5t-132.5 -23q-82 0 -132 23zM374.5 73.5q31.5 14.5 48.5 59.5t17 135t-16.5 134.5t-48.5 59t-87 14.5q-56 0 -87.5 -14.5t-48 -59
t-16.5 -134.5t16.5 -135t48 -59.5t87.5 -14.5q55 0 86.5 14.5zM153 719h265v-47h-265v47zM152 894h67l104 -136h-46z" />
    <glyph glyph-name="uni01EB" unicode="&#x1eb;" horiz-adv-x="577" 
d="M277 -81q0 -30 22 -47.5t61 -17.5h6v-38q-11 -3 -26 -3q-49 0 -77 25t-28 64q0 57 63 92h-10q-82 0 -132 23t-74.5 82.5t-24.5 168.5q0 110 25 169.5t74 81.5t132 22q82 0 132 -22.5t75 -82t25 -168.5q0 -99 -20.5 -156.5t-61 -84t-105.5 -31.5q-56 -33 -56 -77z
M152.5 133q16.5 -45 48 -59.5t87.5 -14.5q55 0 86.5 14.5t48.5 59.5t17 135t-16.5 134.5t-48.5 59t-87 14.5q-56 0 -87.5 -14.5t-48 -59t-16.5 -134.5t16.5 -135z" />
    <glyph glyph-name="oslash" unicode="&#xf8;" horiz-adv-x="577" 
d="M475 472q45 -62 45 -204q0 -109 -25 -168.5t-74.5 -82.5t-132.5 -23q-56 0 -96 10t-67 34l-31 -38h-43l51 63q-45 63 -45 205q0 110 25 169.5t74 81.5t132 22q56 0 96.5 -10t67.5 -34l30 37h43zM154 128l250 310q-17 22 -45 30t-71 8q-56 0 -87.5 -14.5t-48 -59
t-16.5 -134.5q0 -93 18 -140zM422 406l-250 -309q18 -22 45.5 -30t70.5 -8q55 0 86.5 14.5t48.5 59.5t17 135q0 92 -18 138z" />
    <glyph glyph-name="oslashacute" unicode="&#x1ff;" horiz-adv-x="577" 
d="M475 472q45 -62 45 -204q0 -109 -25 -168.5t-74.5 -82.5t-132.5 -23q-56 0 -96 10t-67 34l-31 -38h-43l51 63q-45 63 -45 205q0 110 25 169.5t74 81.5t132 22q56 0 96.5 -10t67.5 -34l30 37h43zM154 128l250 310q-17 22 -45 30t-71 8q-56 0 -87.5 -14.5t-48 -59
t-16.5 -134.5q0 -93 18 -140zM422 406l-250 -309q18 -22 45.5 -30t70.5 -8q55 0 86.5 14.5t48.5 59.5t17 135q0 92 -18 138zM360 767h67l-125 -136h-46z" />
    <glyph glyph-name="otilde" unicode="&#xf5;" horiz-adv-x="577" 
d="M156 17q-50 23 -74.5 82.5t-24.5 168.5q0 110 25 169.5t74 81.5t132 22q82 0 132 -22.5t75 -82t25 -168.5t-25 -168.5t-74.5 -82.5t-132.5 -23q-82 0 -132 23zM374.5 73.5q31.5 14.5 48.5 59.5t17 135t-16.5 134.5t-48.5 59t-87 14.5q-56 0 -87.5 -14.5t-48 -59
t-16.5 -134.5t16.5 -135t48 -59.5t87.5 -14.5q55 0 86.5 14.5zM152 728q28 26 67 26q23 0 41.5 -8.5t45.5 -24.5q21 -14 36.5 -21t31.5 -7q26 0 43 16.5t18 46.5h40q-1 -51 -26 -80t-70 -29q-21 0 -39.5 8t-45.5 25q-23 14 -39 21.5t-32 7.5q-25 0 -41.5 -16t-17.5 -46h-41
q1 55 29 81z" />
    <glyph glyph-name="uni1E4D" unicode="&#x1e4d;" horiz-adv-x="577" 
d="M156 17q-50 23 -74.5 82.5t-24.5 168.5q0 110 25 169.5t74 81.5t132 22q82 0 132 -22.5t75 -82t25 -168.5t-25 -168.5t-74.5 -82.5t-132.5 -23q-82 0 -132 23zM374.5 73.5q31.5 14.5 48.5 59.5t17 135t-16.5 134.5t-48.5 59t-87 14.5q-56 0 -87.5 -14.5t-48 -59
t-16.5 -134.5t16.5 -135t48 -59.5t87.5 -14.5q55 0 86.5 14.5zM152 728q28 26 67 26q23 0 41.5 -8.5t45.5 -24.5q21 -14 36.5 -21t31.5 -7q26 0 43 16.5t18 46.5h40q-1 -51 -26 -80t-70 -29q-21 0 -39.5 8t-45.5 25q-23 14 -39 21.5t-32 7.5q-25 0 -41.5 -16t-17.5 -46h-41
q1 55 29 81zM356 920h67l-125 -136h-46z" />
    <glyph glyph-name="uni1E4F" unicode="&#x1e4f;" horiz-adv-x="577" 
d="M156 17q-50 23 -74.5 82.5t-24.5 168.5q0 110 25 169.5t74 81.5t132 22q82 0 132 -22.5t75 -82t25 -168.5t-25 -168.5t-74.5 -82.5t-132.5 -23q-82 0 -132 23zM374.5 73.5q31.5 14.5 48.5 59.5t17 135t-16.5 134.5t-48.5 59t-87 14.5q-56 0 -87.5 -14.5t-48 -59
t-16.5 -134.5t16.5 -135t48 -59.5t87.5 -14.5q55 0 86.5 14.5zM152 728q28 26 67 26q23 0 41.5 -8.5t45.5 -24.5q21 -14 36.5 -21t31.5 -7q26 0 43 16.5t18 46.5h40q-1 -51 -26 -80t-70 -29q-21 0 -39.5 8t-45.5 25q-23 14 -39 21.5t-32 7.5q-25 0 -41.5 -16t-17.5 -46h-41
q1 55 29 81zM169.5 814.5q-4.5 4.5 -4.5 11.5v78q0 16 16 16h36q16 0 16 -16v-78q0 -16 -16 -16h-36q-7 0 -11.5 4.5zM364.5 814.5q-4.5 4.5 -4.5 11.5v78q0 16 16 16h36q16 0 16 -16v-78q0 -16 -16 -16h-36q-7 0 -11.5 4.5z" />
    <glyph glyph-name="uni022D" unicode="&#x22d;" horiz-adv-x="577" 
d="M156 17q-50 23 -74.5 82.5t-24.5 168.5q0 110 25 169.5t74 81.5t132 22q82 0 132 -22.5t75 -82t25 -168.5t-25 -168.5t-74.5 -82.5t-132.5 -23q-82 0 -132 23zM374.5 73.5q31.5 14.5 48.5 59.5t17 135t-16.5 134.5t-48.5 59t-87 14.5q-56 0 -87.5 -14.5t-48 -59
t-16.5 -134.5t16.5 -135t48 -59.5t87.5 -14.5q55 0 86.5 14.5zM153 885h265v-47h-265v47zM142 728q28 26 67 26q23 0 41.5 -8.5t45.5 -24.5q21 -14 36.5 -21t31.5 -7q26 0 43 16.5t18 46.5h40q-1 -51 -26 -80t-70 -29q-21 0 -39.5 8t-45.5 25q-23 14 -39 21.5t-32 7.5
q-25 0 -41.5 -16t-17.5 -46h-41q1 55 29 81z" />
    <glyph glyph-name="oe" unicode="&#x153;" horiz-adv-x="921" 
d="M553.5 97.5q37.5 -41.5 121.5 -41.5h175v-48q-103 -14 -195 -14q-66 0 -109 23t-67 73q-24 -54 -70.5 -75t-122.5 -21q-81 0 -130.5 23t-74 82.5t-24.5 168.5q0 110 25 169.5t74 81.5t132 22q74 0 120 -20t70 -72q23 47 65.5 69.5t109.5 22.5q74 0 119 -15t68.5 -55
t23.5 -114q0 -62 -39 -92t-105 -30h-205q1 -96 38.5 -137.5zM544.5 436q-30.5 -45 -30.5 -149h191q43 0 65 16.5t22 60.5q0 48 -15 73.5t-44 34.5t-80 9q-78 0 -108.5 -45zM374.5 71q31.5 15 48.5 60.5t17 136.5t-16.5 136.5t-48.5 60t-87 14.5q-56 0 -87.5 -14.5t-48 -60
t-16.5 -136.5t16.5 -136.5t48 -60.5t87.5 -15q55 0 86.5 15z" />
    <glyph glyph-name="p" unicode="p" horiz-adv-x="578" 
d="M76 534h64l15 -55q32 23 81 42.5t94 19.5q98 0 144.5 -77t46.5 -196q0 -137 -46.5 -206t-144.5 -69q-43 0 -88.5 14t-86.5 37v-281h-79v771zM442 268q0 105 -38 156t-96 51q-42 0 -79 -12.5t-74 -32.5v-327q76 -43 153 -43q134 0 134 208z" />
    <glyph glyph-name="uni1E57" unicode="&#x1e57;" horiz-adv-x="578" 
d="M76 534h64l15 -55q32 23 81 42.5t94 19.5q98 0 144.5 -77t46.5 -196q0 -137 -46.5 -206t-144.5 -69q-43 0 -88.5 14t-86.5 37v-281h-79v771zM442 268q0 105 -38 156t-96 51q-42 0 -79 -12.5t-74 -32.5v-327q76 -43 153 -43q134 0 134 208zM245.5 664.5
q-4.5 4.5 -4.5 11.5v78q0 16 16 16h37q7 0 11 -4.5t4 -11.5v-78q0 -7 -4 -11.5t-11 -4.5h-37q-7 0 -11.5 4.5z" />
    <glyph glyph-name="thorn" unicode="&#xfe;" horiz-adv-x="578" 
d="M76 763h79v-284q32 23 81 42.5t94 19.5q96 0 143.5 -77.5t47.5 -195.5q0 -275 -191 -275q-43 0 -88.5 14t-86.5 37v-281h-79v1000zM442 265q0 107 -38 158.5t-96 51.5q-42 0 -79 -12.5t-74 -32.5v-327q76 -43 153 -43q134 0 134 205z" />
    <glyph glyph-name="q" unicode="q" horiz-adv-x="575" 
d="M423 54q-40 -27 -87 -43.5t-89 -16.5q-103 0 -146.5 66.5t-43.5 207.5q0 139 48.5 206t151.5 67q107 0 245 -14v-764h-79v291zM423 104v375h-148q-75 0 -107 -54t-32 -155q0 -114 30 -162.5t100 -48.5q74 0 157 45z" />
    <glyph glyph-name="r" unicode="r" horiz-adv-x="412" 
d="M76 534h60l19 -93q39 47 84 73t99 26q27 0 50 -5v-81q-45 5 -58 5q-53 0 -91.5 -19t-83.5 -61v-379h-79v534z" />
    <glyph glyph-name="racute" unicode="&#x155;" horiz-adv-x="412" 
d="M76 534h60l19 -93q39 47 84 73t99 26q27 0 50 -5v-81q-45 5 -58 5q-53 0 -91.5 -19t-83.5 -61v-379h-79v534zM282 767h67l-125 -136h-46z" />
    <glyph glyph-name="rcaron" unicode="&#x159;" horiz-adv-x="412" 
d="M76 534h60l19 -93q39 47 84 73t99 26q27 0 50 -5v-81q-45 5 -58 5q-53 0 -91.5 -19t-83.5 -61v-379h-79v534zM70 766h48l92 -97l100 97h48l-121 -135h-56z" />
    <glyph glyph-name="rcommaaccent" unicode="&#x157;" horiz-adv-x="412" 
d="M76 534h60l19 -93q39 47 84 73t99 26q27 0 50 -5v-81q-45 5 -58 5q-53 0 -91.5 -19t-83.5 -61v-379h-79v534zM33 -170l30 5q26 4 40 11.5t21 28.5t7 62h49q0 -52 -9 -81.5t-32.5 -43.5t-67.5 -14h-38v32z" />
    <glyph glyph-name="uni0211" unicode="&#x211;" horiz-adv-x="412" 
d="M76 534h60l19 -93q39 47 84 73t99 26q27 0 50 -5v-81q-45 5 -58 5q-53 0 -91.5 -19t-83.5 -61v-379h-79v534zM8 767h68l104 -136h-47zM154 767h68l104 -136h-47z" />
    <glyph glyph-name="uni1E5B" unicode="&#x1e5b;" horiz-adv-x="412" 
d="M76 534h60l19 -93q39 47 84 73t99 26q27 0 50 -5v-81q-45 5 -58 5q-53 0 -91.5 -19t-83.5 -61v-379h-79v534zM81.5 -205.5q-4.5 4.5 -4.5 11.5v78q0 16 16 16h37q7 0 11.5 -4.5t4.5 -11.5v-78q0 -7 -4.5 -11.5t-11.5 -4.5h-37q-7 0 -11.5 4.5z" />
    <glyph glyph-name="uni0213" unicode="&#x213;" horiz-adv-x="412" 
d="M76 534h60l19 -93q39 47 84 73t99 26q27 0 50 -5v-81q-45 5 -58 5q-53 0 -91.5 -19t-83.5 -61v-379h-79v534zM303 737q36 -34 36 -107h-39q0 54 -25 78.5t-64 24.5q-96 0 -96 -103h-39q0 75 36 108t96 33q59 0 95 -34z" />
    <glyph glyph-name="uni1E5F" unicode="&#x1e5f;" horiz-adv-x="412" 
d="M76 534h60l19 -93q39 47 84 73t99 26q27 0 50 -5v-81q-45 5 -58 5q-53 0 -91.5 -19t-83.5 -61v-379h-79v534zM-21 -141h265v-47h-265v47z" />
    <glyph glyph-name="s" unicode="s" horiz-adv-x="500" 
d="M147 -2q-68 4 -93 10v48h219q56 0 82 15t26 63v24q0 75 -97 75h-75q-77 0 -118.5 30t-41.5 102v28q0 76 44.5 111t143.5 35q43 0 101.5 -4.5t91.5 -10.5v-48h-206q-54 0 -80 -18t-26 -65v-22q0 -43 25.5 -57.5t78.5 -14.5h76q73 0 113 -34t40 -98v-37q0 -76 -49 -106
t-142 -30q-45 0 -113 4z" />
    <glyph glyph-name="sacute" unicode="&#x15b;" horiz-adv-x="500" 
d="M147 -2q-68 4 -93 10v48h219q56 0 82 15t26 63v24q0 75 -97 75h-75q-77 0 -118.5 30t-41.5 102v28q0 76 44.5 111t143.5 35q43 0 101.5 -4.5t91.5 -10.5v-48h-206q-54 0 -80 -18t-26 -65v-22q0 -43 25.5 -57.5t78.5 -14.5h76q73 0 113 -34t40 -98v-37q0 -76 -49 -106
t-142 -30q-45 0 -113 4zM312 767h67l-125 -136h-46z" />
    <glyph glyph-name="uni1E65" unicode="&#x1e65;" horiz-adv-x="500" 
d="M147 -2q-68 4 -93 10v48h219q56 0 82 15t26 63v24q0 75 -97 75h-75q-77 0 -118.5 30t-41.5 102v28q0 76 44.5 111t143.5 35q43 0 101.5 -4.5t91.5 -10.5v-48h-206q-54 0 -80 -18t-26 -65v-22q0 -43 25.5 -57.5t78.5 -14.5h76q73 0 113 -34t40 -98v-37q0 -76 -49 -106
t-142 -30q-45 0 -113 4zM275 767h67l-125 -136h-46zM225.5 800.5q-4.5 4.5 -4.5 11.5v78q0 16 16 16h37q7 0 11 -4.5t4 -11.5v-78q0 -7 -4 -11.5t-11 -4.5h-37q-7 0 -11.5 4.5z" />
    <glyph glyph-name="scaron" unicode="&#x161;" horiz-adv-x="500" 
d="M147 -2q-68 4 -93 10v48h219q56 0 82 15t26 63v24q0 75 -97 75h-75q-77 0 -118.5 30t-41.5 102v28q0 76 44.5 111t143.5 35q43 0 101.5 -4.5t91.5 -10.5v-48h-206q-54 0 -80 -18t-26 -65v-22q0 -43 25.5 -57.5t78.5 -14.5h76q73 0 113 -34t40 -98v-37q0 -76 -49 -106
t-142 -30q-45 0 -113 4zM100 766h48l92 -97l100 97h48l-121 -135h-56z" />
    <glyph glyph-name="uni1E67" unicode="&#x1e67;" horiz-adv-x="500" 
d="M147 -2q-68 4 -93 10v48h219q56 0 82 15t26 63v24q0 75 -97 75h-75q-77 0 -118.5 30t-41.5 102v28q0 76 44.5 111t143.5 35q43 0 101.5 -4.5t91.5 -10.5v-48h-206q-54 0 -80 -18t-26 -65v-22q0 -43 25.5 -57.5t78.5 -14.5h76q73 0 113 -34t40 -98v-37q0 -76 -49 -106
t-142 -30q-45 0 -113 4zM100 766h48l92 -97l100 97h48l-121 -135h-56zM209.5 804.5q-4.5 4.5 -4.5 11.5v78q0 16 16 16h37q7 0 11 -4.5t4 -11.5v-78q0 -7 -4 -11.5t-11 -4.5h-37q-7 0 -11.5 4.5z" />
    <glyph glyph-name="scedilla" unicode="&#x15f;" horiz-adv-x="500" 
d="M411 265q40 -34 40 -98v-37q0 -76 -49 -106t-142 -30h-2l-31 -48q72 -4 72 -64q0 -34 -25 -53t-71 -19h-33v33l22 2q28 3 42 13.5t14 31.5q0 19 -14.5 31t-51.5 13l40 61q-44 1 -95.5 5t-72.5 8v48h219q56 0 82 15t26 63v24q0 75 -97 75h-75q-77 0 -118.5 30t-41.5 102
v28q0 76 44.5 111t143.5 35q43 0 101.5 -4.5t91.5 -10.5v-48h-206q-54 0 -80 -18t-26 -65v-22q0 -43 25.5 -57.5t78.5 -14.5h76q73 0 113 -34z" />
    <glyph glyph-name="scircumflex" unicode="&#x15d;" horiz-adv-x="500" 
d="M147 -2q-68 4 -93 10v48h219q56 0 82 15t26 63v24q0 75 -97 75h-75q-77 0 -118.5 30t-41.5 102v28q0 76 44.5 111t143.5 35q43 0 101.5 -4.5t91.5 -10.5v-48h-206q-54 0 -80 -18t-26 -65v-22q0 -43 25.5 -57.5t78.5 -14.5h76q73 0 113 -34t40 -98v-37q0 -76 -49 -106
t-142 -30q-45 0 -113 4zM215 766h56l110 -135h-48l-91 97l-100 -97h-49z" />
    <glyph glyph-name="scommaaccent" unicode="&#x219;" horiz-adv-x="500" 
d="M147 -2q-68 4 -93 10v48h219q56 0 82 15t26 63v24q0 75 -97 75h-75q-77 0 -118.5 30t-41.5 102v28q0 76 44.5 111t143.5 35q43 0 101.5 -4.5t91.5 -10.5v-48h-206q-54 0 -80 -18t-26 -65v-22q0 -43 25.5 -57.5t78.5 -14.5h76q73 0 113 -34t40 -98v-37q0 -76 -49 -106
t-142 -30q-45 0 -113 4zM157 -170l30 5q26 4 40 11.5t21 28.5t7 62h49q0 -52 -9 -81.5t-32.5 -43.5t-67.5 -14h-38v32z" />
    <glyph glyph-name="uni1E61" unicode="&#x1e61;" horiz-adv-x="500" 
d="M147 -2q-68 4 -93 10v48h219q56 0 82 15t26 63v24q0 75 -97 75h-75q-77 0 -118.5 30t-41.5 102v28q0 76 44.5 111t143.5 35q43 0 101.5 -4.5t91.5 -10.5v-48h-206q-54 0 -80 -18t-26 -65v-22q0 -43 25.5 -57.5t78.5 -14.5h76q73 0 113 -34t40 -98v-37q0 -76 -49 -106
t-142 -30q-45 0 -113 4zM209.5 664.5q-4.5 4.5 -4.5 11.5v78q0 16 16 16h37q7 0 11 -4.5t4 -11.5v-78q0 -7 -4 -11.5t-11 -4.5h-37q-7 0 -11.5 4.5z" />
    <glyph glyph-name="uni1E63" unicode="&#x1e63;" horiz-adv-x="500" 
d="M147 -2q-68 4 -93 10v48h219q56 0 82 15t26 63v24q0 75 -97 75h-75q-77 0 -118.5 30t-41.5 102v28q0 76 44.5 111t143.5 35q43 0 101.5 -4.5t91.5 -10.5v-48h-206q-54 0 -80 -18t-26 -65v-22q0 -43 25.5 -57.5t78.5 -14.5h76q73 0 113 -34t40 -98v-37q0 -76 -49 -106
t-142 -30q-45 0 -113 4zM206.5 -205.5q-4.5 4.5 -4.5 11.5v78q0 16 16 16h37q7 0 11.5 -4.5t4.5 -11.5v-78q0 -7 -4.5 -11.5t-11.5 -4.5h-37q-7 0 -11.5 4.5z" />
    <glyph glyph-name="uni1E69" unicode="&#x1e69;" horiz-adv-x="500" 
d="M147 -2q-68 4 -93 10v48h219q56 0 82 15t26 63v24q0 75 -97 75h-75q-77 0 -118.5 30t-41.5 102v28q0 76 44.5 111t143.5 35q43 0 101.5 -4.5t91.5 -10.5v-48h-206q-54 0 -80 -18t-26 -65v-22q0 -43 25.5 -57.5t78.5 -14.5h76q73 0 113 -34t40 -98v-37q0 -76 -49 -106
t-142 -30q-45 0 -113 4zM206.5 -205.5q-4.5 4.5 -4.5 11.5v78q0 16 16 16h37q7 0 11.5 -4.5t4.5 -11.5v-78q0 -7 -4.5 -11.5t-11.5 -4.5h-37q-7 0 -11.5 4.5zM209.5 664.5q-4.5 4.5 -4.5 11.5v78q0 16 16 16h37q7 0 11 -4.5t4 -11.5v-78q0 -7 -4 -11.5t-11 -4.5h-37
q-7 0 -11.5 4.5z" />
    <glyph glyph-name="germandbls" unicode="&#xdf;" horiz-adv-x="584" 
d="M301 -2.5q-45 4.5 -71 10.5v52q68 -4 145 -4q61 0 85.5 26t24.5 58v23q0 29 -21.5 43t-66.5 29q-36 12 -58.5 23t-38 31.5t-15.5 53.5q0 38 19 65.5t59 66.5q36 34 54.5 60.5t18.5 60.5q0 105 -141 105q-74 0 -112 -40.5t-38 -119.5v-541h-79v548q0 97 58 158t171 61
q112 0 164 -45.5t52 -120.5q0 -47 -22 -79.5t-65 -71.5q-33 -31 -48 -50.5t-15 -44.5q0 -27 20.5 -40.5t63.5 -29.5q37 -13 60 -25t39.5 -34.5t16.5 -57.5v-29q0 -73 -48.5 -109.5t-120.5 -36.5q-46 0 -91 4.5z" />
    <glyph glyph-name="t" unicode="t" horiz-adv-x="367" 
d="M137 40.5q-37 40.5 -35 132.5l3 296h-85v51l86 14l13 149h61v-149h154v-65h-154v-296q0 -61 23 -83.5t58 -25.5l65 -6v-58h-73q-79 0 -116 40.5z" />
    <glyph glyph-name="tbar" unicode="&#x167;" horiz-adv-x="367" 
d="M180 469v-140h140v-34h-140v-122q0 -61 23 -83.5t58 -25.5l65 -6v-58h-73q-79 0 -116 40.5t-35 132.5l1 122h-83v34h84l1 140h-85v51l86 14l13 149h61v-149h154v-65h-154z" />
    <glyph glyph-name="tcaron" unicode="&#x165;" horiz-adv-x="367" 
d="M137 40.5q-37 40.5 -35 132.5l3 296h-85v51l86 14l13 149h61v-149h154v-65h-154v-296q0 -61 23 -83.5t58 -25.5l65 -6v-58h-73q-79 0 -116 40.5zM247 723v60h73v-60l-6 -141h-61z" />
    <glyph glyph-name="uni0163" unicode="&#x163;" horiz-adv-x="367" 
d="M180 469v-296q0 -61 23 -83.5t58 -25.5l65 -6v-58h-73q-14 0 -36 2l-37 -56q72 -4 72 -64q0 -34 -25 -53t-71 -19h-33v33l22 2q28 3 42 13.5t14 31.5q0 19 -14.5 31t-51.5 13l50 76q-43 14 -63.5 54t-19.5 109l3 296h-85v51l86 14l13 149h61v-149h154v-65h-154z" />
    <glyph glyph-name="uni021B" unicode="&#x21b;" horiz-adv-x="367" 
d="M137 40.5q-37 40.5 -35 132.5l3 296h-85v51l86 14l13 149h61v-149h154v-65h-154v-296q0 -61 23 -83.5t58 -25.5l65 -6v-58h-73q-79 0 -116 40.5zM101 -170l30 5q26 4 40 11.5t21 28.5t7 62h49q0 -52 -9 -81.5t-32.5 -43.5t-67.5 -14h-38v32z" />
    <glyph glyph-name="uni1E97" unicode="&#x1e97;" horiz-adv-x="367" 
d="M137 40.5q-37 40.5 -35 132.5l3 296h-85v51l86 14l13 149h61v-149h154v-65h-154v-296q0 -61 23 -83.5t58 -25.5l65 -6v-58h-73q-79 0 -116 40.5zM32.5 744.5q-4.5 4.5 -4.5 11.5v78q0 16 16 16h36q16 0 16 -16v-78q0 -16 -16 -16h-36q-7 0 -11.5 4.5zM227.5 744.5
q-4.5 4.5 -4.5 11.5v78q0 16 16 16h36q16 0 16 -16v-78q0 -16 -16 -16h-36q-7 0 -11.5 4.5z" />
    <glyph glyph-name="uni1E6B" unicode="&#x1e6b;" horiz-adv-x="367" 
d="M137 40.5q-37 40.5 -35 132.5l3 296h-85v51l86 14l13 149h61v-149h154v-65h-154v-296q0 -61 23 -83.5t58 -25.5l65 -6v-58h-73q-79 0 -116 40.5zM121.5 751.5q-4.5 4.5 -4.5 11.5v78q0 16 16 16h37q7 0 11 -4.5t4 -11.5v-78q0 -7 -4 -11.5t-11 -4.5h-37q-7 0 -11.5 4.5z
" />
    <glyph glyph-name="uni1E6D" unicode="&#x1e6d;" horiz-adv-x="367" 
d="M137 40.5q-37 40.5 -35 132.5l3 296h-85v51l86 14l13 149h61v-149h154v-65h-154v-296q0 -61 23 -83.5t58 -25.5l65 -6v-58h-73q-79 0 -116 40.5zM159.5 -205.5q-4.5 4.5 -4.5 11.5v78q0 16 16 16h37q7 0 11.5 -4.5t4.5 -11.5v-78q0 -7 -4.5 -11.5t-11.5 -4.5h-37
q-7 0 -11.5 4.5z" />
    <glyph glyph-name="uni1E6F" unicode="&#x1e6f;" horiz-adv-x="367" 
d="M137 40.5q-37 40.5 -35 132.5l3 296h-85v51l86 14l13 149h61v-149h154v-65h-154v-296q0 -61 23 -83.5t58 -25.5l65 -6v-58h-73q-79 0 -116 40.5zM57 -141h265v-47h-265v47z" />
    <glyph glyph-name="u" unicode="u" horiz-adv-x="588" 
d="M75 158v376h79v-356q0 -64 28.5 -89t87.5 -25q45 0 84 12.5t82 38.5v419h79v-534h-62l-17 59q-102 -65 -201 -65q-160 0 -160 164z" />
    <glyph glyph-name="uacute" unicode="&#xfa;" horiz-adv-x="588" 
d="M75 158v376h79v-356q0 -64 28.5 -89t87.5 -25q45 0 84 12.5t82 38.5v419h79v-534h-62l-17 59q-102 -65 -201 -65q-160 0 -160 164zM358 767h67l-125 -136h-46z" />
    <glyph glyph-name="ubreve" unicode="&#x16d;" horiz-adv-x="588" 
d="M75 158v376h79v-356q0 -64 28.5 -89t87.5 -25q45 0 84 12.5t82 38.5v419h79v-534h-62l-17 59q-102 -65 -201 -65q-160 0 -160 164zM184 663q-36 34 -36 107h39q0 -53 25 -78t64 -25q96 0 96 103h39q0 -75 -36 -108t-96 -33q-59 0 -95 34z" />
    <glyph glyph-name="ucircumflex" unicode="&#xfb;" horiz-adv-x="588" 
d="M75 158v376h79v-356q0 -64 28.5 -89t87.5 -25q45 0 84 12.5t82 38.5v419h79v-534h-62l-17 59q-102 -65 -201 -65q-160 0 -160 164zM261 766h56l110 -135h-48l-91 97l-100 -97h-49z" />
    <glyph glyph-name="uni0215" unicode="&#x215;" horiz-adv-x="588" 
d="M75 158v376h79v-356q0 -64 28.5 -89t87.5 -25q45 0 84 12.5t82 38.5v419h79v-534h-62l-17 59q-102 -65 -201 -65q-160 0 -160 164zM84 767h68l104 -136h-47zM230 767h68l104 -136h-47z" />
    <glyph glyph-name="udieresis" unicode="&#xfc;" horiz-adv-x="588" 
d="M75 158v376h79v-356q0 -64 28.5 -89t87.5 -25q45 0 84 12.5t82 38.5v419h79v-534h-62l-17 59q-102 -65 -201 -65q-160 0 -160 164zM157.5 657.5q-4.5 4.5 -4.5 11.5v78q0 16 16 16h36q16 0 16 -16v-78q0 -16 -16 -16h-36q-7 0 -11.5 4.5zM352.5 657.5q-4.5 4.5 -4.5 11.5
v78q0 16 16 16h36q16 0 16 -16v-78q0 -16 -16 -16h-36q-7 0 -11.5 4.5z" />
    <glyph glyph-name="uni1EE5" unicode="&#x1ee5;" horiz-adv-x="588" 
d="M75 158v376h79v-356q0 -64 28.5 -89t87.5 -25q45 0 84 12.5t82 38.5v419h79v-534h-62l-17 59q-102 -65 -201 -65q-160 0 -160 164zM252.5 -205.5q-4.5 4.5 -4.5 11.5v78q0 16 16 16h37q7 0 11.5 -4.5t4.5 -11.5v-78q0 -7 -4.5 -11.5t-11.5 -4.5h-37q-7 0 -11.5 4.5z" />
    <glyph glyph-name="ugrave" unicode="&#xf9;" horiz-adv-x="588" 
d="M75 158v376h79v-356q0 -64 28.5 -89t87.5 -25q45 0 84 12.5t82 38.5v419h79v-534h-62l-17 59q-102 -65 -201 -65q-160 0 -160 164zM157 767h67l104 -136h-46z" />
    <glyph glyph-name="uni1EE7" unicode="&#x1ee7;" horiz-adv-x="588" 
d="M75 158v376h79v-356q0 -64 28.5 -89t87.5 -25q45 0 84 12.5t82 38.5v419h79v-534h-62l-17 59q-102 -65 -201 -65q-160 0 -160 164zM268 640q56 17 56 59q0 44 -48 44q-18 0 -36 -6v34q18 6 46 6q41 0 61 -20.5t20 -56.5q0 -33 -24.5 -57.5t-74.5 -39.5v37z" />
    <glyph glyph-name="uhorn" unicode="&#x1b0;" horiz-adv-x="588" 
d="M584 540q-26 -38 -69 -48v-492h-62l-17 59q-102 -65 -201 -65q-160 0 -160 164v376h79v-356q0 -64 28.5 -89t87.5 -25q45 0 84 12.5t82 38.5v419h37q38 0 58.5 26t20.5 87h58q0 -69 -26 -107z" />
    <glyph glyph-name="uni1EE9" unicode="&#x1ee9;" horiz-adv-x="588" 
d="M584 540q-26 -38 -69 -48v-492h-62l-17 59q-102 -65 -201 -65q-160 0 -160 164v376h79v-356q0 -64 28.5 -89t87.5 -25q45 0 84 12.5t82 38.5v419h37q38 0 58.5 26t20.5 87h58q0 -69 -26 -107zM367 767h67l-125 -136h-46z" />
    <glyph glyph-name="uni1EF1" unicode="&#x1ef1;" horiz-adv-x="588" 
d="M584 540q-26 -38 -69 -48v-492h-62l-17 59q-102 -65 -201 -65q-160 0 -160 164v376h79v-356q0 -64 28.5 -89t87.5 -25q45 0 84 12.5t82 38.5v419h37q38 0 58.5 26t20.5 87h58q0 -69 -26 -107zM242.5 -205.5q-4.5 4.5 -4.5 11.5v78q0 16 16 16h37q7 0 11.5 -4.5t4.5 -11.5
v-78q0 -7 -4.5 -11.5t-11.5 -4.5h-37q-7 0 -11.5 4.5z" />
    <glyph glyph-name="uni1EEB" unicode="&#x1eeb;" horiz-adv-x="588" 
d="M584 540q-26 -38 -69 -48v-492h-62l-17 59q-102 -65 -201 -65q-160 0 -160 164v376h79v-356q0 -64 28.5 -89t87.5 -25q45 0 84 12.5t82 38.5v419h37q38 0 58.5 26t20.5 87h58q0 -69 -26 -107zM162 767h67l104 -136h-46z" />
    <glyph glyph-name="uni1EED" unicode="&#x1eed;" horiz-adv-x="588" 
d="M584 540q-26 -38 -69 -48v-492h-62l-17 59q-102 -65 -201 -65q-160 0 -160 164v376h79v-356q0 -64 28.5 -89t87.5 -25q45 0 84 12.5t82 38.5v419h37q38 0 58.5 26t20.5 87h58q0 -69 -26 -107zM275 640q56 17 56 59q0 44 -48 44q-18 0 -36 -6v34q18 6 46 6q41 0 61 -20.5
t20 -56.5q0 -33 -24.5 -57.5t-74.5 -39.5v37z" />
    <glyph glyph-name="uni1EEF" unicode="&#x1eef;" horiz-adv-x="588" 
d="M584 540q-26 -38 -69 -48v-492h-62l-17 59q-102 -65 -201 -65q-160 0 -160 164v376h79v-356q0 -64 28.5 -89t87.5 -25q45 0 84 12.5t82 38.5v419h37q38 0 58.5 26t20.5 87h58q0 -69 -26 -107zM148 728q28 26 67 26q23 0 41.5 -8.5t45.5 -24.5q21 -14 36.5 -21t31.5 -7
q26 0 43 16.5t18 46.5h40q-1 -51 -26 -80t-70 -29q-21 0 -39.5 8t-45.5 25q-23 14 -39 21.5t-32 7.5q-25 0 -41.5 -16t-17.5 -46h-41q1 55 29 81z" />
    <glyph glyph-name="uhungarumlaut" unicode="&#x171;" horiz-adv-x="588" 
d="M75 158v376h79v-356q0 -64 28.5 -89t87.5 -25q45 0 84 12.5t82 38.5v419h79v-534h-62l-17 59q-102 -65 -201 -65q-160 0 -160 164zM267 767h65l-119 -136h-46zM417 767h65l-119 -136h-46z" />
    <glyph glyph-name="uni0217" unicode="&#x217;" horiz-adv-x="588" 
d="M75 158v376h79v-356q0 -64 28.5 -89t87.5 -25q45 0 84 12.5t82 38.5v419h79v-534h-62l-17 59q-102 -65 -201 -65q-160 0 -160 164zM379 737q36 -34 36 -107h-39q0 54 -25 78.5t-64 24.5q-96 0 -96 -103h-39q0 75 36 108t96 33q59 0 95 -34z" />
    <glyph glyph-name="umacron" unicode="&#x16b;" horiz-adv-x="588" 
d="M75 158v376h79v-356q0 -64 28.5 -89t87.5 -25q45 0 84 12.5t82 38.5v419h79v-534h-62l-17 59q-102 -65 -201 -65q-160 0 -160 164zM151 719h265v-47h-265v47z" />
    <glyph glyph-name="uni1E7B" unicode="&#x1e7b;" horiz-adv-x="588" 
d="M75 158v376h79v-356q0 -64 28.5 -89t87.5 -25q45 0 84 12.5t82 38.5v419h79v-534h-62l-17 59q-102 -65 -201 -65q-160 0 -160 164zM151 719h265v-47h-265v47zM157.5 790.5q-4.5 4.5 -4.5 11.5v78q0 16 16 16h36q16 0 16 -16v-78q0 -16 -16 -16h-36q-7 0 -11.5 4.5z
M352.5 790.5q-4.5 4.5 -4.5 11.5v78q0 16 16 16h36q16 0 16 -16v-78q0 -16 -16 -16h-36q-7 0 -11.5 4.5z" />
    <glyph glyph-name="uogonek" unicode="&#x173;" horiz-adv-x="588" 
d="M540 -146v-38q-10 -3 -26 -3q-49 0 -77 25t-28 64q0 30 19 55t56 43h-31l-17 59q-102 -65 -201 -65q-160 0 -160 164v376h79v-356q0 -64 28.5 -89t87.5 -25q45 0 84 12.5t82 38.5v419h79v-534h-1q-63 -35 -63 -81q0 -30 22 -47.5t61 -17.5h6z" />
    <glyph glyph-name="uring" unicode="&#x16f;" horiz-adv-x="588" 
d="M75 158v376h79v-356q0 -64 28.5 -89t87.5 -25q45 0 84 12.5t82 38.5v419h79v-534h-62l-17 59q-102 -65 -201 -65q-160 0 -160 164zM202.5 618q-27.5 24 -27.5 82q0 59 28 83.5t84 24.5t83 -24.5t27 -83.5q0 -58 -27 -82t-83 -24q-57 0 -84.5 24zM341 642.5
q16 15.5 16 57.5t-16 58.5t-54 16.5t-55.5 -16.5t-17.5 -58.5q0 -41 17.5 -57t55.5 -16t54 15.5z" />
    <glyph glyph-name="utilde" unicode="&#x169;" horiz-adv-x="588" 
d="M75 158v376h79v-356q0 -64 28.5 -89t87.5 -25q45 0 84 12.5t82 38.5v419h79v-534h-62l-17 59q-102 -65 -201 -65q-160 0 -160 164zM150 728q28 26 67 26q23 0 41.5 -8.5t45.5 -24.5q21 -14 36.5 -21t31.5 -7q26 0 43 16.5t18 46.5h40q-1 -51 -26 -80t-70 -29
q-21 0 -39.5 8t-45.5 25q-23 14 -39 21.5t-32 7.5q-25 0 -41.5 -16t-17.5 -46h-41q1 55 29 81z" />
    <glyph glyph-name="uni1E79" unicode="&#x1e79;" horiz-adv-x="588" 
d="M75 158v376h79v-356q0 -64 28.5 -89t87.5 -25q45 0 84 12.5t82 38.5v419h79v-534h-62l-17 59q-102 -65 -201 -65q-160 0 -160 164zM150 728q28 26 67 26q23 0 41.5 -8.5t45.5 -24.5q21 -14 36.5 -21t31.5 -7q26 0 43 16.5t18 46.5h40q-1 -51 -26 -80t-70 -29
q-21 0 -39.5 8t-45.5 25q-23 14 -39 21.5t-32 7.5q-25 0 -41.5 -16t-17.5 -46h-41q1 55 29 81zM355 920h67l-125 -136h-46z" />
    <glyph glyph-name="v" unicode="v" horiz-adv-x="536" 
d="M19 534h81l166 -460l171 460h80l-207 -534h-90z" />
    <glyph glyph-name="w" unicode="w" horiz-adv-x="797" 
d="M19 534h81l131 -460l135 460h69l135 -460l127 460h81l-161 -534h-87l-131 428l-132 -428h-86z" />
    <glyph glyph-name="wacute" unicode="&#x1e83;" horiz-adv-x="797" 
d="M19 534h81l131 -460l135 460h69l135 -460l127 460h81l-161 -534h-87l-131 428l-132 -428h-86zM475 767h67l-125 -136h-46z" />
    <glyph glyph-name="wcircumflex" unicode="&#x175;" horiz-adv-x="797" 
d="M19 534h81l131 -460l135 460h69l135 -460l127 460h81l-161 -534h-87l-131 428l-132 -428h-86zM378 766h56l110 -135h-48l-91 97l-100 -97h-49z" />
    <glyph glyph-name="wdieresis" unicode="&#x1e85;" horiz-adv-x="797" 
d="M19 534h81l131 -460l135 460h69l135 -460l127 460h81l-161 -534h-87l-131 428l-132 -428h-86zM274.5 657.5q-4.5 4.5 -4.5 11.5v78q0 16 16 16h36q16 0 16 -16v-78q0 -16 -16 -16h-36q-7 0 -11.5 4.5zM469.5 657.5q-4.5 4.5 -4.5 11.5v78q0 16 16 16h36q16 0 16 -16v-78
q0 -16 -16 -16h-36q-7 0 -11.5 4.5z" />
    <glyph glyph-name="wgrave" unicode="&#x1e81;" horiz-adv-x="797" 
d="M19 534h81l131 -460l135 460h69l135 -460l127 460h81l-161 -534h-87l-131 428l-132 -428h-86zM274 767h67l104 -136h-46z" />
    <glyph glyph-name="x" unicode="x" horiz-adv-x="507" 
d="M298 263l188 -263h-82l-153 214l-149 -214h-80l188 271l-188 263h81l155 -215l146 214l82 1z" />
    <glyph glyph-name="y" unicode="y" horiz-adv-x="541" 
d="M287 0q-45 1 -82 29.5t-58 95.5l-128 409h83l119 -392q25 -74 83 -74l137 466h81l-195 -672l-46 -99h-62z" />
    <glyph glyph-name="yacute" unicode="&#xfd;" horiz-adv-x="541" 
d="M287 0q-45 1 -82 29.5t-58 95.5l-128 409h83l119 -392q25 -74 83 -74l137 466h81l-195 -672l-46 -99h-62zM339 767h67l-125 -136h-46z" />
    <glyph glyph-name="ycircumflex" unicode="&#x177;" horiz-adv-x="541" 
d="M287 0q-45 1 -82 29.5t-58 95.5l-128 409h83l119 -392q25 -74 83 -74l137 466h81l-195 -672l-46 -99h-62zM242 766h56l110 -135h-48l-91 97l-100 -97h-49z" />
    <glyph glyph-name="ydieresis" unicode="&#xff;" horiz-adv-x="541" 
d="M287 0q-45 1 -82 29.5t-58 95.5l-128 409h83l119 -392q25 -74 83 -74l137 466h81l-195 -672l-46 -99h-62zM138.5 657.5q-4.5 4.5 -4.5 11.5v78q0 16 16 16h36q16 0 16 -16v-78q0 -16 -16 -16h-36q-7 0 -11.5 4.5zM333.5 657.5q-4.5 4.5 -4.5 11.5v78q0 16 16 16h36
q16 0 16 -16v-78q0 -16 -16 -16h-36q-7 0 -11.5 4.5z" />
    <glyph glyph-name="uni1E8F" unicode="&#x1e8f;" horiz-adv-x="541" 
d="M287 0q-45 1 -82 29.5t-58 95.5l-128 409h83l119 -392q25 -74 83 -74l137 466h81l-195 -672l-46 -99h-62zM425.5 -205.5q-4.5 4.5 -4.5 11.5v78q0 16 16 16h37q7 0 11.5 -4.5t4.5 -11.5v-78q0 -7 -4.5 -11.5t-11.5 -4.5h-37q-7 0 -11.5 4.5z" />
    <glyph glyph-name="uni1EF5" unicode="&#x1ef5;" horiz-adv-x="541" 
d="M287 0q-45 1 -82 29.5t-58 95.5l-128 409h83l119 -392q25 -74 83 -74l137 466h81l-195 -672l-46 -99h-62zM425.5 -205.5q-4.5 4.5 -4.5 11.5v78q0 16 16 16h37q7 0 11.5 -4.5t4.5 -11.5v-78q0 -7 -4.5 -11.5t-11.5 -4.5h-37q-7 0 -11.5 4.5z" />
    <glyph glyph-name="ygrave" unicode="&#x1ef3;" horiz-adv-x="541" 
d="M287 0q-45 1 -82 29.5t-58 95.5l-128 409h83l119 -392q25 -74 83 -74l137 466h81l-195 -672l-46 -99h-62zM138 767h67l104 -136h-46z" />
    <glyph glyph-name="uni1EF7" unicode="&#x1ef7;" horiz-adv-x="541" 
d="M287 0q-45 1 -82 29.5t-58 95.5l-128 409h83l119 -392q25 -74 83 -74l137 466h81l-195 -672l-46 -99h-62zM249 640q56 17 56 59q0 44 -48 44q-18 0 -36 -6v34q18 6 46 6q41 0 61 -20.5t20 -56.5q0 -33 -24.5 -57.5t-74.5 -39.5v37z" />
    <glyph glyph-name="uni0233" unicode="&#x233;" horiz-adv-x="541" 
d="M287 0q-45 1 -82 29.5t-58 95.5l-128 409h83l119 -392q25 -74 83 -74l137 466h81l-195 -672l-46 -99h-62zM132 719h265v-47h-265v47z" />
    <glyph glyph-name="uni1EF9" unicode="&#x1ef9;" horiz-adv-x="541" 
d="M287 0q-45 1 -82 29.5t-58 95.5l-128 409h83l119 -392q25 -74 83 -74l137 466h81l-195 -672l-46 -99h-62zM131 728q28 26 67 26q23 0 41.5 -8.5t45.5 -24.5q21 -14 36.5 -21t31.5 -7q26 0 43 16.5t18 46.5h40q-1 -51 -26 -80t-70 -29q-21 0 -39.5 8t-45.5 25
q-23 14 -39 21.5t-32 7.5q-25 0 -41.5 -16t-17.5 -46h-41q1 55 29 81z" />
    <glyph glyph-name="z" unicode="z" horiz-adv-x="494" 
d="M51 60l308 409h-315v65h407v-60l-309 -409h309v-65h-400v60z" />
    <glyph glyph-name="zacute" unicode="&#x17a;" horiz-adv-x="494" 
d="M51 60l308 409h-315v65h407v-60l-309 -409h309v-65h-400v60zM309 767h67l-125 -136h-46z" />
    <glyph glyph-name="zcaron" unicode="&#x17e;" horiz-adv-x="494" 
d="M51 60l308 409h-315v65h407v-60l-309 -409h309v-65h-400v60zM97 766h48l92 -97l100 97h48l-121 -135h-56z" />
    <glyph glyph-name="zdotaccent" unicode="&#x17c;" horiz-adv-x="494" 
d="M51 60l308 409h-315v65h407v-60l-309 -409h309v-65h-400v60zM206.5 664.5q-4.5 4.5 -4.5 11.5v78q0 16 16 16h37q7 0 11 -4.5t4 -11.5v-78q0 -7 -4 -11.5t-11 -4.5h-37q-7 0 -11.5 4.5z" />
    <glyph glyph-name="uni1E93" unicode="&#x1e93;" horiz-adv-x="494" 
d="M51 60l308 409h-315v65h407v-60l-309 -409h309v-65h-400v60zM203.5 -205.5q-4.5 4.5 -4.5 11.5v78q0 16 16 16h37q7 0 11.5 -4.5t4.5 -11.5v-78q0 -7 -4.5 -11.5t-11.5 -4.5h-37q-7 0 -11.5 4.5z" />
    <glyph glyph-name="c_h" horiz-adv-x="1071" 
d="M123 53.5q-66 59.5 -66 212.5q0 107 25.5 167t72.5 83.5t117 23.5q96 0 177 -14v-47h-156q-55 0 -88.5 -18t-51 -64.5t-17.5 -132.5q0 -82 22.5 -127.5t62.5 -63t100 -17.5q120 0 179 40t59 133v534h79v-288q41 29 92.5 48.5t103.5 19.5q81 0 123 -50t42 -129v-364h-80
v355q0 51 -30 83.5t-81 32.5q-47 0 -85 -12.5t-85 -39.5v-189q0 -122 -80.5 -179t-246.5 -57q-122 0 -188 59.5z" />
    <glyph glyph-name="c_k" horiz-adv-x="976" 
d="M394 32q-70 -38 -144 -38q-62 0 -104 23.5t-65.5 83.5t-23.5 165q0 107 25.5 167t72.5 83.5t117 23.5q96 0 177 -14v-47h-156q-55 0 -88.5 -18t-51 -64.5t-17.5 -132.5q0 -82 15.5 -127.5t44 -63t72.5 -17.5q59 0 128 40.5t149 112.5v554h80v-491l239 262h84l-199 -226
l210 -308h-83l-181 266l-70 -74v-192h-80v140q-81 -70 -151 -108z" />
    <glyph glyph-name="c_t" horiz-adv-x="834" 
d="M112.5 53.5q-55.5 59.5 -55.5 212.5q0 107 30 167t84.5 83.5t137.5 23.5q43 0 130 -3t135 -7l12 153h61v-149h153v-65h-153v-296q0 -61 22.5 -83t57.5 -26l66 -6v-58h-73q-79 0 -116 40.5t-36 132.5l4 306h-252q-64 0 -103.5 -18t-60 -64.5t-20.5 -132.5
q0 -82 18.5 -127.5t52.5 -63t87 -17.5h163v-46q-94 -16 -187 -16q-102 0 -157.5 59.5z" />
    <glyph glyph-name="f_t" horiz-adv-x="735" 
d="M548 469v-296q0 -61 23 -83.5t58 -25.5l65 -6v-58h-73q-79 0 -116 40.5t-35 132.5l3 296h-289v-469h-79v469h-82v51l82 14v61q0 89 34.5 131.5t118.5 42.5q51 0 103 -10v-56h-89q-51 0 -69.5 -24.5t-18.5 -79.5v-65h290l13 149h61v-149h154v-65h-154z" />
    <glyph glyph-name="f_y" horiz-adv-x="921" 
d="M902 534l-195 -672l-47 -99h-61l68 237q-45 1 -82 29.5t-58 95.5l-88 265q-13 42 -33.5 60.5t-55.5 18.5h-166v-469h-79v469h-82v51l82 14v61q0 89 34.5 131.5t118.5 42.5q51 0 103 -10v-56h-89q-51 0 -69.5 -24.5t-18.5 -79.5v-65h166q76 0 111.5 -25t52.5 -90l87 -277
q25 -74 83 -74l137 466h81z" />
    <glyph glyph-name="s_t" horiz-adv-x="859" 
d="M147 -2q-68 4 -93 10v48h219q56 0 82 15t26 63v24q0 75 -97 75h-75q-77 0 -118.5 30t-41.5 102v30q0 75 51.5 109.5t166.5 34.5q67 0 165 -3t165 -7l12 154h61v-149h154v-65h-154v-296q0 -61 23 -83t58 -26l66 -6v-58h-74q-79 0 -116 40.5t-35 132.5l3 303h-358
q-61 0 -90 -18t-29 -65v-22q0 -44 25.5 -58t78.5 -14h76q73 0 113 -34t40 -98v-37q0 -76 -49 -106t-142 -30q-45 0 -113 4z" />
    <glyph glyph-name="t_t" horiz-adv-x="734" 
d="M547 469v-296q0 -61 23 -83.5t58 -25.5l65 -6v-58h-73q-79 0 -116 40.5t-35 132.5l3 296h-292v-296q0 -61 23 -83t58 -26l65 -6v-58h-73q-79 0 -116 40.5t-35 132.5l3 296h-85v51l86 14l13 149h61v-149h293l13 149h61v-149h154v-65h-154z" />
    <glyph glyph-name="t_y" horiz-adv-x="908" 
d="M890 534l-198 -672l-47 -100h-62l72 238q-46 1 -83 29.5t-58 95.5l-90 272q-11 37 -32 54.5t-58 17.5h-154v-296q0 -61 23 -83.5t58 -25.5l65 -6v-58h-73q-79 0 -116 40.5t-35 132.5l3 296h-85v51l86 14l13 149h61v-149h154q73 0 111.5 -26t55.5 -89l88 -277
q24 -74 82 -74l138 466h81z" />
    <glyph glyph-name="uni1E9E.smcp" horiz-adv-x="573" 
d="M478.5 270q37.5 -33 37.5 -95v-40q0 -79 -47.5 -109.5t-131.5 -30.5q-26 0 -63.5 3.5t-59.5 8.5v56q39 -3 113 -3q56 0 86 16t30 60v35q0 37 -20.5 55t-67.5 18h-101v59l151 192h-180q-37 0 -57 -18t-20 -53v-424h-76v423q0 71 41 104t106 33q57 0 148.5 -2t117.5 -4v-55
l-155 -196h40q71 0 108.5 -33z" />
    <glyph glyph-name="a.smcp" horiz-adv-x="570" 
d="M340 560l193 -560h-79l-54 151h-231l-54 -151h-78l193 560h110zM284 503l-101 -294h202z" />
    <glyph glyph-name="aacute.smcp" horiz-adv-x="570" 
d="M340 560l193 -560h-79l-54 151h-231l-54 -151h-78l193 560h110zM284 503l-101 -294h202zM356 767h67l-125 -136h-46z" />
    <glyph glyph-name="abreve.smcp" horiz-adv-x="570" 
d="M340 560l193 -560h-79l-54 151h-231l-54 -151h-78l193 560h110zM284 503l-101 -294h202zM182 663q-36 34 -36 107h39q0 -53 25 -78t64 -25q96 0 96 103h39q0 -75 -36 -108t-96 -33q-59 0 -95 34z" />
    <glyph glyph-name="uni1EAF.smcp" horiz-adv-x="570" 
d="M340 560l193 -560h-79l-54 151h-231l-54 -151h-78l193 560h110zM284 503l-101 -294h202zM353 877h67l-125 -136h-46zM210 675.5q25 -18.5 64 -18.5q46 0 71 18t25 59h39q0 -60 -36 -86t-96 -26q-58 0 -94.5 27t-36.5 85h39q0 -40 25 -58.5z" />
    <glyph glyph-name="uni1EB7.smcp" horiz-adv-x="570" 
d="M340 560l193 -560h-79l-54 151h-231l-54 -151h-78l193 560h110zM284 503l-101 -294h202zM182 663q-36 34 -36 107h39q0 -53 25 -78t64 -25q96 0 96 103h39q0 -75 -36 -108t-96 -33q-59 0 -95 34zM250.5 -202.5q-4.5 4.5 -4.5 11.5v78q0 16 16 16h37q7 0 11.5 -4.5
t4.5 -11.5v-78q0 -7 -4.5 -11.5t-11.5 -4.5h-37q-7 0 -11.5 4.5z" />
    <glyph glyph-name="uni1EB1.smcp" horiz-adv-x="570" 
d="M340 560l193 -560h-79l-54 151h-231l-54 -151h-78l193 560h110zM284 503l-101 -294h202zM145 877h67l104 -136h-46zM210 675.5q25 -18.5 64 -18.5q46 0 71 18t25 59h39q0 -60 -36 -86t-96 -26q-58 0 -94.5 27t-36.5 85h39q0 -40 25 -58.5z" />
    <glyph glyph-name="uni1EB3.smcp" horiz-adv-x="570" 
d="M340 560l193 -560h-79l-54 151h-231l-54 -151h-78l193 560h110zM284 503l-101 -294h202zM261 736q56 17 56 59q0 44 -48 44q-18 0 -36 -6v34q18 6 46 6q41 0 61 -20.5t20 -56.5q0 -33 -24.5 -57.5t-74.5 -39.5v37zM182.5 649q-36.5 27 -36.5 85h39q0 -40 25 -58.5
t64 -18.5q46 0 71 18t25 59h39q0 -60 -36 -86t-96 -26q-58 0 -94.5 27z" />
    <glyph glyph-name="uni1EB5.smcp" horiz-adv-x="570" 
d="M340 560l193 -560h-79l-54 151h-231l-54 -151h-78l193 560h110zM284 503l-101 -294h202zM240.5 846q17.5 -6 42.5 -17q40 -19 64 -19t39 11.5t15 32.5h40q-3 -84 -83 -84q-18 0 -35.5 5.5t-40.5 16.5q-22 10 -37 15t-30 5q-23 0 -37.5 -11t-14.5 -32h-41q2 45 25 64
t57 19q19 0 36.5 -6zM210 675.5q25 -18.5 64 -18.5q46 0 71 18t25 59h39q0 -60 -36 -86t-96 -26q-58 0 -94.5 27t-36.5 85h39q0 -40 25 -58.5z" />
    <glyph glyph-name="acircumflex.smcp" horiz-adv-x="570" 
d="M340 560l193 -560h-79l-54 151h-231l-54 -151h-78l193 560h110zM284 503l-101 -294h202zM259 766h56l110 -135h-48l-91 97l-100 -97h-49z" />
    <glyph glyph-name="uni1EA5.smcp" horiz-adv-x="570" 
d="M340 560l193 -560h-79l-54 151h-231l-54 -151h-78l193 560h110zM284 503l-101 -294h202zM523 837l-109 -129h-46l87 129h68zM315 729l110 -98h-48l-92 61l-100 -61h-48l121 98h57z" />
    <glyph glyph-name="uni1EAD.smcp" horiz-adv-x="570" 
d="M340 560l193 -560h-79l-54 151h-231l-54 -151h-78l193 560h110zM284 503l-101 -294h202zM259 766h56l110 -135h-48l-91 97l-100 -97h-49zM250.5 -202.5q-4.5 4.5 -4.5 11.5v78q0 16 16 16h37q7 0 11.5 -4.5t4.5 -11.5v-78q0 -7 -4.5 -11.5t-11.5 -4.5h-37q-7 0 -11.5 4.5
z" />
    <glyph glyph-name="uni1EA7.smcp" horiz-adv-x="570" 
d="M340 560l193 -560h-79l-54 151h-231l-54 -151h-78l193 560h110zM284 503l-101 -294h202zM113 837l87 -129h-46l-109 129h68zM315 729l110 -98h-48l-92 61l-100 -61h-48l121 98h57z" />
    <glyph glyph-name="uni1EA9.smcp" horiz-adv-x="570" 
d="M340 560l193 -560h-79l-54 151h-231l-54 -151h-78l193 560h110zM284 503l-101 -294h202zM391 719q26 8 38 21.5t12 29.5q0 37 -42 37q-13 0 -35 -6v30q20 7 45 7q36 0 54 -17.5t18 -47.5t-22 -53.5t-68 -36.5v36zM258 729h57l110 -98h-48l-92 61l-100 -61h-48z" />
    <glyph glyph-name="uni1EAB.smcp" horiz-adv-x="570" 
d="M340 560l193 -560h-79l-54 151h-231l-54 -151h-78l193 560h110zM284 503l-101 -294h202zM240.5 853q17.5 -6 42.5 -17q40 -19 64 -19t39 11.5t15 32.5h40q-3 -85 -83 -85q-19 0 -36 5.5t-42 16.5q-23 10 -38.5 15t-30.5 5q-21 0 -34.5 -11t-13.5 -31h-41q2 45 25 64
t57 19q19 0 36.5 -6zM425 631h-48l-92 61l-100 -61h-48l121 98h57z" />
    <glyph glyph-name="uni0201.smcp" horiz-adv-x="570" 
d="M340 560l193 -560h-79l-54 151h-231l-54 -151h-78l193 560h110zM284 503l-101 -294h202zM83 767h68l104 -136h-47zM229 767h68l104 -136h-47z" />
    <glyph glyph-name="adieresis.smcp" horiz-adv-x="570" 
d="M340 560l193 -560h-79l-54 151h-231l-54 -151h-78l193 560h110zM284 503l-101 -294h202zM155.5 657.5q-4.5 4.5 -4.5 11.5v78q0 16 16 16h36q16 0 16 -16v-78q0 -16 -16 -16h-36q-7 0 -11.5 4.5zM350.5 657.5q-4.5 4.5 -4.5 11.5v78q0 16 16 16h36q16 0 16 -16v-78
q0 -16 -16 -16h-36q-7 0 -11.5 4.5z" />
    <glyph glyph-name="uni1EA1.smcp" horiz-adv-x="570" 
d="M340 560l193 -560h-79l-54 151h-231l-54 -151h-78l193 560h110zM284 503l-101 -294h202zM250.5 -202.5q-4.5 4.5 -4.5 11.5v78q0 16 16 16h37q7 0 11.5 -4.5t4.5 -11.5v-78q0 -7 -4.5 -11.5t-11.5 -4.5h-37q-7 0 -11.5 4.5z" />
    <glyph glyph-name="agrave.smcp" horiz-adv-x="570" 
d="M340 560l193 -560h-79l-54 151h-231l-54 -151h-78l193 560h110zM284 503l-101 -294h202zM155 767h67l104 -136h-46z" />
    <glyph glyph-name="uni1EA3.smcp" horiz-adv-x="570" 
d="M340 560l193 -560h-79l-54 151h-231l-54 -151h-78l193 560h110zM284 503l-101 -294h202zM266 640q56 17 56 59q0 44 -48 44q-18 0 -36 -6v34q18 6 46 6q41 0 61 -20.5t20 -56.5q0 -33 -24.5 -57.5t-74.5 -39.5v37z" />
    <glyph glyph-name="uni0203.smcp" horiz-adv-x="570" 
d="M340 560l193 -560h-79l-54 151h-231l-54 -151h-78l193 560h110zM284 503l-101 -294h202zM377 737q36 -34 36 -107h-39q0 54 -25 78.5t-64 24.5q-96 0 -96 -103h-39q0 75 36 108t96 33q59 0 95 -34z" />
    <glyph glyph-name="amacron.smcp" horiz-adv-x="570" 
d="M340 560l193 -560h-79l-54 151h-231l-54 -151h-78l193 560h110zM284 503l-101 -294h202zM149 719h265v-47h-265v47z" />
    <glyph glyph-name="aogonek.smcp" horiz-adv-x="570" 
d="M340 560l193 -560h-79l-54 151h-231l-54 -151h-78l193 560h110zM284 503l-101 -294h202zM407 -162q-28 25 -28 64q0 30 19 55t56 43h30q-63 -35 -63 -81q0 -30 22 -47.5t61 -17.5h6v-38q-11 -3 -26 -3q-49 0 -77 25z" />
    <glyph glyph-name="aring.smcp" horiz-adv-x="570" 
d="M340 560l193 -560h-79l-54 151h-231l-54 -151h-78l193 560h110zM284 503l-101 -294h202zM200.5 618q-27.5 24 -27.5 82q0 59 28 83.5t84 24.5t83 -24.5t27 -83.5q0 -58 -27 -82t-83 -24q-57 0 -84.5 24zM339 642.5q16 15.5 16 57.5t-16 58.5t-54 16.5t-55.5 -16.5
t-17.5 -58.5q0 -41 17.5 -57t55.5 -16t54 15.5z" />
    <glyph glyph-name="aringacute.smcp" horiz-adv-x="570" 
d="M200.5 618q-27.5 24 -27.5 82q0 53 22.5 78t68.5 29l92 120h67l-111 -121q42 -5 62.5 -30t20.5 -76q0 -58 -27 -82t-83 -24q-57 0 -84.5 24zM229.5 758.5q-17.5 -16.5 -17.5 -58.5q0 -41 17.5 -57t55.5 -16t54 15.5t16 57.5t-16 58.5t-54 16.5t-55.5 -16.5zM533 0h-79
l-54 151h-231l-54 -151h-78l193 560h110zM385 209l-101 294l-101 -294h202z" />
    <glyph glyph-name="atilde.smcp" horiz-adv-x="570" 
d="M340 560l193 -560h-79l-54 151h-231l-54 -151h-78l193 560h110zM284 503l-101 -294h202zM149 728q28 26 67 26q23 0 41.5 -8.5t45.5 -24.5q21 -14 36.5 -21t31.5 -7q26 0 43 16.5t18 46.5h40q-1 -51 -26 -80t-70 -29q-21 0 -39.5 8t-45.5 25q-23 14 -39 21.5t-32 7.5
q-25 0 -41.5 -16t-17.5 -46h-41q1 55 29 81z" />
    <glyph glyph-name="ae.smcp" horiz-adv-x="803" 
d="M394 537.5q42 22.5 113 22.5q47 -1 122.5 -3.5t118.5 -4.5v-55h-226q-31 0 -42.5 -11t-11.5 -37v-140l244 -4v-53l-244 -5v-124q0 -33 17.5 -48t54.5 -15h208v-54q-19 -3 -100.5 -5.5t-125.5 -3.5q-60 0 -91 21t-34 71l3 61h-191l-98 -150h-74l283 460q32 55 74 77.5z
M397 460l-156 -252h156v252z" />
    <glyph glyph-name="aeacute.smcp" horiz-adv-x="803" 
d="M394 537.5q42 22.5 113 22.5q47 -1 122.5 -3.5t118.5 -4.5v-55h-226q-31 0 -42.5 -11t-11.5 -37v-140l244 -4v-53l-244 -5v-124q0 -33 17.5 -48t54.5 -15h208v-54q-19 -3 -100.5 -5.5t-125.5 -3.5q-60 0 -91 21t-34 71l3 61h-191l-98 -150h-74l283 460q32 55 74 77.5z
M397 460l-156 -252h156v252zM511 774h67l-125 -136h-46z" />
    <glyph glyph-name="b.smcp" horiz-adv-x="514" 
d="M294 560q155 0 155 -144q0 -49 -24 -82t-61 -43q43 -11 75 -44t32 -92q0 -85 -43 -120t-126 -35h-230v560h222zM353.5 338.5q22.5 27.5 22.5 70.5q0 89 -86 89h-142v-187h145q38 0 60.5 27.5zM369.5 85q25.5 23 25.5 82q0 45 -28 70.5t-71 25.5h-148v-201h148
q48 0 73.5 23z" />
    <glyph glyph-name="uni1E03.smcp" horiz-adv-x="514" 
d="M294 560q155 0 155 -144q0 -49 -24 -82t-61 -43q43 -11 75 -44t32 -92q0 -85 -43 -120t-126 -35h-230v560h222zM353.5 338.5q22.5 27.5 22.5 70.5q0 89 -86 89h-142v-187h145q38 0 60.5 27.5zM369.5 85q25.5 23 25.5 82q0 45 -28 70.5t-71 25.5h-148v-201h148
q48 0 73.5 23zM218.5 664.5q-4.5 4.5 -4.5 11.5v78q0 16 16 16h37q7 0 11 -4.5t4 -11.5v-78q0 -7 -4 -11.5t-11 -4.5h-37q-7 0 -11.5 4.5z" />
    <glyph glyph-name="c.smcp" horiz-adv-x="493" 
d="M361 558.5q48 -6.5 85 -15.5v-54q-77 11 -161 11q-59 0 -91 -17.5t-46.5 -64t-14.5 -137.5q0 -93 14 -140t45 -64t91 -17q105 0 163 9v-55q-85 -19 -179 -19q-76 0 -120.5 22.5t-67 84.5t-22.5 180q0 112 23 173.5t69.5 85.5t122.5 24q41 0 89 -6.5z" />
    <glyph glyph-name="cacute.smcp" horiz-adv-x="493" 
d="M361 558.5q48 -6.5 85 -15.5v-54q-77 11 -161 11q-59 0 -91 -17.5t-46.5 -64t-14.5 -137.5q0 -93 14 -140t45 -64t91 -17q105 0 163 9v-55q-85 -19 -179 -19q-76 0 -120.5 22.5t-67 84.5t-22.5 180q0 112 23 173.5t69.5 85.5t122.5 24q41 0 89 -6.5zM343 774h67
l-125 -136h-46z" />
    <glyph glyph-name="ccaron.smcp" horiz-adv-x="493" 
d="M361 558.5q48 -6.5 85 -15.5v-54q-77 11 -161 11q-59 0 -91 -17.5t-46.5 -64t-14.5 -137.5q0 -93 14 -140t45 -64t91 -17q105 0 163 9v-55q-85 -19 -179 -19q-76 0 -120.5 22.5t-67 84.5t-22.5 180q0 112 23 173.5t69.5 85.5t122.5 24q41 0 89 -6.5zM131 773h48l92 -97
l100 97h48l-121 -135h-56z" />
    <glyph glyph-name="ccedilla.smcp" horiz-adv-x="493" 
d="M194 482.5q-32 -17.5 -46.5 -64t-14.5 -137.5q0 -93 14 -140t45 -64t91 -17q105 0 163 9v-55q-69 -15 -145 -18l-33 -50q72 -4 72 -64q0 -34 -25 -53t-71 -19h-33v33l22 2q28 3 42 13.5t14 31.5q0 19 -14.5 31t-51.5 13l40 61q-74 1 -118 23.5t-66 84.5t-22 179
q0 112 23 173.5t69.5 85.5t122.5 24q41 0 89 -6.5t85 -15.5v-54q-77 11 -161 11q-59 0 -91 -17.5z" />
    <glyph glyph-name="uni1E09.smcp" horiz-adv-x="493" 
d="M285 638h-46l104 136h67zM194 482.5q-32 -17.5 -46.5 -64t-14.5 -137.5q0 -93 14 -140t45 -64t91 -17q105 0 163 9v-55q-69 -15 -145 -18l-33 -50q72 -4 72 -64q0 -34 -25 -53t-71 -19h-33v33l22 2q28 3 42 13.5t14 31.5q0 19 -14.5 31t-51.5 13l40 61q-74 1 -118 23.5
t-66 84.5t-22 179q0 112 23 173.5t69.5 85.5t122.5 24q41 0 89 -6.5t85 -15.5v-54q-77 11 -161 11q-59 0 -91 -17.5z" />
    <glyph glyph-name="ccircumflex.smcp" horiz-adv-x="493" 
d="M361 558.5q48 -6.5 85 -15.5v-54q-77 11 -161 11q-59 0 -91 -17.5t-46.5 -64t-14.5 -137.5q0 -93 14 -140t45 -64t91 -17q105 0 163 9v-55q-85 -19 -179 -19q-76 0 -120.5 22.5t-67 84.5t-22.5 180q0 112 23 173.5t69.5 85.5t122.5 24q41 0 89 -6.5zM246 773h56l110 -135
h-48l-91 97l-100 -97h-49z" />
    <glyph glyph-name="cdotaccent.smcp" horiz-adv-x="493" 
d="M361 558.5q48 -6.5 85 -15.5v-54q-77 11 -161 11q-59 0 -91 -17.5t-46.5 -64t-14.5 -137.5q0 -93 14 -140t45 -64t91 -17q105 0 163 9v-55q-85 -19 -179 -19q-76 0 -120.5 22.5t-67 84.5t-22.5 180q0 112 23 173.5t69.5 85.5t122.5 24q41 0 89 -6.5zM240.5 671.5
q-4.5 4.5 -4.5 11.5v78q0 16 16 16h37q7 0 11 -4.5t4 -11.5v-78q0 -7 -4 -11.5t-11 -4.5h-37q-7 0 -11.5 4.5z" />
    <glyph glyph-name="d.smcp" horiz-adv-x="566" 
d="M310 560q106 0 152 -70.5t46 -209.5q0 -135 -50 -207.5t-148 -72.5h-238v560h238zM401 121q31 56 31 159q0 80 -13.5 127t-41.5 67.5t-73 20.5h-156v-430h156q66 0 97 56z" />
    <glyph glyph-name="eth.smcp" horiz-adv-x="566" 
d="M462 489.5q46 -70.5 46 -209.5q0 -135 -50 -207.5t-148 -72.5h-238v259h-48v48h48v253h238q106 0 152 -70.5zM401 121q31 56 31 159q0 80 -13.5 127t-41.5 67.5t-73 20.5h-156v-188h127v-48h-127v-194h156q66 0 97 56z" />
    <glyph glyph-name="dcaron.smcp" horiz-adv-x="566" 
d="M310 560q106 0 152 -70.5t46 -209.5q0 -135 -50 -207.5t-148 -72.5h-238v560h238zM401 121q31 56 31 159q0 80 -13.5 127t-41.5 67.5t-73 20.5h-156v-430h156q66 0 97 56zM130 766h48l92 -97l100 97h48l-121 -135h-56z" />
    <glyph glyph-name="dcroat.smcp" horiz-adv-x="566" 
d="M462 489.5q46 -70.5 46 -209.5q0 -135 -50 -207.5t-148 -72.5h-238v259h-48v48h48v253h238q106 0 152 -70.5zM401 121q31 56 31 159q0 80 -13.5 127t-41.5 67.5t-73 20.5h-156v-188h127v-48h-127v-194h156q66 0 97 56z" />
    <glyph glyph-name="uni1E0B.smcp" horiz-adv-x="566" 
d="M310 560q106 0 152 -70.5t46 -209.5q0 -135 -50 -207.5t-148 -72.5h-238v560h238zM401 121q31 56 31 159q0 80 -13.5 127t-41.5 67.5t-73 20.5h-156v-430h156q66 0 97 56zM239.5 664.5q-4.5 4.5 -4.5 11.5v78q0 16 16 16h37q7 0 11 -4.5t4 -11.5v-78q0 -7 -4 -11.5
t-11 -4.5h-37q-7 0 -11.5 4.5z" />
    <glyph glyph-name="uni1E0D.smcp" horiz-adv-x="566" 
d="M310 560q106 0 152 -70.5t46 -209.5q0 -135 -50 -207.5t-148 -72.5h-238v560h238zM401 121q31 56 31 159q0 80 -13.5 127t-41.5 67.5t-73 20.5h-156v-430h156q66 0 97 56zM221.5 -205.5q-4.5 4.5 -4.5 11.5v78q0 16 16 16h37q7 0 11.5 -4.5t4.5 -11.5v-78
q0 -7 -4.5 -11.5t-11.5 -4.5h-37q-7 0 -11.5 4.5z" />
    <glyph glyph-name="uni1E0F.smcp" horiz-adv-x="566" 
d="M310 560q106 0 152 -70.5t46 -209.5q0 -135 -50 -207.5t-148 -72.5h-238v560h238zM401 121q31 56 31 159q0 80 -13.5 127t-41.5 67.5t-73 20.5h-156v-430h156q66 0 97 56zM119 -141h265v-47h-265v47z" />
    <glyph glyph-name="e.smcp" horiz-adv-x="499" 
d="M106.5 533q34.5 27 83.5 27q59 0 148 -3t105 -5v-55h-230q-31 0 -48 -15.5t-17 -46.5v-126l259 -4v-53l-259 -5v-124q0 -37 18 -50t49 -13h228v-55q-19 -3 -106 -5.5t-135 -2.5q-54 -1 -92 20.5t-38 87.5v342q0 59 34.5 86z" />
    <glyph glyph-name="eacute.smcp" horiz-adv-x="499" 
d="M106.5 533q34.5 27 83.5 27q59 0 148 -3t105 -5v-55h-230q-31 0 -48 -15.5t-17 -46.5v-126l259 -4v-53l-259 -5v-124q0 -37 18 -50t49 -13h228v-55q-19 -3 -106 -5.5t-135 -2.5q-54 -1 -92 20.5t-38 87.5v342q0 59 34.5 86zM335 767h67l-125 -136h-46z" />
    <glyph glyph-name="ebreve.smcp" horiz-adv-x="499" 
d="M106.5 533q34.5 27 83.5 27q59 0 148 -3t105 -5v-55h-230q-31 0 -48 -15.5t-17 -46.5v-126l259 -4v-53l-259 -5v-124q0 -37 18 -50t49 -13h228v-55q-19 -3 -106 -5.5t-135 -2.5q-54 -1 -92 20.5t-38 87.5v342q0 59 34.5 86zM161 663q-36 34 -36 107h39q0 -53 25 -78
t64 -25q96 0 96 103h39q0 -75 -36 -108t-96 -33q-59 0 -95 34z" />
    <glyph glyph-name="ecaron.smcp" horiz-adv-x="499" 
d="M106.5 533q34.5 27 83.5 27q59 0 148 -3t105 -5v-55h-230q-31 0 -48 -15.5t-17 -46.5v-126l259 -4v-53l-259 -5v-124q0 -37 18 -50t49 -13h228v-55q-19 -3 -106 -5.5t-135 -2.5q-54 -1 -92 20.5t-38 87.5v342q0 59 34.5 86zM123 766h48l92 -97l100 97h48l-121 -135h-56z
" />
    <glyph glyph-name="uni1E1D.smcp" horiz-adv-x="499" 
d="M161 663q-36 34 -36 107h39q0 -53 25 -78t64 -25q96 0 96 103h39q0 -75 -36 -108t-96 -33q-59 0 -95 34zM165 481.5q-17 -15.5 -17 -46.5v-126l259 -4v-53l-259 -5v-124q0 -37 18 -50t49 -13h228v-55q-35 -4 -149 -6l-35 -53q72 -4 72 -64q0 -34 -25 -53t-71 -19h-33v33
l22 2q28 3 42 13.5t14 31.5q0 19 -14.5 31t-51.5 13l42 64q-25 -1 -54 -1q-54 -1 -92 20.5t-38 87.5v342q0 59 34.5 86t83.5 27q59 0 148 -3t105 -5v-55h-230q-31 0 -48 -15.5z" />
    <glyph glyph-name="ecircumflex.smcp" horiz-adv-x="499" 
d="M106.5 533q34.5 27 83.5 27q59 0 148 -3t105 -5v-55h-230q-31 0 -48 -15.5t-17 -46.5v-126l259 -4v-53l-259 -5v-124q0 -37 18 -50t49 -13h228v-55q-19 -3 -106 -5.5t-135 -2.5q-54 -1 -92 20.5t-38 87.5v342q0 59 34.5 86zM238 766h56l110 -135h-48l-91 97l-100 -97h-49
z" />
    <glyph glyph-name="uni1EBF.smcp" horiz-adv-x="499" 
d="M106.5 533q34.5 27 83.5 27q59 0 148 -3t105 -5v-55h-230q-31 0 -48 -15.5t-17 -46.5v-126l259 -4v-53l-259 -5v-124q0 -37 18 -50t49 -13h228v-55q-19 -3 -106 -5.5t-135 -2.5q-54 -1 -92 20.5t-38 87.5v342q0 59 34.5 86zM502 837l-109 -129h-46l87 129h68zM294 729
l110 -98h-48l-92 61l-100 -61h-48l121 98h57z" />
    <glyph glyph-name="uni1EC7.smcp" horiz-adv-x="499" 
d="M106.5 533q34.5 27 83.5 27q59 0 148 -3t105 -5v-55h-230q-31 0 -48 -15.5t-17 -46.5v-126l259 -4v-53l-259 -5v-124q0 -37 18 -50t49 -13h228v-55q-19 -3 -106 -5.5t-135 -2.5q-54 -1 -92 20.5t-38 87.5v342q0 59 34.5 86zM238 766h56l110 -135h-48l-91 97l-100 -97h-49
zM238.5 -205.5q-4.5 4.5 -4.5 11.5v78q0 16 16 16h37q7 0 11.5 -4.5t4.5 -11.5v-78q0 -7 -4.5 -11.5t-11.5 -4.5h-37q-7 0 -11.5 4.5z" />
    <glyph glyph-name="uni1EC1.smcp" horiz-adv-x="499" 
d="M106.5 533q34.5 27 83.5 27q59 0 148 -3t105 -5v-55h-230q-31 0 -48 -15.5t-17 -46.5v-126l259 -4v-53l-259 -5v-124q0 -37 18 -50t49 -13h228v-55q-19 -3 -106 -5.5t-135 -2.5q-54 -1 -92 20.5t-38 87.5v342q0 59 34.5 86zM92 837l87 -129h-46l-109 129h68zM294 729
l110 -98h-48l-92 61l-100 -61h-48l121 98h57z" />
    <glyph glyph-name="uni1EC3.smcp" horiz-adv-x="499" 
d="M106.5 533q34.5 27 83.5 27q59 0 148 -3t105 -5v-55h-230q-31 0 -48 -15.5t-17 -46.5v-126l259 -4v-53l-259 -5v-124q0 -37 18 -50t49 -13h228v-55q-19 -3 -106 -5.5t-135 -2.5q-54 -1 -92 20.5t-38 87.5v342q0 59 34.5 86zM370 719q26 8 38 21.5t12 29.5q0 37 -42 37
q-13 0 -35 -6v30q20 7 45 7q36 0 54 -17.5t18 -47.5t-22 -53.5t-68 -36.5v36zM237 729h57l110 -98h-48l-92 61l-100 -61h-48z" />
    <glyph glyph-name="uni1EC5.smcp" horiz-adv-x="499" 
d="M106.5 533q34.5 27 83.5 27q59 0 148 -3t105 -5v-55h-230q-31 0 -48 -15.5t-17 -46.5v-126l259 -4v-53l-259 -5v-124q0 -37 18 -50t49 -13h228v-55q-19 -3 -106 -5.5t-135 -2.5q-54 -1 -92 20.5t-38 87.5v342q0 59 34.5 86zM219.5 853q17.5 -6 42.5 -17q40 -19 64 -19
t39 11.5t15 32.5h40q-3 -85 -83 -85q-19 0 -36 5.5t-42 16.5q-23 10 -38.5 15t-30.5 5q-21 0 -34.5 -11t-13.5 -31h-41q2 45 25 64t57 19q19 0 36.5 -6zM404 631h-48l-92 61l-100 -61h-48l121 98h57z" />
    <glyph glyph-name="uni0205.smcp" horiz-adv-x="499" 
d="M106.5 533q34.5 27 83.5 27q59 0 148 -3t105 -5v-55h-230q-31 0 -48 -15.5t-17 -46.5v-126l259 -4v-53l-259 -5v-124q0 -37 18 -50t49 -13h228v-55q-19 -3 -106 -5.5t-135 -2.5q-54 -1 -92 20.5t-38 87.5v342q0 59 34.5 86zM62 767h68l104 -136h-47zM208 767h68l104 -136
h-47z" />
    <glyph glyph-name="edieresis.smcp" horiz-adv-x="499" 
d="M106.5 533q34.5 27 83.5 27q59 0 148 -3t105 -5v-55h-230q-31 0 -48 -15.5t-17 -46.5v-126l259 -4v-53l-259 -5v-124q0 -37 18 -50t49 -13h228v-55q-19 -3 -106 -5.5t-135 -2.5q-54 -1 -92 20.5t-38 87.5v342q0 59 34.5 86zM134.5 657.5q-4.5 4.5 -4.5 11.5v78
q0 16 16 16h36q16 0 16 -16v-78q0 -16 -16 -16h-36q-7 0 -11.5 4.5zM329.5 657.5q-4.5 4.5 -4.5 11.5v78q0 16 16 16h36q16 0 16 -16v-78q0 -16 -16 -16h-36q-7 0 -11.5 4.5z" />
    <glyph glyph-name="edotaccent.smcp" horiz-adv-x="499" 
d="M106.5 533q34.5 27 83.5 27q59 0 148 -3t105 -5v-55h-230q-31 0 -48 -15.5t-17 -46.5v-126l259 -4v-53l-259 -5v-124q0 -37 18 -50t49 -13h228v-55q-19 -3 -106 -5.5t-135 -2.5q-54 -1 -92 20.5t-38 87.5v342q0 59 34.5 86zM232.5 664.5q-4.5 4.5 -4.5 11.5v78
q0 16 16 16h37q7 0 11 -4.5t4 -11.5v-78q0 -7 -4 -11.5t-11 -4.5h-37q-7 0 -11.5 4.5z" />
    <glyph glyph-name="uni1EB9.smcp" horiz-adv-x="499" 
d="M106.5 533q34.5 27 83.5 27q59 0 148 -3t105 -5v-55h-230q-31 0 -48 -15.5t-17 -46.5v-126l259 -4v-53l-259 -5v-124q0 -37 18 -50t49 -13h228v-55q-19 -3 -106 -5.5t-135 -2.5q-54 -1 -92 20.5t-38 87.5v342q0 59 34.5 86zM238.5 -205.5q-4.5 4.5 -4.5 11.5v78
q0 16 16 16h37q7 0 11.5 -4.5t4.5 -11.5v-78q0 -7 -4.5 -11.5t-11.5 -4.5h-37q-7 0 -11.5 4.5z" />
    <glyph glyph-name="egrave.smcp" horiz-adv-x="499" 
d="M106.5 533q34.5 27 83.5 27q59 0 148 -3t105 -5v-55h-230q-31 0 -48 -15.5t-17 -46.5v-126l259 -4v-53l-259 -5v-124q0 -37 18 -50t49 -13h228v-55q-19 -3 -106 -5.5t-135 -2.5q-54 -1 -92 20.5t-38 87.5v342q0 59 34.5 86zM134 767h67l104 -136h-46z" />
    <glyph glyph-name="uni1EBB.smcp" horiz-adv-x="499" 
d="M106.5 533q34.5 27 83.5 27q59 0 148 -3t105 -5v-55h-230q-31 0 -48 -15.5t-17 -46.5v-126l259 -4v-53l-259 -5v-124q0 -37 18 -50t49 -13h228v-55q-19 -3 -106 -5.5t-135 -2.5q-54 -1 -92 20.5t-38 87.5v342q0 59 34.5 86zM245 640q56 17 56 59q0 44 -48 44
q-18 0 -36 -6v34q18 6 46 6q41 0 61 -20.5t20 -56.5q0 -33 -24.5 -57.5t-74.5 -39.5v37z" />
    <glyph glyph-name="uni0207.smcp" horiz-adv-x="499" 
d="M106.5 533q34.5 27 83.5 27q59 0 148 -3t105 -5v-55h-230q-31 0 -48 -15.5t-17 -46.5v-126l259 -4v-53l-259 -5v-124q0 -37 18 -50t49 -13h228v-55q-19 -3 -106 -5.5t-135 -2.5q-54 -1 -92 20.5t-38 87.5v342q0 59 34.5 86zM356 737q36 -34 36 -107h-39q0 54 -25 78.5
t-64 24.5q-96 0 -96 -103h-39q0 75 36 108t96 33q59 0 95 -34z" />
    <glyph glyph-name="emacron.smcp" horiz-adv-x="499" 
d="M106.5 533q34.5 27 83.5 27q59 0 148 -3t105 -5v-55h-230q-31 0 -48 -15.5t-17 -46.5v-126l259 -4v-53l-259 -5v-124q0 -37 18 -50t49 -13h228v-55q-19 -3 -106 -5.5t-135 -2.5q-54 -1 -92 20.5t-38 87.5v342q0 59 34.5 86zM128 719h265v-47h-265v47z" />
    <glyph glyph-name="uni1E17.smcp" horiz-adv-x="499" 
d="M106.5 533q34.5 27 83.5 27q59 0 148 -3t105 -5v-55h-230q-31 0 -48 -15.5t-17 -46.5v-126l259 -4v-53l-259 -5v-124q0 -37 18 -50t49 -13h228v-55q-19 -3 -106 -5.5t-135 -2.5q-54 -1 -92 20.5t-38 87.5v342q0 59 34.5 86zM128 719h265v-47h-265v47zM332 894h67
l-125 -136h-46z" />
    <glyph glyph-name="uni1E15.smcp" horiz-adv-x="499" 
d="M106.5 533q34.5 27 83.5 27q59 0 148 -3t105 -5v-55h-230q-31 0 -48 -15.5t-17 -46.5v-126l259 -4v-53l-259 -5v-124q0 -37 18 -50t49 -13h228v-55q-19 -3 -106 -5.5t-135 -2.5q-54 -1 -92 20.5t-38 87.5v342q0 59 34.5 86zM128 719h265v-47h-265v47zM121 894h67
l104 -136h-46z" />
    <glyph glyph-name="eogonek.smcp" horiz-adv-x="499" 
d="M469 -141v-38q-10 -3 -26 -3q-49 0 -77 25t-28 64q0 61 70 96q-55 -2 -113.5 -4t-92.5 -2q-54 -1 -92 20.5t-38 87.5v342q0 59 34.5 86t83.5 27q59 0 148 -3t105 -5v-55h-230q-31 0 -48 -15.5t-17 -46.5v-126l259 -4v-53l-259 -5v-124q0 -37 18 -50t49 -13h228v-55
q-63 -35 -63 -81q0 -30 22 -47.5t61 -17.5h6z" />
    <glyph glyph-name="uni1EBD.smcp" horiz-adv-x="499" 
d="M106.5 533q34.5 27 83.5 27q59 0 148 -3t105 -5v-55h-230q-31 0 -48 -15.5t-17 -46.5v-126l259 -4v-53l-259 -5v-124q0 -37 18 -50t49 -13h228v-55q-19 -3 -106 -5.5t-135 -2.5q-54 -1 -92 20.5t-38 87.5v342q0 59 34.5 86zM128 728q28 26 67 26q23 0 41.5 -8.5
t45.5 -24.5q21 -14 36.5 -21t31.5 -7q26 0 43 16.5t18 46.5h40q-1 -51 -26 -80t-70 -29q-21 0 -39.5 8t-45.5 25q-23 14 -39 21.5t-32 7.5q-25 0 -41.5 -16t-17.5 -46h-41q1 55 29 81z" />
    <glyph glyph-name="uni0259.smcp" horiz-adv-x="518" 
d="M105.5 55q-48.5 60 -48.5 197v50h328q-1 81 -17.5 123.5t-53 58.5t-105.5 16q-58 0 -91 -4.5t-37 -4.5v55q74 19 150 19q82 0 131 -22t74.5 -84t25.5 -178q0 -111 -25 -174t-70 -87.5t-111 -24.5q-102 0 -150.5 60zM324.5 75.5q27.5 15.5 43 55.5t16.5 112h-250
q0 -99 26 -141t94 -42q43 0 70.5 15.5z" />
    <glyph glyph-name="f.smcp" horiz-adv-x="484" 
d="M106.5 533q34.5 27 83.5 27q-3 0 107 -1t146 -7v-55h-231q-31 0 -47.5 -15.5t-16.5 -45.5v-140l259 -5v-53l-259 -4v-234h-76v447q0 59 34.5 86z" />
    <glyph glyph-name="uni1E1F.smcp" horiz-adv-x="484" 
d="M106.5 533q34.5 27 83.5 27q-3 0 107 -1t146 -7v-55h-231q-31 0 -47.5 -15.5t-16.5 -45.5v-140l259 -5v-53l-259 -4v-234h-76v447q0 59 34.5 86zM232.5 664.5q-4.5 4.5 -4.5 11.5v78q0 16 16 16h37q7 0 11 -4.5t4 -11.5v-78q0 -7 -4 -11.5t-11 -4.5h-37q-7 0 -11.5 4.5z
" />
    <glyph glyph-name="g.smcp" horiz-adv-x="552" 
d="M456 544v-55q-94 11 -181 11q-57 0 -87.5 -21.5t-42.5 -68t-12 -130.5q0 -87 12 -133.5t40.5 -65.5t82.5 -19q37 0 76 8t70 19v153h-142v54q54 7 134 7q35 0 75 -2v-301h-57l-11 41q-35 -18 -78.5 -31t-88.5 -14q-74 0 -115 31t-57.5 92t-16.5 162q0 99 18 160.5
t62.5 92.5t124.5 31q92 0 194 -21z" />
    <glyph glyph-name="gbreve.smcp" horiz-adv-x="552" 
d="M456 544v-55q-94 11 -181 11q-57 0 -87.5 -21.5t-42.5 -68t-12 -130.5q0 -87 12 -133.5t40.5 -65.5t82.5 -19q37 0 76 8t70 19v153h-142v54q54 7 134 7q35 0 75 -2v-301h-57l-11 41q-35 -18 -78.5 -31t-88.5 -14q-74 0 -115 31t-57.5 92t-16.5 162q0 99 18 160.5
t62.5 92.5t124.5 31q92 0 194 -21zM174 663q-36 34 -36 107h39q0 -53 25 -78t64 -25q96 0 96 103h39q0 -75 -36 -108t-96 -33q-59 0 -95 34z" />
    <glyph glyph-name="gcaron.smcp" horiz-adv-x="552" 
d="M456 544v-55q-94 11 -181 11q-57 0 -87.5 -21.5t-42.5 -68t-12 -130.5q0 -87 12 -133.5t40.5 -65.5t82.5 -19q37 0 76 8t70 19v153h-142v54q54 7 134 7q35 0 75 -2v-301h-57l-11 41q-35 -18 -78.5 -31t-88.5 -14q-74 0 -115 31t-57.5 92t-16.5 162q0 99 18 160.5
t62.5 92.5t124.5 31q92 0 194 -21zM136 766h48l92 -97l100 97h48l-121 -135h-56z" />
    <glyph glyph-name="gcircumflex.smcp" horiz-adv-x="552" 
d="M456 544v-55q-94 11 -181 11q-57 0 -87.5 -21.5t-42.5 -68t-12 -130.5q0 -87 12 -133.5t40.5 -65.5t82.5 -19q37 0 76 8t70 19v153h-142v54q54 7 134 7q35 0 75 -2v-301h-57l-11 41q-35 -18 -78.5 -31t-88.5 -14q-74 0 -115 31t-57.5 92t-16.5 162q0 99 18 160.5
t62.5 92.5t124.5 31q92 0 194 -21zM251 766h56l110 -135h-48l-91 97l-100 -97h-49z" />
    <glyph glyph-name="gcommaaccent.smcp" horiz-adv-x="552" 
d="M456 544v-55q-94 11 -181 11q-57 0 -87.5 -21.5t-42.5 -68t-12 -130.5q0 -87 12 -133.5t40.5 -65.5t82.5 -19q37 0 76 8t70 19v153h-142v54q54 7 134 7q35 0 75 -2v-301h-57l-11 41q-35 -18 -78.5 -31t-88.5 -14q-74 0 -115 31t-57.5 92t-16.5 162q0 99 18 160.5
t62.5 92.5t124.5 31q92 0 194 -21zM205 -170l30 5q26 4 40 11.5t21 28.5t7 62h49q0 -52 -9 -81.5t-32.5 -43.5t-67.5 -14h-38v32z" />
    <glyph glyph-name="gdotaccent.smcp" horiz-adv-x="552" 
d="M456 544v-55q-94 11 -181 11q-57 0 -87.5 -21.5t-42.5 -68t-12 -130.5q0 -87 12 -133.5t40.5 -65.5t82.5 -19q37 0 76 8t70 19v153h-142v54q54 7 134 7q35 0 75 -2v-301h-57l-11 41q-35 -18 -78.5 -31t-88.5 -14q-74 0 -115 31t-57.5 92t-16.5 162q0 99 18 160.5
t62.5 92.5t124.5 31q92 0 194 -21zM245.5 664.5q-4.5 4.5 -4.5 11.5v78q0 16 16 16h37q7 0 11 -4.5t4 -11.5v-78q0 -7 -4 -11.5t-11 -4.5h-37q-7 0 -11.5 4.5z" />
    <glyph glyph-name="uni1E21.smcp" horiz-adv-x="552" 
d="M456 544v-55q-94 11 -181 11q-57 0 -87.5 -21.5t-42.5 -68t-12 -130.5q0 -87 12 -133.5t40.5 -65.5t82.5 -19q37 0 76 8t70 19v153h-142v54q54 7 134 7q35 0 75 -2v-301h-57l-11 41q-35 -18 -78.5 -31t-88.5 -14q-74 0 -115 31t-57.5 92t-16.5 162q0 99 18 160.5
t62.5 92.5t124.5 31q92 0 194 -21zM141 719h265v-47h-265v47z" />
    <glyph glyph-name="h.smcp" horiz-adv-x="577" 
d="M72 560h76v-254h281v254h76v-560h-76v242h-281v-242h-76v560z" />
    <glyph glyph-name="hbar.smcp" horiz-adv-x="577" 
d="M554 398h-49v-398h-76v242h-281v-242h-76v398h-48v39h48v123h76v-123h281v123h76v-123h49v-39zM429 398h-281v-92h281v92z" />
    <glyph glyph-name="uni1E2B.smcp" horiz-adv-x="577" 
d="M72 560h76v-254h281v254h76v-560h-76v242h-281v-242h-76v560zM188 -187q-36 34 -36 107h39q0 -54 24.5 -78.5t64.5 -24.5q96 0 96 103h39q0 -75 -36 -108t-96 -33q-59 0 -95 34z" />
    <glyph glyph-name="hcircumflex.smcp" horiz-adv-x="577" 
d="M72 560h76v-254h281v254h76v-560h-76v242h-281v-242h-76v560zM264 766h56l110 -135h-48l-91 97l-100 -97h-49z" />
    <glyph glyph-name="uni1E25.smcp" horiz-adv-x="577" 
d="M72 560h76v-254h281v254h76v-560h-76v242h-281v-242h-76v560zM256.5 -205.5q-4.5 4.5 -4.5 11.5v78q0 16 16 16h37q7 0 11.5 -4.5t4.5 -11.5v-78q0 -7 -4.5 -11.5t-11.5 -4.5h-37q-7 0 -11.5 4.5z" />
    <glyph glyph-name="i.smcp" horiz-adv-x="220" 
d="M148 560v-560h-76v560h76z" />
    <glyph glyph-name="iacute.smcp" horiz-adv-x="220" 
d="M148 560v-560h-76v560h76zM182 774h67l-125 -136h-46z" />
    <glyph glyph-name="ibreve.smcp" horiz-adv-x="220" 
d="M148 560v-560h-76v560h76zM8 670q-36 34 -36 107h39q0 -53 25 -78t64 -25q96 0 96 103h39q0 -75 -36 -108t-96 -33q-59 0 -95 34z" />
    <glyph glyph-name="icircumflex.smcp" horiz-adv-x="220" 
d="M148 560v-560h-76v560h76zM85 773h56l110 -135h-48l-91 97l-100 -97h-49z" />
    </font>
</defs>
</svg>
